STARTFONT 2.1
COMMENT
COMMENT Converted from OpenType font "NimbusSans-Regular.otf" by "otf2bdf 3.0".
COMMENT
FONT -FreeType-Nimbus Sans-Medium-R-Normal--69-500-100-100-P-361-ISO10646-1
SIZE 50 100 100
FONTBOUNDINGBOX 87 96 -15 -21
STARTPROPERTIES 19
FOUNDRY "FreeType"
FAMILY_NAME "Nimbus Sans"
WEIGHT_NAME "Medium"
SLANT "R"
SETWIDTH_NAME "Normal"
ADD_STYLE_NAME ""
PIXEL_SIZE 69
POINT_SIZE 500
RESOLUTION_X 100
RESOLUTION_Y 100
SPACING "P"
AVERAGE_WIDTH 361
CHARSET_REGISTRY "ISO10646"
CHARSET_ENCODING "1"
FONT_ASCENT 50
FONT_DESCENT 18
COPYRIGHT "(URW)++,Copyright 2014 by (URW)++ Design & Development"
_OTF_FONTFILE "NimbusSans-Regular.otf"
_OTF_PSNAME "NimbusSans-Regular"
ENDPROPERTIES
CHARS 854
STARTCHAR 0020
ENCODING 32
SWIDTH 273 0
DWIDTH 19 0
BBX 0 0 0 0
BITMAP
ENDCHAR
STARTCHAR 0021
ENCODING 33
SWIDTH 273 0
DWIDTH 19 0
BBX 5 51 9 0
BITMAP
F8
F8
F8
F8
F8
F8
F8
F8
F8
F8
F8
F8
F8
F8
F8
F8
F8
F8
F8
F8
F8
F8
F8
F8
F8
F8
F8
F8
F8
F8
F8
F8
78
70
70
70
70
70
70
00
00
00
00
00
F8
F8
F8
F8
F8
F8
F8
ENDCHAR
STARTCHAR 0022
ENCODING 34
SWIDTH 360 0
DWIDTH 25 0
BBX 17 17 4 32
BITMAP
FC1F80
FC1F80
FC1F80
FC1F80
FC1F80
FC1F80
FC1F80
FC1F80
FC1F80
FC1F80
F81F80
F80F00
780F00
780F00
780F00
700F00
700600
ENDCHAR
STARTCHAR 0023
ENCODING 35
SWIDTH 561 0
DWIDTH 39 0
BBX 37 50 1 -1
BITMAP
0007E01F80
0007E01F00
0007C01F00
0007C01F00
0007C01F00
0007C03F00
000FC03F00
000F803E00
000F803E00
000F803E00
000F803E00
001F807E00
001F007C00
001F007C00
1FFFFFFFF8
1FFFFFFFF8
1FFFFFFFF8
1FFFFFFFF8
1FFFFFFFF8
003E00F800
003E00F800
003E01F800
007E01F800
007C01F000
007C01F000
007C01F000
007C01F000
00FC03F000
00FC03E000
00F803E000
FFFFFFFFC0
FFFFFFFFC0
FFFFFFFFC0
FFFFFFFFC0
FFFFFFFFC0
01F007C000
01F007C000
01F00FC000
03F00FC000
03F00F8000
03E00F8000
03E00F8000
03E00F8000
07E01F8000
07E01F8000
07C01F0000
07C01F0000
07C01F0000
07C01F0000
0FC03F0000
ENDCHAR
STARTCHAR 0024
ENCODING 36
SWIDTH 561 0
DWIDTH 39 0
BBX 33 62 3 -9
BITMAP
0003C00000
0003C00000
0003C00000
0007F00000
007FFF0000
01FFFFC000
03FFFFE000
0FFFFFF000
1FFBC7F800
1FC3C1FC00
3F83C0FE00
3F03C07E00
7E03C07E00
7E03C03F00
7E03C03F00
7C03C03F00
7C03C03F00
7C03C00000
7E03C00000
7E03C00000
7E03C00000
7F03C00000
3F83C00000
3FE3C00000
1FFBC00000
0FFFE00000
07FFFC0000
03FFFF8000
00FFFFE000
003FFFF800
0007FFFC00
0003FFFE00
0003C7FF00
0003C0FF00
0003C07F80
0003C03F80
0003C01F80
0003C01F80
0003C00F80
F803C00F80
FC03C00F80
FC03C00F80
FC03C00F80
FC03C01F80
FC03C01F80
7E03C03F00
7F03C03F00
7F83C07E00
3FC3C1FE00
1FFBC7FC00
0FFFFFF800
07FFFFF000
03FFFFC000
007FFF0000
0003E00000
0003C00000
0003C00000
0003C00000
0003C00000
0003C00000
0003C00000
0003C00000
ENDCHAR
STARTCHAR 0025
ENCODING 37
SWIDTH 892 0
DWIDTH 62 0
BBX 58 51 2 -1
BITMAP
0000000000F80000
0000000000F00000
007E000001F00000
03FFC00001E00000
07FFE00003E00000
1FFFF00007C00000
1FFFF80007C00000
3F81FC000F800000
7E00FC000F000000
7C007E001F000000
7C003E001E000000
F8003E003E000000
F8001F003C000000
F8001F007C000000
F8001F0078000000
F8001F00F8000000
F8003E00F0000000
7C003E01F0000000
7E007E03E0000000
7F00FC03C0000000
3F81FC07C0000000
1FFFF80780000000
0FFFF00F80000000
07FFE00F00000000
03FF801F00000000
007E001E00000000
0000003E00000000
0000003C001F8000
0000007C00FFE000
0000007801FFF800
000000F803FFFC00
000001F007FFFE00
000001E00FE0FF00
000003E01F803F00
000003C01F001F80
000007C01F000F80
000007803E000F80
00000F803E0007C0
00000F003E0007C0
00001F003E0007C0
00001E003E0007C0
00003E003E000F80
00007C001F000F80
000078001F001F80
0000F8001F803F00
0000F0000FE07F00
0001F00007FFFE00
0001E00007FFFC00
0003E00001FFF800
0003C00000FFF000
0007C000003F8000
ENDCHAR
STARTCHAR 0026
ENCODING 38
SWIDTH 662 0
DWIDTH 46 0
BBX 40 51 4 -2
BITMAP
0003F80000
001FFE0000
003FFF8000
00FFFFC000
00FFFFE000
01FC0FE000
03F807F000
03F003F000
03E001F000
07E001F000
07E001F000
07E001F000
07E001F000
03E003F000
03F003F000
03F807F000
01FC0FE000
01FC3FC000
00FE7F8000
007FFF0000
007FFE0000
003FF80000
001FF00000
007FE00000
01FFF00000
03FFF80000
07FBFC03F0
0FF1FC03F0
1FC0FE03F0
3F807F03E0
7F007F83E0
7E003FC7E0
FE001FE7E0
FC000FE7C0
FC0007FFC0
FC0007FF80
F80003FF80
FC0001FF00
FC0000FF00
FC00007F80
FC0000FF80
FE0001FFC0
7F0003FFE0
7F8007FFF0
7FC01FF7F8
3FFDFFE3F8
1FFFFFC3FC
0FFFFF01FE
07FFFE00FF
01FFF80000
003FC00000
ENDCHAR
STARTCHAR 0027
ENCODING 39
SWIDTH 187 0
DWIDTH 13 0
BBX 7 17 3 32
BITMAP
FE
FE
FE
FE
FE
FE
FE
FE
7E
7C
7C
7C
7C
3C
38
38
38
ENDCHAR
STARTCHAR 0028
ENCODING 40
SWIDTH 331 0
DWIDTH 23 0
BBX 15 65 5 -14
BITMAP
001E
003C
003C
0078
00F8
00F0
01F0
01E0
03E0
03C0
07C0
07C0
0F80
0F80
0F80
1F00
1F00
1F00
3F00
3E00
3E00
7E00
7E00
7C00
7C00
7C00
7C00
FC00
FC00
FC00
FC00
FC00
FC00
FC00
FC00
FC00
FC00
FC00
FC00
7C00
7C00
7C00
7E00
7E00
3E00
3E00
3E00
3F00
1F00
1F00
1F80
0F80
0F80
07C0
07C0
07C0
03E0
03E0
01F0
00F0
00F8
0078
007C
003C
001E
ENDCHAR
STARTCHAR 0029
ENCODING 41
SWIDTH 331 0
DWIDTH 23 0
BBX 15 65 3 -14
BITMAP
F000
7800
7800
3C00
3E00
1E00
1F00
0F00
0F80
0F80
07C0
07C0
03E0
03E0
03E0
01F0
01F0
01F0
01F8
00F8
00F8
00F8
00FC
00FC
007C
007C
007C
007E
007E
007E
007E
007E
007E
007E
007E
007E
007E
007E
007C
007C
007C
007C
00FC
00FC
00F8
00F8
00F8
01F0
01F0
01F0
03E0
03E0
03E0
07C0
07C0
0780
0F80
0F00
1F00
1E00
3E00
3C00
7800
7800
F000
ENDCHAR
STARTCHAR 002A
ENCODING 42
SWIDTH 388 0
DWIDTH 27 0
BBX 21 20 3 31
BITMAP
00F000
00F000
00F000
00F000
00F000
40F030
78F0F0
FFF7F0
FFFFF8
7FFFF0
0FFF00
01F800
03FC00
03FE00
07DF00
0F8F80
1F0F80
3F07C0
0E0380
040200
ENDCHAR
STARTCHAR 002B
ENCODING 43
SWIDTH 590 0
DWIDTH 41 0
BBX 34 33 3 -1
BITMAP
0001F00000
0001F00000
0001F00000
0001F00000
0001F00000
0001F00000
0001F00000
0001F00000
0001F00000
0001F00000
0001F00000
0001F00000
0001F00000
0001F00000
FFFFFFFFC0
FFFFFFFFC0
FFFFFFFFC0
FFFFFFFFC0
FFFFFFFFC0
0001F00000
0001F00000
0001F00000
0001F00000
0001F00000
0001F00000
0001F00000
0001F00000
0001F00000
0001F00000
0001F00000
0001F00000
0001F00000
0001F00000
ENDCHAR
STARTCHAR 002C
ENCODING 44
SWIDTH 273 0
DWIDTH 19 0
BBX 7 17 6 -10
BITMAP
FE
FE
FE
FE
FE
FE
FE
0E
0E
0E
0E
0E
0E
1C
FC
F8
E0
ENDCHAR
STARTCHAR 002D
ENCODING 45
SWIDTH 331 0
DWIDTH 23 0
BBX 17 5 3 17
BITMAP
FFFF80
FFFF80
FFFF80
FFFF80
FFFF80
ENDCHAR
STARTCHAR 002E
ENCODING 46
SWIDTH 273 0
DWIDTH 19 0
BBX 7 7 6 0
BITMAP
FE
FE
FE
FE
FE
FE
FE
ENDCHAR
STARTCHAR 002F
ENCODING 47
SWIDTH 273 0
DWIDTH 19 0
BBX 20 52 0 -1
BITMAP
0000F0
0001E0
0001E0
0001E0
0003C0
0003C0
0003C0
000380
000780
000780
000700
000F00
000F00
000E00
001E00
001E00
001C00
003C00
003C00
003C00
007800
007800
007800
00F000
00F000
00F000
00E000
01E000
01E000
01C000
03C000
03C000
038000
078000
078000
070000
0F0000
0F0000
0F0000
1E0000
1E0000
1E0000
3C0000
3C0000
3C0000
780000
780000
780000
700000
F00000
F00000
E00000
ENDCHAR
STARTCHAR 0030
ENCODING 48
SWIDTH 561 0
DWIDTH 39 0
BBX 32 52 3 -2
BITMAP
000FF000
003FFE00
00FFFF00
01FFFFC0
03FFFFE0
07FE7FE0
0FF00FF0
0FE007F8
1FC003F8
1F8001FC
3F8001FC
3F0000FC
3F0000FE
7F00007E
7E00007E
7E00007E
7E00007F
7E00007F
FE00003F
FE00003F
FC00003F
FC00003F
FC00003F
FC00003F
FC00003F
FC00003F
FC00003F
FC00003F
FC00003F
FC00003F
FC00003F
FC00003F
FE00003F
FE00003F
7E00003F
7E00007F
7E00007E
7E00007E
7F00007E
3F0000FE
3F0000FC
3F8000FC
1F8001FC
1FC001F8
0FE003F8
0FF007F0
07F81FE0
03FFFFE0
01FFFFC0
00FFFF00
007FFE00
000FF000
ENDCHAR
STARTCHAR 0031
ENCODING 49
SWIDTH 561 0
DWIDTH 39 0
BBX 17 50 7 0
BITMAP
000780
000780
000F80
000F80
001F80
001F80
003F80
007F80
01FF80
3FFF80
FFFF80
FFFF80
FFFF80
FFFF80
001F80
001F80
001F80
001F80
001F80
001F80
001F80
001F80
001F80
001F80
001F80
001F80
001F80
001F80
001F80
001F80
001F80
001F80
001F80
001F80
001F80
001F80
001F80
001F80
001F80
001F80
001F80
001F80
001F80
001F80
001F80
001F80
001F80
001F80
001F80
001F80
ENDCHAR
STARTCHAR 0032
ENCODING 50
SWIDTH 561 0
DWIDTH 39 0
BBX 33 50 2 0
BITMAP
0007FC0000
003FFF8000
00FFFFE000
01FFFFF800
03FFFFFC00
07FF1FFC00
0FF803FE00
0FE000FF00
1FC0007F00
1FC0003F80
3F80003F80
3F80001F80
3F00001F80
3F00001F80
3F00001F80
3F00001F80
3F00001F80
0000001F80
0000001F80
0000003F80
0000007F00
0000007F00
000000FE00
000001FE00
000007FC00
00001FF800
00003FF000
0000FFC000
0003FF8000
000FFE0000
001FFC0000
003FF00000
00FFC00000
01FF000000
03FE000000
07F8000000
0FF0000000
0FE0000000
1FC0000000
1F80000000
3F00000000
3F00000000
7F00000000
7E00000000
7FFFFFFF80
7FFFFFFF80
7FFFFFFF80
7FFFFFFF80
7FFFFFFF80
FFFFFFFF80
ENDCHAR
STARTCHAR 0033
ENCODING 51
SWIDTH 561 0
DWIDTH 39 0
BBX 33 52 2 -2
BITMAP
000FFC0000
007FFF0000
01FFFFC000
03FFFFF000
07FFFFF800
0FFE3FF800
0FF003FC00
1FC001FC00
1F8000FE00
3F8000FE00
3F00007E00
3F00007F00
3F00007F00
7F00007F00
7E00007F00
7E00007F00
0000007E00
0000007E00
000000FE00
000000FC00
000003FC00
00000FF800
0007FFF000
0007FFC000
0007FF8000
0007FFF000
0007FFF800
00000FFC00
000001FE00
000000FF00
0000007F00
0000003F80
0000003F80
0000001F80
0000001F80
0000001F80
FC00001F80
FE00001F80
FE00001F80
7E00001F80
7E00003F80
7F00003F00
7F00007F00
3F80007F00
3FC000FE00
1FE003FE00
1FFE3FFC00
0FFFFFF800
07FFFFF000
01FFFFC000
00FFFF0000
000FF80000
ENDCHAR
STARTCHAR 0034
ENCODING 52
SWIDTH 561 0
DWIDTH 39 0
BBX 34 50 2 0
BITMAP
000003E000
000007E000
00000FE000
00000FE000
00001FE000
00003FE000
00003FE000
00007FE000
0000FFE000
0000FFE000
0001FFE000
0003F7E000
0007E7E000
0007E7E000
000FC7E000
001F87E000
001F07E000
003F07E000
007E07E000
00FC07E000
00FC07E000
01F807E000
03F007E000
03F007E000
07E007E000
0FC007E000
0F8007E000
1F8007E000
3F0007E000
7E0007E000
7E0007E000
FC0007E000
F80007E000
FFFFFFFFC0
FFFFFFFFC0
FFFFFFFFC0
FFFFFFFFC0
FFFFFFFFC0
000007E000
000007E000
000007E000
000007E000
000007E000
000007E000
000007E000
000007E000
000007E000
000007E000
000007E000
000007E000
ENDCHAR
STARTCHAR 0035
ENCODING 53
SWIDTH 561 0
DWIDTH 39 0
BBX 34 51 2 -2
BITMAP
03FFFFFE00
07FFFFFE00
07FFFFFE00
07FFFFFE00
07FFFFFE00
07FFFFFE00
07C0000000
07C0000000
0FC0000000
0FC0000000
0FC0000000
0FC0000000
0FC0000000
0FC0000000
0F80000000
0F80000000
1F80000000
1F83FC0000
1F9FFF8000
1FFFFFE000
1FFFFFF000
1FFFFFF800
1FFF7FFC00
3FF003FE00
3FC001FE00
3F8000FF00
3F00007F00
0000003F80
0000003F80
0000001F80
0000001F80
0000001FC0
0000001FC0
0000001FC0
0000001FC0
0000001FC0
0000001F80
FE00001F80
7E00001F80
7E00003F80
7F00003F00
3F00007F00
3F80007E00
3FC000FE00
1FF003FC00
0FFE3FF800
07FFFFF000
03FFFFE000
01FFFFC000
007FFF0000
000FF80000
ENDCHAR
STARTCHAR 0036
ENCODING 54
SWIDTH 561 0
DWIDTH 39 0
BBX 33 52 3 -2
BITMAP
0003FC0000
001FFF0000
007FFFC000
00FFFFE000
01FFFFF000
03FFBFF800
07F807F800
0FE001FC00
0FE001FC00
1FC000FE00
1F80007E00
3F80007E00
3F00007F00
3F00000000
7F00000000
7E00000000
7E00000000
7E00000000
7E00000000
FE00000000
FC0FFE0000
FC3FFF8000
FC7FFFE000
FCFFFFF000
FDFFFFF800
FFF80FFC00
FFE003FC00
FFC001FE00
FF8000FE00
FF00007F00
FF00007F00
FE00003F00
FE00003F00
FE00003F80
FE00003F80
FE00003F80
7E00003F80
7E00003F80
7E00003F00
7E00003F00
3F00003F00
3F00007F00
3F8000FE00
1FC000FE00
1FE001FC00
0FF007FC00
07FF3FF800
07FFFFF000
03FFFFE000
00FFFF8000
007FFF0000
000FF80000
ENDCHAR
STARTCHAR 0037
ENCODING 55
SWIDTH 561 0
DWIDTH 39 0
BBX 33 49 3 0
BITMAP
FFFFFFFF80
FFFFFFFF80
FFFFFFFF80
FFFFFFFF80
FFFFFFFF80
FFFFFFFF80
0000001F00
0000003E00
0000007E00
000000FC00
000000F800
000001F800
000003F000
000003E000
000007E000
000007C000
00000F8000
00001F8000
00001F0000
00003F0000
00003E0000
00007E0000
0000FC0000
0000FC0000
0001F80000
0001F80000
0003F00000
0003F00000
0007E00000
0007E00000
000FC00000
000FC00000
000FC00000
001F800000
001F800000
001F800000
003F000000
003F000000
007F000000
007E000000
007E000000
007E000000
00FC000000
00FC000000
00FC000000
01FC000000
01FC000000
01F8000000
01F8000000
ENDCHAR
STARTCHAR 0038
ENCODING 56
SWIDTH 561 0
DWIDTH 39 0
BBX 33 52 3 -2
BITMAP
000FF80000
007FFE0000
01FFFF8000
03FFFFE000
07FFFFF000
0FFE7FF000
1FE007F800
1FC003FC00
3F8001FC00
3F8000FC00
3F0000FE00
7F0000FE00
7F00007E00
7F00007E00
7F00007E00
7F0000FE00
3F0000FE00
3F0000FC00
3F8001FC00
1FC003FC00
1FE007F800
0FF81FF000
07FFFFE000
01FFFF8000
00FFFF8000
03FFFFC000
0FFFFFF000
1FF00FF800
3FC003FC00
3F8001FE00
7F0000FE00
7E00007F00
FE00007F00
FC00003F00
FC00003F80
FC00003F80
FC00003F80
FC00003F80
FC00003F80
FC00003F00
FE00003F00
FE00007F00
7F00007F00
7F0000FE00
3F8001FE00
3FE007FC00
1FFE7FF800
0FFFFFF000
07FFFFE000
01FFFFC000
00FFFF0000
000FF00000
ENDCHAR
STARTCHAR 0039
ENCODING 57
SWIDTH 561 0
DWIDTH 39 0
BBX 32 52 3 -2
BITMAP
000FF000
007FFE00
01FFFF80
03FFFFC0
0FFFFFE0
0FFC7FF0
1FE00FF0
3FC003F8
3F8001FC
7F0000FC
7E0000FC
FE00007E
FC00007E
FC00007E
FC00003F
FC00003F
FC00003F
FC00003F
FC00003F
FC00007F
FE00007F
FE00007F
7E0000FF
7F0001FF
7F8003FF
3FC007FF
1FF01FFF
1FFFFFFF
0FFFFFBF
03FFFE3F
01FFFC3F
007FF03F
0000003F
0000003F
0000007F
0000007E
0000007E
0000007E
000000FE
7E0000FC
7E0000FC
7F0001FC
3F0001F8
3F8003F8
3FC007F0
1FE01FE0
0FFCFFE0
0FFFFFC0
07FFFF80
03FFFE00
00FFF800
001FE000
ENDCHAR
STARTCHAR 003A
ENCODING 58
SWIDTH 273 0
DWIDTH 19 0
BBX 7 36 8 0
BITMAP
FE
FE
FE
FE
FE
FE
FE
00
00
00
00
00
00
00
00
00
00
00
00
00
00
00
00
00
00
00
00
00
00
FE
FE
FE
FE
FE
FE
FE
ENDCHAR
STARTCHAR 003B
ENCODING 59
SWIDTH 273 0
DWIDTH 19 0
BBX 7 46 8 -10
BITMAP
FE
FE
FE
FE
FE
FE
FE
00
00
00
00
00
00
00
00
00
00
00
00
00
00
00
00
00
00
00
00
00
00
FE
FE
FE
FE
FE
FE
FE
0E
0E
0E
0E
0E
1C
1C
F8
F0
E0
ENDCHAR
STARTCHAR 003C
ENCODING 60
SWIDTH 590 0
DWIDTH 41 0
BBX 34 33 3 0
BITMAP
00000000C0
00000007C0
0000001FC0
0000007FC0
000003FFC0
00000FFF80
00007FFC00
0001FFF000
0007FF8000
003FFE0000
00FFF80000
03FFC00000
1FFF000000
7FF8000000
FFE0000000
FF00000000
FF00000000
FFC0000000
FFF0000000
3FFE000000
0FFF800000
01FFF00000
007FFC0000
000FFF0000
0003FFE000
0000FFF800
00001FFF00
000007FFC0
000001FFC0
0000003FC0
0000000FC0
00000001C0
0000000040
ENDCHAR
STARTCHAR 003D
ENCODING 61
SWIDTH 590 0
DWIDTH 41 0
BBX 34 17 3 8
BITMAP
FFFFFFFFC0
FFFFFFFFC0
FFFFFFFFC0
FFFFFFFFC0
FFFFFFFFC0
0000000000
0000000000
0000000000
0000000000
0000000000
0000000000
0000000000
FFFFFFFFC0
FFFFFFFFC0
FFFFFFFFC0
FFFFFFFFC0
FFFFFFFFC0
ENDCHAR
STARTCHAR 003E
ENCODING 62
SWIDTH 590 0
DWIDTH 41 0
BBX 34 34 3 -1
BITMAP
8000000000
E000000000
F800000000
FF00000000
FFC0000000
FFF0000000
3FFE000000
0FFF800000
01FFE00000
007FFC0000
001FFF0000
0003FFE000
0000FFF800
00001FFE00
000007FFC0
000001FFC0
0000003FC0
0000001FC0
0000007FC0
000001FFC0
00000FFF00
00003FFC00
0001FFF000
0007FF8000
003FFE0000
00FFF80000
07FFC00000
1FFF000000
7FF8000000
FFE0000000
FF80000000
FC00000000
F000000000
C000000000
ENDCHAR
STARTCHAR 003F
ENCODING 63
SWIDTH 561 0
DWIDTH 39 0
BBX 30 52 5 0
BITMAP
001FF000
00FFFE00
03FFFF80
07FFFFC0
0FFFFFE0
1FFCFFF0
1FC00FF8
3F8007F8
3F0003FC
7E0001FC
7E0000FC
7E0000FC
7E0000FC
7C0000FC
FC0000FC
FC0000FC
000000FC
000001FC
000001F8
000003F8
000007F0
00000FF0
00001FE0
00003FC0
00007F80
0000FF00
0001FE00
0003FC00
0007F800
0007F000
000FE000
000FE000
000FC000
000FC000
000FC000
000FC000
000FC000
000FC000
00000000
00000000
00000000
00000000
00000000
00000000
00000000
000FC000
000FC000
000FC000
000FC000
000FC000
000FC000
000FC000
ENDCHAR
STARTCHAR 0040
ENCODING 64
SWIDTH 1008 0
DWIDTH 70 0
BBX 64 62 2 -10
BITMAP
00000007FF000000
0000007FFFF00000
000003FFFFFE0000
00000FFFFFFF8000
00003FFFFFFFE000
0000FFFE1FFFF800
0001FFC0007FFC00
0007FE00000FFE00
000FF8000003FF00
001FF0000000FF80
003FC00000007FC0
007F800000003FE0
00FF000000001FF0
01FE000000000FF0
01FC0000000007F8
03F80000000003F8
07F00007FC0001FC
07E0001FFF0FC1FC
0FE0007FFF8F80FE
0FC000FFFFDF80FE
1F8001FE0FDF807E
1F8003F803FF807F
1F0007F001FF007F
3F000FE000FF003F
3F001FC000FF003F
3E001F8000FE003F
7E003F8000FE003F
7E003F0000FE003F
7E007F0000FC003F
7E007E0000FC003F
7C007E0000FC003F
FC007E0001F8007E
FC007E0001F8007E
FC00FE0001F8007E
FC00FE0001F000FC
FC00FE0003F000FC
7E00FE0003F000FC
7E007E0007E001F8
7E007E0007E003F0
7E007F000FE007F0
7F007F801FE00FE0
3F003FC03FE01FC0
3F001FE0FFF07F80
3F801FFFF3FFFF00
1FC00FFFE3FFFE00
1FC007FFC1FFFC00
0FE001FF00FFF000
0FF00000003F8000
07F8000000000000
03FC000000000000
03FE000000000000
01FF000000000000
00FF800000000000
007FE00000000000
003FF80000040000
000FFF00003C0000
0007FFFE0FFE0000
0001FFFFFFFE0000
00007FFFFFFE0000
00001FFFFFFC0000
000003FFFFE00000
0000003FFC000000
ENDCHAR
STARTCHAR 0041
ENCODING 65
SWIDTH 662 0
DWIDTH 46 0
BBX 44 51 1 0
BITMAP
00003FE00000
00003FE00000
00007FE00000
00007FF00000
00007FF00000
0000FFF00000
0000FFF80000
0000FDF80000
0001FDFC0000
0001F9FC0000
0001F8FC0000
0003F8FE0000
0003F0FE0000
0007F07E0000
0007F07F0000
0007E07F0000
000FE03F0000
000FE03F8000
000FC03F8000
001FC01F8000
001F801FC000
001F801FC000
003F800FC000
003F000FE000
003F000FE000
007F0007E000
007E0007F000
00FE0007F000
00FE0003F800
00FC0003F800
01FFFFFFF800
01FFFFFFFC00
01FFFFFFFC00
03FFFFFFFC00
03FFFFFFFE00
03F00000FE00
07F00000FE00
07F000007F00
07E000007F00
0FE000007F00
0FE000003F80
0FC000003F80
1FC000003F80
1FC000001FC0
3F8000001FC0
3F8000001FC0
3F8000000FE0
7F0000000FE0
7F0000000FE0
7F00000007F0
FE00000007F0
ENDCHAR
STARTCHAR 0042
ENCODING 66
SWIDTH 662 0
DWIDTH 46 0
BBX 38 51 5 0
BITMAP
FFFFFFC000
FFFFFFF800
FFFFFFFE00
FFFFFFFF00
FFFFFFFF80
FFFFFFFFC0
FE00007FC0
FE00001FE0
FE00000FE0
FE000007F0
FE000007F0
FE000007F0
FE000003F0
FE000003F0
FE000003F0
FE000007F0
FE000007F0
FE000007E0
FE00000FE0
FE00000FC0
FE00003FC0
FE0000FF80
FFFFFFFF00
FFFFFFFC00
FFFFFFFC00
FFFFFFFF00
FFFFFFFFC0
FFFFFFFFE0
FE00001FF0
FE000007F8
FE000003F8
FE000001FC
FE000001FC
FE000001FC
FE000000FC
FE000000FC
FE000000FC
FE000000FC
FE000000FC
FE000001FC
FE000001FC
FE000001F8
FE000003F8
FE000007F8
FE00001FF0
FFFFFFFFE0
FFFFFFFFE0
FFFFFFFFC0
FFFFFFFF00
FFFFFFFE00
FFFFFFF000
ENDCHAR
STARTCHAR 0043
ENCODING 67
SWIDTH 720 0
DWIDTH 50 0
BBX 44 54 3 -2
BITMAP
00003FF80000
0001FFFF0000
000FFFFFC000
001FFFFFF000
007FFFFFF800
00FFFFFFFC00
01FFC00FFE00
03FE0001FF00
03FC0000FF00
07F800007F80
0FF000003F80
0FE000001FC0
1FC000001FC0
1FC000000FC0
1F8000000FE0
3F8000000FE0
3F0000000FE0
3F0000000000
7F0000000000
7F0000000000
7E0000000000
7E0000000000
7E0000000000
7E0000000000
FE0000000000
FE0000000000
FE0000000000
FE0000000000
FE0000000000
FE0000000000
FE0000000000
7E0000000000
7E0000000000
7E0000000000
7F00000007F0
7F00000007F0
7F00000007F0
3F80000007E0
3F8000000FE0
3F8000000FE0
1FC000000FE0
1FE000001FC0
0FE000001FC0
0FF000003F80
07F800007F80
07FC0000FF00
03FF0001FF00
01FFC00FFE00
00FFFFFFFC00
007FFFFFF800
003FFFFFF000
000FFFFFC000
0003FFFF0000
00003FF00000
ENDCHAR
STARTCHAR 0044
ENCODING 68
SWIDTH 720 0
DWIDTH 50 0
BBX 40 51 6 0
BITMAP
FFFFFF8000
FFFFFFF000
FFFFFFFC00
FFFFFFFE00
FFFFFFFF80
FFFFFFFFC0
FE0000FFE0
FE00003FE0
FE00000FF0
FE000007F8
FE000003F8
FE000001FC
FE000001FC
FE000000FE
FE000000FE
FE000000FE
FE0000007E
FE0000007F
FE0000007F
FE0000007F
FE0000003F
FE0000003F
FE0000003F
FE0000003F
FE0000003F
FE0000003F
FE0000003F
FE0000003F
FE0000003F
FE0000003F
FE0000003F
FE0000007F
FE0000007F
FE0000007F
FE0000007E
FE000000FE
FE000000FE
FE000000FC
FE000001FC
FE000001FC
FE000003F8
FE000007F8
FE00000FF0
FE00003FE0
FE0000FFE0
FFFFFFFFC0
FFFFFFFF80
FFFFFFFE00
FFFFFFFC00
FFFFFFF000
FFFFFF0000
ENDCHAR
STARTCHAR 0045
ENCODING 69
SWIDTH 662 0
DWIDTH 46 0
BBX 37 51 6 0
BITMAP
FFFFFFFFE0
FFFFFFFFE0
FFFFFFFFE0
FFFFFFFFE0
FFFFFFFFE0
FFFFFFFFE0
FE00000000
FE00000000
FE00000000
FE00000000
FE00000000
FE00000000
FE00000000
FE00000000
FE00000000
FE00000000
FE00000000
FE00000000
FE00000000
FE00000000
FE00000000
FE00000000
FFFFFFFFC0
FFFFFFFFC0
FFFFFFFFC0
FFFFFFFFC0
FFFFFFFFC0
FFFFFFFFC0
FE00000000
FE00000000
FE00000000
FE00000000
FE00000000
FE00000000
FE00000000
FE00000000
FE00000000
FE00000000
FE00000000
FE00000000
FE00000000
FE00000000
FE00000000
FE00000000
FE00000000
FFFFFFFFF8
FFFFFFFFF8
FFFFFFFFF8
FFFFFFFFF8
FFFFFFFFF8
FFFFFFFFF8
ENDCHAR
STARTCHAR 0046
ENCODING 70
SWIDTH 604 0
DWIDTH 42 0
BBX 34 51 6 0
BITMAP
FFFFFFFFC0
FFFFFFFFC0
FFFFFFFFC0
FFFFFFFFC0
FFFFFFFFC0
FFFFFFFFC0
FE00000000
FE00000000
FE00000000
FE00000000
FE00000000
FE00000000
FE00000000
FE00000000
FE00000000
FE00000000
FE00000000
FE00000000
FE00000000
FE00000000
FE00000000
FE00000000
FFFFFFFE00
FFFFFFFE00
FFFFFFFE00
FFFFFFFE00
FFFFFFFE00
FFFFFFFE00
FE00000000
FE00000000
FE00000000
FE00000000
FE00000000
FE00000000
FE00000000
FE00000000
FE00000000
FE00000000
FE00000000
FE00000000
FE00000000
FE00000000
FE00000000
FE00000000
FE00000000
FE00000000
FE00000000
FE00000000
FE00000000
FE00000000
FE00000000
ENDCHAR
STARTCHAR 0047
ENCODING 71
SWIDTH 777 0
DWIDTH 54 0
BBX 46 54 3 -2
BITMAP
00001FFC0000
0001FFFFC000
0007FFFFF000
001FFFFFFC00
003FFFFFFE00
007FFFFFFF00
00FFE003FF80
01FF0000FFC0
03FE00003FE0
07F800001FE0
0FF000000FF0
0FE0000007F0
1FE0000007F8
1FC0000003F8
3F80000003F8
3F80000001F8
3F00000001FC
7F0000000000
7F0000000000
7E0000000000
7E0000000000
7E0000000000
FE0000000000
FE0000000000
FE0000000000
FE00007FFFFC
FE00007FFFFC
FE00007FFFFC
FE00007FFFFC
FE00007FFFFC
FE00007FFFFC
FE000000007C
FE000000007C
7E000000007C
7F00000000FC
7F00000000FC
7F00000000FC
3F80000000FC
3F80000000FC
3F80000001FC
1FC0000001FC
1FE0000003FC
0FE0000007FC
0FF000000FFC
07F800001FFC
03FE00003FFC
03FF8000FF7C
01FFE003FE7C
00FFFFFFFC7C
003FFFFFF87C
001FFFFFE03C
0007FFFFC03C
0001FFFE003C
00003FF00000
ENDCHAR
STARTCHAR 0048
ENCODING 72
SWIDTH 720 0
DWIDTH 50 0
BBX 39 51 6 0
BITMAP
FC000000FE
FC000000FE
FC000000FE
FC000000FE
FC000000FE
FC000000FE
FC000000FE
FC000000FE
FC000000FE
FC000000FE
FC000000FE
FC000000FE
FC000000FE
FC000000FE
FC000000FE
FC000000FE
FC000000FE
FC000000FE
FC000000FE
FC000000FE
FC000000FE
FC000000FE
FFFFFFFFFE
FFFFFFFFFE
FFFFFFFFFE
FFFFFFFFFE
FFFFFFFFFE
FFFFFFFFFE
FC000000FE
FC000000FE
FC000000FE
FC000000FE
FC000000FE
FC000000FE
FC000000FE
FC000000FE
FC000000FE
FC000000FE
FC000000FE
FC000000FE
FC000000FE
FC000000FE
FC000000FE
FC000000FE
FC000000FE
FC000000FE
FC000000FE
FC000000FE
FC000000FE
FC000000FE
FC000000FE
ENDCHAR
STARTCHAR 0049
ENCODING 73
SWIDTH 273 0
DWIDTH 19 0
BBX 6 51 7 0
BITMAP
FC
FC
FC
FC
FC
FC
FC
FC
FC
FC
FC
FC
FC
FC
FC
FC
FC
FC
FC
FC
FC
FC
FC
FC
FC
FC
FC
FC
FC
FC
FC
FC
FC
FC
FC
FC
FC
FC
FC
FC
FC
FC
FC
FC
FC
FC
FC
FC
FC
FC
FC
ENDCHAR
STARTCHAR 004A
ENCODING 74
SWIDTH 504 0
DWIDTH 35 0
BBX 29 53 1 -2
BITMAP
000003F8
000003F8
000003F8
000003F8
000003F8
000003F8
000003F8
000003F8
000003F8
000003F8
000003F8
000003F8
000003F8
000003F8
000003F8
000003F8
000003F8
000003F8
000003F8
000003F8
000003F8
000003F8
000003F8
000003F8
000003F8
000003F8
000003F8
000003F8
000003F8
000003F8
000003F8
000003F8
000003F8
000003F8
000003F8
FE0003F8
FE0003F8
FE0003F8
FE0003F8
FE0003F8
FE0003F8
FE0003F0
FE0007F0
7F0007F0
7F000FF0
7F800FE0
3FC03FE0
3FF9FFC0
1FFFFF80
0FFFFF00
07FFFE00
01FFF800
003FE000
ENDCHAR
STARTCHAR 004B
ENCODING 75
SWIDTH 662 0
DWIDTH 46 0
BBX 40 51 5 0
BITMAP
FE000000FF
FE000001FE
FE000003FC
FE000007F8
FE00000FF0
FE00001FE0
FE00003FC0
FE00007F80
FE0000FF00
FE0001FE00
FE0003FC00
FE0007F800
FE000FF000
FE001FE000
FE003FC000
FE007F8000
FE00FF0000
FE01FE0000
FE03FC0000
FE07F80000
FE0FF00000
FE1FF00000
FE3FF80000
FE7FFC0000
FEFFFC0000
FFFEFE0000
FFFCFF0000
FFF87F8000
FFF03F8000
FFE03FC000
FFC01FE000
FF800FE000
FF000FF000
FE0007F800
FE0003F800
FE0003FC00
FE0001FE00
FE0000FE00
FE00007F00
FE00007F80
FE00003F80
FE00001FC0
FE00001FE0
FE00000FF0
FE000007F0
FE000007F8
FE000003FC
FE000001FC
FE000001FE
FE000000FF
FE0000007F
ENDCHAR
STARTCHAR 004C
ENCODING 76
SWIDTH 561 0
DWIDTH 39 0
BBX 31 51 6 0
BITMAP
FC000000
FC000000
FC000000
FC000000
FC000000
FC000000
FC000000
FC000000
FC000000
FC000000
FC000000
FC000000
FC000000
FC000000
FC000000
FC000000
FC000000
FC000000
FC000000
FC000000
FC000000
FC000000
FC000000
FC000000
FC000000
FC000000
FC000000
FC000000
FC000000
FC000000
FC000000
FC000000
FC000000
FC000000
FC000000
FC000000
FC000000
FC000000
FC000000
FC000000
FC000000
FC000000
FC000000
FC000000
FC000000
FFFFFFFE
FFFFFFFE
FFFFFFFE
FFFFFFFE
FFFFFFFE
FFFFFFFE
ENDCHAR
STARTCHAR 004D
ENCODING 77
SWIDTH 835 0
DWIDTH 58 0
BBX 48 51 5 0
BITMAP
FF80000001FF
FFC0000003FF
FFC0000003FF
FFC0000003FF
FFE0000007FF
FFE0000007FF
FFE0000007FF
FFF000000FFF
FFF000000FFF
FDF000000FBF
FDF800001FBF
FDF800001FBF
FCF800001F3F
FCFC00003F3F
FCFC00003F3F
FC7C00003E3F
FC7E00007E3F
FC7E00007E3F
FC3E00007C3F
FC3F0000FC3F
FC3F0000FC3F
FC1F0000F83F
FC1F8001F83F
FC1F8001F83F
FC0F8001F03F
FC0FC003F03F
FC0FC003F03F
FC07C003E03F
FC07E007E03F
FC07E007E03F
FC03E007C03F
FC03F00FC03F
FC03F00FC03F
FC01F00F803F
FC01F81F803F
FC01F81F803F
FC00F81F003F
FC00FC3F003F
FC00FC3F003F
FC007E3E003F
FC007E7E003F
FC007E7E003F
FC003F7C003F
FC003FFC003F
FC003FFC003F
FC001FF8003F
FC001FF8003F
FC001FF8003F
FC000FF0003F
FC000FF0003F
FC000FF0003F
ENDCHAR
STARTCHAR 004E
ENCODING 78
SWIDTH 720 0
DWIDTH 50 0
BBX 40 51 5 0
BITMAP
FF0000003F
FF0000003F
FF8000003F
FFC000003F
FFC000003F
FFE000003F
FFE000003F
FFF000003F
FFF800003F
FFF800003F
FDFC00003F
FCFE00003F
FCFE00003F
FC7F00003F
FC7F00003F
FC3F80003F
FC1FC0003F
FC1FC0003F
FC0FE0003F
FC07F0003F
FC07F0003F
FC03F8003F
FC03FC003F
FC01FC003F
FC00FE003F
FC00FE003F
FC007F003F
FC003F803F
FC003F803F
FC001FC03F
FC000FE03F
FC000FE03F
FC0007F03F
FC0007F83F
FC0003F83F
FC0001FC3F
FC0001FC3F
FC0000FE3F
FC00007F3F
FC00007F3F
FC00003FBF
FC00001FFF
FC00001FFF
FC00000FFF
FC00000FFF
FC000007FF
FC000003FF
FC000003FF
FC000001FF
FC000000FF
FC000000FF
ENDCHAR
STARTCHAR 004F
ENCODING 79
SWIDTH 777 0
DWIDTH 54 0
BBX 49 54 3 -2
BITMAP
00001FF8000000
0001FFFF800000
0007FFFFE00000
001FFFFFF80000
003FFFFFFE0000
00FFFFFFFF0000
01FFE007FF8000
03FF0000FFC000
03FC00003FE000
07F800001FF000
0FF000000FF000
1FE0000007F800
1FC0000003F800
3FC0000001FC00
3F80000001FC00
3F80000000FE00
7F00000000FE00
7F00000000FE00
7E000000007F00
FE000000007F00
FE000000007F00
FE000000003F00
FC000000003F00
FC000000003F00
FC000000003F00
FC000000003F80
FC000000003F80
FC000000003F80
FC000000003F80
FC000000003F00
FC000000003F00
FC000000003F00
FE000000003F00
FE000000007F00
FE000000007F00
7E000000007F00
7F000000007E00
7F00000000FE00
3F80000000FE00
3F80000001FC00
3FC0000001FC00
1FC0000003F800
1FE0000007F800
0FF000000FF000
07F800001FE000
07FE00003FE000
03FF0000FFC000
01FFE003FF8000
00FFFFFFFF0000
003FFFFFFE0000
001FFFFFF80000
0007FFFFE00000
0001FFFF800000
00001FF8000000
ENDCHAR
STARTCHAR 0050
ENCODING 80
SWIDTH 662 0
DWIDTH 46 0
BBX 37 51 6 0
BITMAP
FFFFFFC000
FFFFFFF800
FFFFFFFE00
FFFFFFFF00
FFFFFFFF80
FFFFFFFFC0
FE00007FE0
FE00001FE0
FE00000FF0
FE000007F0
FE000007F0
FE000003F8
FE000003F8
FE000003F8
FE000003F8
FE000003F8
FE000003F8
FE000003F8
FE000007F8
FE000007F0
FE00000FF0
FE00001FE0
FE00007FE0
FFFFFFFFC0
FFFFFFFF80
FFFFFFFF00
FFFFFFFE00
FFFFFFF800
FFFFFFE000
FE00000000
FE00000000
FE00000000
FE00000000
FE00000000
FE00000000
FE00000000
FE00000000
FE00000000
FE00000000
FE00000000
FE00000000
FE00000000
FE00000000
FE00000000
FE00000000
FE00000000
FE00000000
FE00000000
FE00000000
FE00000000
FE00000000
ENDCHAR
STARTCHAR 0051
ENCODING 81
SWIDTH 777 0
DWIDTH 54 0
BBX 49 56 3 -4
BITMAP
00001FF8000000
0001FFFF800000
0007FFFFE00000
001FFFFFF80000
003FFFFFFE0000
00FFFFFFFF0000
01FFE007FF8000
03FF0000FFC000
07FC00003FE000
07F800001FF000
0FF000000FF000
1FE0000007F800
1FC0000003F800
3FC0000001FC00
3F80000001FC00
3F80000000FE00
7F00000000FE00
7F000000007E00
7E000000007F00
FE000000007F00
FE000000007F00
FE000000003F00
FC000000003F00
FC000000003F00
FC000000003F00
FC000000003F80
FC000000003F80
FC000000003F80
FC000000003F80
FC000000003F00
FC000000003F00
FC000000003F00
FE000000003F00
FE000000007F00
FE000000007F00
7E000000007F00
7F000000007E00
7F00000000FE00
3F80000200FE00
3F80000701FC00
3FC0000F81FC00
1FC0000FE3F800
1FE0000FF7F800
0FF00007FFF000
07F80003FFE000
07FE0001FFE000
03FF0000FFC000
01FFE003FFC000
00FFFFFFFFE000
003FFFFFFFF000
001FFFFFFFF800
0007FFFFE1FE00
0001FFFF80FF00
00001FF8007E00
00000000003C00
00000000001800
ENDCHAR
STARTCHAR 0052
ENCODING 82
SWIDTH 720 0
DWIDTH 50 0
BBX 41 51 6 0
BITMAP
FFFFFFF80000
FFFFFFFF0000
FFFFFFFFC000
FFFFFFFFE000
FFFFFFFFF000
FFFFFFFFF800
FE00000FFC00
FE000003FC00
FE000001FE00
FE000001FE00
FE000000FE00
FE000000FE00
FE000000FE00
FE000000FE00
FE000000FE00
FE000000FE00
FE000000FE00
FE000000FE00
FE000000FE00
FE000001FC00
FE000001FC00
FE000003F800
FE00000FF000
FFFFFFFFE000
FFFFFFFF8000
FFFFFFFF0000
FFFFFFFF8000
FFFFFFFFC000
FFFFFFFFF000
FE00001FF000
FE000007F800
FE000003F800
FE000001FC00
FE000001FC00
FE000000FC00
FE000000FC00
FE000000FC00
FE000000FC00
FE000000FC00
FE000000FC00
FE000000FC00
FE000000FC00
FE000000FC00
FE000000FC00
FE000000FC00
FE000000FE00
FE000000FE00
FE000000FE00
FE0000007F00
FE0000007F80
FE0000007F80
ENDCHAR
STARTCHAR 0053
ENCODING 83
SWIDTH 662 0
DWIDTH 46 0
BBX 40 54 3 -2
BITMAP
0001FF8000
001FFFF800
007FFFFE00
01FFFFFF80
03FFFFFFC0
07FFC7FFE0
0FFC003FF0
0FF0000FF0
1FE00007F8
1FC00003F8
1F800001FC
3F800001FC
3F000000FC
3F000000FC
3F000000FC
3F000000FC
3F80000000
3F80000000
3FC0000000
1FE0000000
1FF8000000
1FFF000000
0FFFE00000
07FFFE0000
03FFFFC000
00FFFFFC00
003FFFFF80
0007FFFFC0
00007FFFF0
00000FFFF8
000000FFFC
0000001FFC
00000007FE
00000001FE
00000000FF
000000007F
FC0000007F
FE0000003F
FE0000003F
7E0000003F
7E0000003F
7F0000007F
7F0000007F
3F800000FE
3FC00000FE
1FE00001FC
1FF00007FC
0FFE001FF8
07FFFFFFF0
03FFFFFFE0
01FFFFFFC0
007FFFFF00
001FFFFC00
0001FFC000
ENDCHAR
STARTCHAR 0054
ENCODING 84
SWIDTH 604 0
DWIDTH 42 0
BBX 40 51 1 0
BITMAP
FFFFFFFFFF
FFFFFFFFFF
FFFFFFFFFF
FFFFFFFFFF
FFFFFFFFFF
FFFFFFFFFF
00007F0000
00007F0000
00007F0000
00007F0000
00007F0000
00007F0000
00007F0000
00007F0000
00007F0000
00007F0000
00007F0000
00007F0000
00007F0000
00007F0000
00007F0000
00007F0000
00007F0000
00007F0000
00007F0000
00007F0000
00007F0000
00007F0000
00007F0000
00007F0000
00007F0000
00007F0000
00007F0000
00007F0000
00007F0000
00007F0000
00007F0000
00007F0000
00007F0000
00007F0000
00007F0000
00007F0000
00007F0000
00007F0000
00007F0000
00007F0000
00007F0000
00007F0000
00007F0000
00007F0000
00007F0000
ENDCHAR
STARTCHAR 0055
ENCODING 85
SWIDTH 720 0
DWIDTH 50 0
BBX 39 53 6 -2
BITMAP
FC000000FE
FC000000FE
FC000000FE
FC000000FE
FC000000FE
FC000000FE
FC000000FE
FC000000FE
FC000000FE
FC000000FE
FC000000FE
FC000000FE
FC000000FE
FC000000FE
FC000000FE
FC000000FE
FC000000FE
FC000000FE
FC000000FE
FC000000FE
FC000000FE
FC000000FE
FC000000FE
FC000000FE
FC000000FE
FC000000FE
FC000000FE
FC000000FE
FC000000FE
FC000000FE
FC000000FE
FC000000FE
FC000000FE
FC000000FE
FC000000FE
FC000000FE
FC000000FE
FC000000FE
FE000000FE
FE000000FE
FE000000FC
7F000001FC
7F000001FC
7F800003F8
3FC00007F8
3FF0001FF0
1FFC007FE0
0FFFFFFFC0
07FFFFFF80
03FFFFFF00
00FFFFFC00
003FFFF000
0003FF0000
ENDCHAR
STARTCHAR 0056
ENCODING 86
SWIDTH 662 0
DWIDTH 46 0
BBX 43 51 2 0
BITMAP
FE0000000FE0
7F0000001FC0
7F0000001FC0
7F0000001FC0
3F8000003F80
3F8000003F80
3F8000003F80
1FC000007F00
1FC000007F00
1FC000007F00
0FE00000FE00
0FE00000FE00
07E00000FC00
07F00000FC00
07F00001FC00
03F00001F800
03F80001F800
03F80003F800
01F80003F000
01FC0003F000
01FC0007F000
00FC0007E000
00FE0007E000
00FE000FE000
007E000FC000
007F000FC000
003F001FC000
003F001F8000
003F801F8000
001F803F8000
001FC03F0000
001FC03F0000
000FC07F0000
000FE07E0000
000FE07E0000
0007E0FE0000
0007F0FC0000
0007F0FC0000
0003F1FC0000
0003F9F80000
0003F9F80000
0001FBF00000
0001FFF00000
0000FFF00000
0000FFE00000
0000FFE00000
00007FE00000
00007FC00000
00007FC00000
00003FC00000
00003F800000
ENDCHAR
STARTCHAR 0057
ENCODING 87
SWIDTH 950 0
DWIDTH 66 0
BBX 62 51 2 0
BITMAP
FE00001FE00001FC
FE00001FE00001FC
FE00001FE00001FC
FF00001FE00003FC
7F00003FF00003F8
7F00003FF00003F8
7F00003FF00003F8
7F00007FF80003F8
3F80007FF80007F0
3F80007FF80007F0
3F80007FF80007F0
3F8000FCFC0007F0
1FC000FCFC000FE0
1FC000FCFC000FE0
1FC000F8FC000FE0
1FC001F87E000FE0
0FE001F87E000FC0
0FE001F87E001FC0
0FE003F03F001FC0
0FE003F03F001FC0
07E003F03F001F80
07F003F03F003F80
07F007E01F803F80
07F007E01F803F80
03F007E01F803F00
03F807C01FC03F00
03F80FC00FC07F00
03F80FC00FC07F00
01F80FC00FC07E00
01FC1F8007E07E00
01FC1F8007E0FE00
00FC1F8007E0FE00
00FC1F8007F0FC00
00FC3F0003F0FC00
00FE3F0003F0FC00
007E3F0003F1FC00
007E3F0001F9F800
007E7E0001F9F800
007F7E0001F9F800
003F7E0001FBF800
003FFC0000FFF000
003FFC0000FFF000
003FFC0000FFF000
001FFC0000FFF000
001FF800007FE000
001FF800007FE000
001FF800007FE000
000FF800003FE000
000FF000003FC000
000FF000003FC000
000FF000003FC000
ENDCHAR
STARTCHAR 0058
ENCODING 88
SWIDTH 662 0
DWIDTH 46 0
BBX 43 51 2 0
BITMAP
7F8000003FC0
3F8000003F80
3FC000007F80
1FE00000FF00
0FE00000FE00
0FF00001FC00
07F80003FC00
03F80003F800
03FC0007F000
01FE000FF000
00FE000FE000
00FF001FC000
007F803FC000
003F803F8000
003FC07F0000
001FE0FF0000
000FE0FE0000
000FF1FC0000
0007FBFC0000
0003FBF80000
0003FFF00000
0001FFE00000
0000FFE00000
00007FC00000
00007F800000
00007FC00000
0000FFC00000
0000FFE00000
0001FFF00000
0003FFF00000
0003FBF80000
0007F3FC0000
000FE1FC0000
000FE0FE0000
001FC0FF0000
003F807F0000
007F803F8000
007F003FC000
00FF001FE000
01FE000FE000
01FC000FF000
03FC0007F800
07F80003F800
07F00003FC00
0FF00001FE00
1FE00001FE00
1FC00000FF00
3FC000007F80
7F8000007F80
7F0000003FC0
FF0000001FE0
ENDCHAR
STARTCHAR 0059
ENCODING 89
SWIDTH 662 0
DWIDTH 46 0
BBX 45 51 1 0
BITMAP
FF00000007F8
7F8000000FF0
7F8000000FE0
3FC000001FE0
1FE000001FC0
1FE000003FC0
0FF000007F80
07F000007F00
07F80000FF00
03FC0000FE00
03FC0001FC00
01FE0003FC00
00FE0003F800
00FF0007F800
007F8007F000
003F800FE000
003FC00FE000
001FC01FC000
000FE03FC000
000FF03F8000
0007F07F0000
0007F87F0000
0003F8FE0000
0001FCFC0000
0001FFFC0000
0000FFF80000
00007FF80000
00007FF00000
00003FE00000
00003FE00000
00001FC00000
00001FC00000
00001FC00000
00001FC00000
00001FC00000
00001FC00000
00001FC00000
00001FC00000
00001FC00000
00001FC00000
00001FC00000
00001FC00000
00001FC00000
00001FC00000
00001FC00000
00001FC00000
00001FC00000
00001FC00000
00001FC00000
00001FC00000
00001FC00000
ENDCHAR
STARTCHAR 005A
ENCODING 90
SWIDTH 604 0
DWIDTH 42 0
BBX 38 51 2 0
BITMAP
3FFFFFFFFC
3FFFFFFFFC
3FFFFFFFFC
3FFFFFFFFC
3FFFFFFFFC
3FFFFFFFFC
00000003FC
00000007F8
0000000FF0
0000001FF0
0000001FE0
0000003FC0
0000007F80
000000FF00
000000FF00
000001FE00
000003FC00
000007F800
000007F800
00000FF000
00001FE000
00003FC000
00007FC000
00007F8000
0000FF0000
0001FE0000
0003FC0000
0003FC0000
0007F80000
000FF00000
001FE00000
001FE00000
003FC00000
007F800000
00FF000000
01FF000000
01FE000000
03FC000000
07F8000000
0FF8000000
0FF0000000
1FE0000000
3FC0000000
7F80000000
7F80000000
FFFFFFFFFC
FFFFFFFFFC
FFFFFFFFFC
FFFFFFFFFC
FFFFFFFFFC
FFFFFFFFFC
ENDCHAR
STARTCHAR 005B
ENCODING 91
SWIDTH 273 0
DWIDTH 19 0
BBX 13 66 4 -15
BITMAP
FFF8
FFF8
FFF8
FFF8
FFF8
FC00
FC00
FC00
FC00
FC00
FC00
FC00
FC00
FC00
FC00
FC00
FC00
FC00
FC00
FC00
FC00
FC00
FC00
FC00
FC00
FC00
FC00
FC00
FC00
FC00
FC00
FC00
FC00
FC00
FC00
FC00
FC00
FC00
FC00
FC00
FC00
FC00
FC00
FC00
FC00
FC00
FC00
FC00
FC00
FC00
FC00
FC00
FC00
FC00
FC00
FC00
FC00
FC00
FC00
FC00
FC00
FFF8
FFF8
FFF8
FFF8
FFF8
ENDCHAR
STARTCHAR 005C
ENCODING 92
SWIDTH 273 0
DWIDTH 19 0
BBX 20 52 0 -1
BITMAP
E00000
F00000
F00000
700000
780000
780000
780000
3C0000
3C0000
3C0000
1E0000
1E0000
1E0000
0F0000
0F0000
0F0000
070000
078000
078000
038000
03C000
03C000
01C000
01E000
01E000
01E000
00F000
00F000
00F000
007800
007800
007800
003C00
003C00
003C00
001E00
001E00
001E00
000E00
000F00
000F00
000700
000780
000780
000380
0003C0
0003C0
0003C0
0001E0
0001E0
0001E0
0000F0
ENDCHAR
STARTCHAR 005D
ENCODING 93
SWIDTH 273 0
DWIDTH 19 0
BBX 13 66 2 -15
BITMAP
FFF8
FFF8
FFF8
FFF8
FFF8
01F8
01F8
01F8
01F8
01F8
01F8
01F8
01F8
01F8
01F8
01F8
01F8
01F8
01F8
01F8
01F8
01F8
01F8
01F8
01F8
01F8
01F8
01F8
01F8
01F8
01F8
01F8
01F8
01F8
01F8
01F8
01F8
01F8
01F8
01F8
01F8
01F8
01F8
01F8
01F8
01F8
01F8
01F8
01F8
01F8
01F8
01F8
01F8
01F8
01F8
01F8
01F8
01F8
01F8
01F8
01F8
FFF8
FFF8
FFF8
FFF8
FFF8
ENDCHAR
STARTCHAR 005E
ENCODING 94
SWIDTH 475 0
DWIDTH 33 0
BBX 26 26 3 23
BITMAP
003F0000
003F0000
003F8000
007F8000
007FC000
00FFC000
00FBC000
00F3E000
01F1E000
01F1F000
03E1F000
03E0F800
03C0F800
07C07800
07C07C00
0F807C00
0F803E00
0F003E00
1F001E00
1F001F00
3E001F00
3E000F80
3C000F80
7C000780
7C0007C0
F80007C0
ENDCHAR
STARTCHAR 005F
ENCODING 95
SWIDTH 561 0
DWIDTH 39 0
BBX 42 3 -2 -12
BITMAP
FFFFFFFFFFC0
FFFFFFFFFFC0
FFFFFFFFFFC0
ENDCHAR
STARTCHAR 0060
ENCODING 96
SWIDTH 331 0
DWIDTH 23 0
BBX 14 10 2 42
BITMAP
FF00
7F00
3F80
1FC0
0FC0
07E0
03F0
01F0
00F8
007C
ENDCHAR
STARTCHAR 0061
ENCODING 97
SWIDTH 561 0
DWIDTH 39 0
BBX 34 39 3 -2
BITMAP
001FF80000
00FFFF8000
03FFFFC000
07FFFFE000
0FFFFFF000
1FFE7FF800
1FC007F800
3F8001FC00
3F0001FC00
3F0000FC00
3F0000FC00
3E0000FC00
000000FC00
000000FC00
000001FC00
000003FC00
00007FFC00
003FFFFC00
03FFFFFC00
07FFFFFC00
1FFFF8FC00
3FFC00FC00
7FC000FC00
7F0000FC00
7E0000FC00
FC0000FC00
FC0000FC00
FC0000FC00
FC0000FC00
FC0001FC00
FC0003FC00
FE0007FC00
7F001FFC00
7FC07FFE00
3FFFFEFFC0
1FFFFC7FC0
0FFFF87FC0
07FFE03FC0
00FF001FC0
ENDCHAR
STARTCHAR 0062
ENCODING 98
SWIDTH 561 0
DWIDTH 39 0
BBX 32 53 4 -2
BITMAP
FC000000
FC000000
FC000000
FC000000
FC000000
FC000000
FC000000
FC000000
FC000000
FC000000
FC000000
FC000000
FC000000
FC000000
FC07F800
FC3FFF00
FC7FFF80
FCFFFFE0
FDFFFFF0
FFFEFFF8
FFE00FF8
FFC003FC
FF8001FC
FF0001FE
FE0000FE
FE00007E
FE00007F
FC00007F
FC00003F
FC00003F
FC00003F
FC00003F
FC00003F
FC00003F
FC00003F
FC00003F
FC00003F
FC00003F
FC00003F
FC00007F
FE00007E
FE00007E
FF0000FE
FF0000FC
FF8001FC
FFC003F8
FFE00FF8
FBFE7FF0
FBFFFFE0
F9FFFFC0
F8FFFF80
003FFE00
0007F000
ENDCHAR
STARTCHAR 0063
ENCODING 99
SWIDTH 504 0
DWIDTH 35 0
BBX 31 39 2 -2
BITMAP
000FF800
003FFE00
00FFFF80
03FFFFE0
07FFFFF0
0FFE3FF0
0FF007F8
1FC003F8
1F8001FC
3F8000FC
3F0000FC
7F0000FE
7E00007E
7E000000
7E000000
FE000000
FC000000
FC000000
FC000000
FC000000
FC000000
FC000000
FC000000
FE000000
7E000000
7E00007E
7E00007E
7F00007E
3F0000FE
3F8000FC
3F8001FC
1FC003F8
1FF007F8
0FFE3FF0
07FFFFE0
03FFFFC0
01FFFF80
007FFE00
000FF000
ENDCHAR
STARTCHAR 0064
ENCODING 100
SWIDTH 561 0
DWIDTH 39 0
BBX 32 53 2 -2
BITMAP
0000001F
0000001F
0000001F
0000001F
0000001F
0000001F
0000001F
0000001F
0000001F
0000001F
0000001F
0000001F
0000001F
0000001F
000FE01F
007FFC1F
01FFFF1F
03FFFF9F
07FFFFDF
0FFF7FFF
1FF007FF
1FC003FF
3F8001FF
3F8000FF
7F00007F
7E00007F
7E00003F
FE00003F
FC00003F
FC00003F
FC00003F
FC00001F
FC00001F
FC00001F
FC00001F
FC00001F
FC00003F
FC00003F
FC00003F
FE00003F
7E00003F
7F00007F
7F00007F
3F8000FF
3F8001FF
1FE003FF
1FF007FF
0FFF7FFF
07FFFFDF
03FFFF9F
01FFFF1F
007FFC00
001FF000
ENDCHAR
STARTCHAR 0065
ENCODING 101
SWIDTH 561 0
DWIDTH 39 0
BBX 33 39 3 -2
BITMAP
000FF80000
007FFF0000
00FFFF8000
03FFFFE000
07FFFFF000
0FFE3FF800
1FF007FC00
1FC001FC00
3F8000FE00
3F0000FE00
7F00007F00
7E00007F00
7E00003F00
FC00003F00
FC00003F00
FC00003F00
FFFFFFFF80
FFFFFFFF80
FFFFFFFF80
FFFFFFFF80
FFFFFFFF80
FC00000000
FC00000000
FC00000000
FC00000000
FC00000000
7E00003F00
7E00003F00
7F00007E00
3F00007E00
3F8000FE00
1FC001FC00
1FF007F800
0FFE3FF800
07FFFFF000
03FFFFE000
01FFFF8000
007FFF0000
000FF80000
ENDCHAR
STARTCHAR 0066
ENCODING 102
SWIDTH 273 0
DWIDTH 19 0
BBX 17 51 1 0
BITMAP
003F80
00FF80
01FF80
03FF80
03FF80
03F800
07F000
07E000
07E000
07E000
07E000
07E000
07E000
07E000
07E000
FFFF80
FFFF80
FFFF80
FFFF80
FFFF80
07E000
07E000
07E000
07E000
07E000
07E000
07E000
07E000
07E000
07E000
07E000
07E000
07E000
07E000
07E000
07E000
07E000
07E000
07E000
07E000
07E000
07E000
07E000
07E000
07E000
07E000
07E000
07E000
07E000
07E000
07E000
ENDCHAR
STARTCHAR 0067
ENCODING 103
SWIDTH 561 0
DWIDTH 39 0
BBX 31 53 2 -16
BITMAP
000FE000
007FF83E
00FFFE3E
01FFFF3E
03FFFFBE
07FE7FFE
0FF00FFE
1FC003FE
1F8001FE
3F8001FE
3F0000FE
3F0000FE
7E00007E
7E00007E
7E00007E
7E00007E
7E00007E
7E00007E
FE00007E
FC00007E
FE00007E
FE00007E
7E00007E
7E00007E
7E00007E
7E00007E
7E00007E
7F0000FE
3F0000FE
3F8001FE
1F8001FE
1FC003FE
0FF00FFE
07FE7FFE
07FFFF7E
03FFFE7E
00FFFC7E
007FF87E
000FC07E
0000007E
0000007E
0000007E
3F0000FC
3F0000FC
3F0000FC
3F8001F8
1FC003F8
0FF00FF0
0FFFFFE0
07FFFFC0
01FFFF80
00FFFE00
000FE000
ENDCHAR
STARTCHAR 0068
ENCODING 104
SWIDTH 561 0
DWIDTH 39 0
BBX 29 51 5 0
BITMAP
FC000000
FC000000
FC000000
FC000000
FC000000
FC000000
FC000000
FC000000
FC000000
FC000000
FC000000
FC000000
FC000000
FC000000
FC07FC00
FC1FFF00
FC7FFFC0
FCFFFFE0
FDFFFFE0
FFF83FF0
FFC00FF0
FF8003F8
FF0003F8
FF0001F8
FE0001F8
FE0001F8
FC0001F8
FC0001F8
FC0001F8
FC0001F8
FC0001F8
FC0001F8
FC0001F8
FC0001F8
FC0001F8
FC0001F8
FC0001F8
FC0001F8
FC0001F8
FC0001F8
FC0001F8
FC0001F8
FC0001F8
FC0001F8
FC0001F8
FC0001F8
FC0001F8
FC0001F8
FC0001F8
FC0001F8
FC0001F8
ENDCHAR
STARTCHAR 0069
ENCODING 105
SWIDTH 216 0
DWIDTH 15 0
BBX 5 51 5 0
BITMAP
F8
F8
F8
F8
F8
F8
F8
00
00
00
00
00
00
00
00
F8
F8
F8
F8
F8
F8
F8
F8
F8
F8
F8
F8
F8
F8
F8
F8
F8
F8
F8
F8
F8
F8
F8
F8
F8
F8
F8
F8
F8
F8
F8
F8
F8
F8
F8
F8
ENDCHAR
STARTCHAR 006A
ENCODING 106
SWIDTH 216 0
DWIDTH 15 0
BBX 12 66 -1 -15
BITMAP
03F0
03F0
03F0
03F0
03F0
03F0
03F0
0000
0000
0000
0000
0000
0000
0000
0000
03F0
03F0
03F0
03F0
03F0
03F0
03F0
03F0
03F0
03F0
03F0
03F0
03F0
03F0
03F0
03F0
03F0
03F0
03F0
03F0
03F0
03F0
03F0
03F0
03F0
03F0
03F0
03F0
03F0
03F0
03F0
03F0
03F0
03F0
03F0
03F0
03F0
03F0
03F0
03F0
03F0
03F0
03F0
03F0
07F0
0FE0
FFE0
FFE0
FFC0
FF80
FC00
ENDCHAR
STARTCHAR 006B
ENCODING 107
SWIDTH 504 0
DWIDTH 35 0
BBX 31 51 4 0
BITMAP
FC000000
FC000000
FC000000
FC000000
FC000000
FC000000
FC000000
FC000000
FC000000
FC000000
FC000000
FC000000
FC000000
FC000000
FC000000
FC0007F0
FC000FE0
FC001FC0
FC003F80
FC007F00
FC00FE00
FC01FC00
FC03F800
FC07F000
FC0FE000
FC1FC000
FC3F8000
FC7F0000
FCFF8000
FDFF8000
FFFFC000
FFFFE000
FFCFE000
FF87F000
FF07F000
FE03F800
FC01FC00
FC01FC00
FC00FE00
FC00FF00
FC007F00
FC003F80
FC003FC0
FC001FC0
FC000FE0
FC000FE0
FC0007F0
FC0007F8
FC0003F8
FC0001FC
FC0001FE
ENDCHAR
STARTCHAR 006C
ENCODING 108
SWIDTH 216 0
DWIDTH 15 0
BBX 6 51 5 0
BITMAP
FC
FC
FC
FC
FC
FC
FC
FC
FC
FC
FC
FC
FC
FC
FC
FC
FC
FC
FC
FC
FC
FC
FC
FC
FC
FC
FC
FC
FC
FC
FC
FC
FC
FC
FC
FC
FC
FC
FC
FC
FC
FC
FC
FC
FC
FC
FC
FC
FC
FC
FC
ENDCHAR
STARTCHAR 006D
ENCODING 109
SWIDTH 835 0
DWIDTH 58 0
BBX 48 37 5 0
BITMAP
000FF0007F80
F83FFE01FFF0
F87FFF07FFF8
F9FFFF8FFFFC
F9FFFFDFFFFE
FBF07FFF83FE
FFC01FFE00FE
FF000FFC007F
FF000FF8007F
FE0007F0003F
FC0007F0003F
FC0007E0003F
FC0007E0003F
FC0007E0003F
FC0007E0003F
FC0007E0003F
FC0007E0003F
FC0007E0003F
FC0007E0003F
FC0007E0003F
FC0007E0003F
FC0007E0003F
FC0007E0003F
FC0007E0003F
FC0007E0003F
FC0007E0003F
FC0007E0003F
FC0007E0003F
FC0007E0003F
FC0007E0003F
FC0007E0003F
FC0007E0003F
FC0007E0003F
FC0007E0003F
FC0007E0003F
FC0007E0003F
FC0007E0003F
ENDCHAR
STARTCHAR 006E
ENCODING 110
SWIDTH 561 0
DWIDTH 39 0
BBX 29 37 5 0
BITMAP
0007F800
F81FFF00
F87FFF80
F8FFFFE0
F9FFFFE0
FBF83FF0
FBC00FF0
FF8003F8
FF0003F8
FF0001F8
FE0001F8
FE0001F8
FC0001F8
FC0001F8
FC0001F8
FC0001F8
FC0001F8
FC0001F8
FC0001F8
FC0001F8
FC0001F8
FC0001F8
FC0001F8
FC0001F8
FC0001F8
FC0001F8
FC0001F8
FC0001F8
FC0001F8
FC0001F8
FC0001F8
FC0001F8
FC0001F8
FC0001F8
FC0001F8
FC0001F8
FC0001F8
ENDCHAR
STARTCHAR 006F
ENCODING 111
SWIDTH 561 0
DWIDTH 39 0
BBX 33 39 2 -2
BITMAP
0007F80000
003FFF0000
00FFFFC000
01FFFFF000
03FFFFF800
07FF3FF800
0FF003FC00
1FE001FE00
1FC000FE00
3F80007F00
3F00007F00
3F00003F00
7F00003F80
7E00001F80
7E00001F80
7E00001F80
7E00001F80
7E00001F80
7E00001F80
FE00001F80
7E00001F80
7E00001F80
7E00001F80
7E00001F80
7E00001F80
7E00001F80
7F00003F80
3F00003F00
3F80003F00
3F80007F00
1FC000FE00
1FE001FE00
0FF003FC00
07FF3FF800
07FFFFF000
03FFFFE000
00FFFFC000
003FFF0000
000FF80000
ENDCHAR
STARTCHAR 0070
ENCODING 112
SWIDTH 561 0
DWIDTH 39 0
BBX 32 53 4 -16
BITMAP
0007F800
F83FFE00
F87FFF80
F8FFFFC0
F9FFFFE0
FBFEFFF0
FFE00FF8
FFC003FC
FF8001FC
FF0000FE
FF0000FE
FE00007E
FE00007F
FC00007F
FC00003F
FC00003F
FC00003F
FC00003F
FC00003F
FC00003F
FC00003F
FC00003F
FC00003F
FC00003F
FC00003F
FC00007F
FE00007F
FE00007E
FF0000FE
FF0000FE
FF8001FC
FFC003FC
FFE00FF8
FFFE7FF0
FFFFFFE0
FDFFFFC0
FC7FFF80
FC3FFE00
FC07F800
FC000000
FC000000
FC000000
FC000000
FC000000
FC000000
FC000000
FC000000
FC000000
FC000000
FC000000
FC000000
FC000000
FC000000
ENDCHAR
STARTCHAR 0071
ENCODING 113
SWIDTH 561 0
DWIDTH 39 0
BBX 32 53 2 -16
BITMAP
000FF000
007FFC1F
01FFFF1F
03FFFF9F
07FFFFDF
0FFF7FFF
1FF007FF
1FC003FF
3F8001FF
3F8000FF
7F00007F
7E00007F
7E00003F
FE00003F
FC00003F
FC00003F
FC00003F
FC00001F
FC00001F
FC00001F
FC00001F
FC00001F
FC00003F
FC00003F
FC00003F
FE00003F
7E00003F
7F00007F
7F00007F
7F8000FF
3F8001FF
3FE003FF
1FF007FF
0FFF7FDF
0FFFFFDF
03FFFF9F
01FFFF1F
00FFFC1F
001FE01F
0000001F
0000001F
0000001F
0000001F
0000001F
0000001F
0000001F
0000001F
0000001F
0000001F
0000001F
0000001F
0000001F
0000001F
ENDCHAR
STARTCHAR 0072
ENCODING 114
SWIDTH 331 0
DWIDTH 23 0
BBX 17 37 5 0
BITMAP
000F80
F83F80
F87F80
F8FF80
F9FF80
F9FF80
FBF800
FFC000
FF8000
FF0000
FE0000
FE0000
FC0000
FC0000
FC0000
FC0000
FC0000
FC0000
FC0000
FC0000
FC0000
FC0000
FC0000
FC0000
FC0000
FC0000
FC0000
FC0000
FC0000
FC0000
FC0000
FC0000
FC0000
FC0000
FC0000
FC0000
FC0000
ENDCHAR
STARTCHAR 0073
ENCODING 115
SWIDTH 504 0
DWIDTH 35 0
BBX 30 39 2 -2
BITMAP
001FF000
00FFFE00
03FFFF80
07FFFFC0
0FFFFFC0
1FFCFFE0
3FC00FF0
3F8007F0
3F0003F0
7E0003F0
7E0003F0
7E000000
7F000000
7F000000
3FC00000
3FF00000
1FFF0000
0FFFF000
07FFFE00
03FFFFC0
007FFFE0
000FFFF0
00007FF8
00000FF8
000003FC
000001FC
000000FC
FE0000FC
7E0000FC
7E0000FC
7F0001F8
7F0003F8
3FC007F8
3FFC7FF0
1FFFFFE0
0FFFFFC0
07FFFF80
01FFFE00
003FF000
ENDCHAR
STARTCHAR 0074
ENCODING 116
SWIDTH 273 0
DWIDTH 19 0
BBX 17 48 1 -2
BITMAP
07E000
07E000
07E000
07E000
07E000
07E000
07E000
07E000
07E000
07E000
FFFF80
FFFF80
FFFF80
FFFF80
FFFF80
07E000
07E000
07E000
07E000
07E000
07E000
07E000
07E000
07E000
07E000
07E000
07E000
07E000
07E000
07E000
07E000
07E000
07E000
07E000
07E000
07E000
07E000
07E000
07E000
07E000
07E000
07E000
07F000
07FF80
07FF80
03FF80
01FF80
007F80
ENDCHAR
STARTCHAR 0075
ENCODING 117
SWIDTH 561 0
DWIDTH 39 0
BBX 28 38 5 -2
BITMAP
F80001F0
F80001F0
F80001F0
F80001F0
F80001F0
F80001F0
F80001F0
F80001F0
F80001F0
F80001F0
F80001F0
F80001F0
F80001F0
F80001F0
F80001F0
F80001F0
F80001F0
F80001F0
F80001F0
F80001F0
F80001F0
F80001F0
F80001F0
F80003F0
F80003F0
F80003F0
F80003F0
F80007F0
FC0007F0
FC000FF0
FE001FF0
FF003FF0
FFC0FDF0
7FFFF9F0
3FFFF1F0
1FFFE1F0
0FFF8000
01FC0000
ENDCHAR
STARTCHAR 0076
ENCODING 118
SWIDTH 504 0
DWIDTH 35 0
BBX 33 36 1 0
BITMAP
FC00003F80
FE00003F00
7E00007F00
7E00007E00
7F00007E00
3F0000FE00
3F0000FC00
3F8000FC00
1F8001F800
1F8001F800
1FC001F800
0FC003F000
0FC003F000
0FE007E000
07E007E000
07E007E000
03F00FC000
03F00FC000
03F00FC000
01F81F8000
01F81F8000
01F81F0000
00FC3F0000
00FC3F0000
00FC3E0000
007E7E0000
007E7C0000
007E7C0000
003FFC0000
003FF80000
003FF80000
001FF80000
001FF00000
000FF00000
000FE00000
000FE00000
ENDCHAR
STARTCHAR 0077
ENCODING 119
SWIDTH 720 0
DWIDTH 50 0
BBX 48 36 1 0
BITMAP
FC000FE0007F
FC000FF0007F
FC000FF0007E
FE001FF0007E
7E001FF000FE
7E001FF800FE
7F001FF800FC
3F003FF800FC
3F003EF801FC
3F003EFC01F8
3F803EFC01F8
1F807EFC01F8
1F807C7C03F0
1F807C7E03F0
0FC07C7E03F0
0FC0FC7E03F0
0FC0F83E07E0
07C0F83F07E0
07E0F83F07E0
07E1F81F07C0
07E1F01F0FC0
03F1F01F8FC0
03F1F01F8F80
03F3F00F8F80
01F3E00FDF80
01FBE00FDF80
01FBE00FDF00
01FFE007DF00
00FFC007FF00
00FFC007FE00
00FFC007FE00
007FC003FE00
007F8003FE00
007F8003FC00
003F8003FC00
003F8001FC00
ENDCHAR
STARTCHAR 0078
ENCODING 120
SWIDTH 504 0
DWIDTH 35 0
BBX 31 36 2 0
BITMAP
FE0000FC
7E0001F8
3F0003F8
3F8003F0
1FC007E0
0FC00FE0
0FE00FC0
07F01F80
03F03F80
03F83F00
01FC7E00
00FCFC00
00FEFC00
007FF800
003FF000
001FF000
001FE000
000FC000
001FE000
001FF000
003FF000
007FF800
007FFC00
00FCFC00
01F87E00
01F87F00
03F03F00
07E03F80
0FE01FC0
0FC00FC0
1F800FE0
3F8007F0
3F0003F0
7E0003F8
FE0001FC
FC0000FE
ENDCHAR
STARTCHAR 0079
ENCODING 121
SWIDTH 504 0
DWIDTH 35 0
BBX 31 51 2 -15
BITMAP
FC00007E
FC0000FE
FC0000FC
7E0000FC
7E0001FC
7E0001F8
3F0001F8
3F0003F0
3F0003F0
1F8003F0
1F8007E0
1F8007E0
0FC00FE0
0FC00FC0
0FC00FC0
07E01F80
07E01F80
07E01F80
03F03F00
03F03F00
03F03F00
01F87E00
01F87E00
01F8FC00
00FCFC00
00FCFC00
00FDF800
007FF800
007FF800
007FF000
003FF000
003FE000
003FE000
001FE000
001FC000
001FC000
000FC000
001F8000
001F8000
003F8000
003F0000
003F0000
007E0000
007E0000
00FE0000
3FFC0000
3FFC0000
3FF80000
3FF00000
3FE00000
1F800000
ENDCHAR
STARTCHAR 007A
ENCODING 122
SWIDTH 504 0
DWIDTH 35 0
BBX 30 36 2 0
BITMAP
3FFFFFF8
3FFFFFF8
3FFFFFF8
3FFFFFF8
3FFFFFF8
000003F0
000007F0
00000FE0
00001FC0
00003F80
00007F00
0000FE00
0000FE00
0001FC00
0003F800
0007F000
000FE000
001FC000
001FC000
003F8000
007F0000
00FE0000
01FC0000
03F80000
07F80000
07F00000
0FE00000
1FC00000
3F800000
7F000000
FF000000
FFFFFFFC
FFFFFFFC
FFFFFFFC
FFFFFFFC
FFFFFFFC
ENDCHAR
STARTCHAR 007B
ENCODING 123
SWIDTH 331 0
DWIDTH 23 0
BBX 16 65 3 -14
BITMAP
003F
00FF
01FF
01FF
03FF
03F0
03E0
07E0
07E0
07E0
07E0
07E0
07E0
07E0
07E0
07E0
07E0
07E0
07E0
07E0
07E0
07E0
07E0
07E0
07E0
07C0
07C0
0FC0
0FC0
3F80
FF00
FE00
F800
FE00
FF00
7F80
1F80
0FC0
07C0
07C0
07E0
07E0
07E0
07E0
07E0
07E0
07E0
07E0
07E0
07E0
07E0
07E0
07E0
07E0
07E0
07E0
07E0
07E0
03E0
03E0
03F8
03FF
01FF
00FF
007F
ENDCHAR
STARTCHAR 007C
ENCODING 124
SWIDTH 259 0
DWIDTH 18 0
BBX 4 65 7 -14
BITMAP
F0
F0
F0
F0
F0
F0
F0
F0
F0
F0
F0
F0
F0
F0
F0
F0
F0
F0
F0
F0
F0
F0
F0
F0
F0
F0
F0
F0
F0
F0
F0
F0
F0
F0
F0
F0
F0
F0
F0
F0
F0
F0
F0
F0
F0
F0
F0
F0
F0
F0
F0
F0
F0
F0
F0
F0
F0
F0
F0
F0
F0
F0
F0
F0
F0
ENDCHAR
STARTCHAR 007D
ENCODING 125
SWIDTH 331 0
DWIDTH 23 0
BBX 16 65 2 -14
BITMAP
FC00
FF00
FF80
FFC0
FFC0
07E0
07E0
07E0
03E0
03E0
03E0
03E0
03E0
03E0
03E0
03E0
03E0
03E0
03E0
03E0
03E0
03E0
03E0
03E0
03E0
03E0
03F0
03F0
01F8
01FC
00FF
007F
001F
003F
007F
00FE
01F8
01F0
03F0
03E0
03E0
03E0
03E0
03E0
03E0
03E0
03E0
03E0
03E0
03E0
03E0
03E0
03E0
03E0
03E0
03E0
03E0
03E0
07E0
07E0
0FC0
FFC0
FF80
FF00
FE00
ENDCHAR
STARTCHAR 007E
ENCODING 126
SWIDTH 590 0
DWIDTH 41 0
BBX 30 13 5 18
BITMAP
03800000
0FF00000
1FF8001C
3FFE001C
3FFF003C
7C7FC03C
781FF03C
780FF87C
F003FFF8
F001FFF8
F0007FF0
00003FE0
00000380
ENDCHAR
STARTCHAR 00A0
ENCODING 160
SWIDTH 273 0
DWIDTH 19 0
BBX 0 0 0 0
BITMAP
ENDCHAR
STARTCHAR 00A1
ENCODING 161
SWIDTH 331 0
DWIDTH 23 0
BBX 6 51 8 -15
BITMAP
FC
FC
FC
FC
FC
FC
FC
00
00
00
00
00
38
38
38
38
38
78
78
78
7C
7C
7C
7C
7C
7C
7C
FC
FC
FC
FC
FC
FC
FC
FC
FC
FC
FC
FC
FC
FC
FC
FC
FC
FC
FC
FC
FC
FC
FC
FC
ENDCHAR
STARTCHAR 00A2
ENCODING 162
SWIDTH 561 0
DWIDTH 39 0
BBX 31 52 4 -8
BITMAP
0001C000
0001C000
0001C000
0001C000
0001C000
0001C000
0001C000
001FFC00
007FFF80
01FFFFC0
03FFFFE0
07FFFFF0
0FF9CFF8
1FE1C3F8
1FC1C1FC
3F81C0FC
3F01C0FE
7E01C07E
7E01C07E
FE01C07E
FC01C000
FC01C000
FC01C000
FC01C000
FC01C000
FC01C000
FC01C000
FC01C000
FC01C000
FC01C000
FC01C000
FC01C000
FE01C07E
7E01C07E
7E01C07E
7F01C07E
3F81C0FC
3F81C1FC
1FE1C3FC
1FF1C7F8
0FFFFFF0
07FFFFE0
03FFFFC0
00FFFF80
003FFE00
0003C000
0001C000
0001C000
0001C000
0001C000
0001C000
0001C000
ENDCHAR
STARTCHAR 00A3
ENCODING 163
SWIDTH 561 0
DWIDTH 39 0
BBX 35 53 2 -2
BITMAP
0003FE0000
001FFFC000
007FFFE000
00FFFFF800
03FFFFFC00
07FF9FFE00
07F801FE00
0FE000FF00
1FC0007F00
1FC0003F80
1F80003F80
3F80001F80
3F00001F80
3F00001F80
3F00001FC0
3F00001FC0
3F00000000
3F80000000
3F80000000
1F80000000
1FC0000000
1FC0000000
0FE0000000
07F0000000
07F0000000
FFFFFE0000
FFFFFE0000
FFFFFE0000
FFFFFE0000
00FC000000
00FE000000
007E000000
007E000000
007E000000
007E000000
007E000000
007E000000
007C000000
00FC000000
00F8000000
01F8000000
01F0000000
03E0000000
07C0000000
0F80000000
1F9FF80180
3FFFFF8FC0
7FFFFFFFC0
7FFFFFFFE0
7FFFFFFFE0
3F01FFFFC0
1C003FFF00
000003FC00
ENDCHAR
STARTCHAR 00A4
ENCODING 164
SWIDTH 561 0
DWIDTH 39 0
BBX 29 28 5 9
BITMAP
100000C0
380001E0
7C7FE3F0
FFFFFFF8
7FFFFFF0
3FFFFFE0
1FFFFFC0
1FE07F80
1FC01FC0
3F800FC0
3F000FC0
3E0007E0
7E0007E0
7E0007E0
7E0007E0
7E0007E0
7E0007E0
3E0007E0
3F000FC0
3F801FC0
1FC03F80
1FF8FF80
3FFFFFC0
7FFFFFE0
FFFFFFF0
7EFFF3F0
3C3FC1E0
180000C0
ENDCHAR
STARTCHAR 00A5
ENCODING 165
SWIDTH 561 0
DWIDTH 39 0
BBX 36 49 1 0
BITMAP
FC000001F0
7E000003F0
7E000007E0
3F000007E0
3F00000FC0
1F80000FC0
0FC0001F80
0FC0001F00
07E0003F00
07E0003E00
03F0007E00
03F000FC00
01F800FC00
00FC01F800
00FC01F800
007E03F000
007E03E000
003F07E000
001F07C000
001F8FC000
000FDF8000
000FDF8000
0007FF0000
0007FE0000
1FFFFFFF80
1FFFFFFF80
1FFFFFFF80
1FFFFFFF80
0001FC0000
0001FC0000
0001FC0000
0001FC0000
0001FC0000
1FFFFFFF80
1FFFFFFF80
1FFFFFFF80
1FFFFFFF80
0001FC0000
0001FC0000
0001FC0000
0001FC0000
0001FC0000
0001FC0000
0001FC0000
0001FC0000
0001FC0000
0001FC0000
0001FC0000
0001FC0000
ENDCHAR
STARTCHAR 00A6
ENCODING 166
SWIDTH 259 0
DWIDTH 18 0
BBX 4 65 7 -14
BITMAP
F0
F0
F0
F0
F0
F0
F0
F0
F0
F0
F0
F0
F0
F0
F0
F0
F0
F0
F0
F0
F0
F0
F0
F0
F0
F0
F0
F0
00
00
00
00
00
00
00
00
00
F0
F0
F0
F0
F0
F0
F0
F0
F0
F0
F0
F0
F0
F0
F0
F0
F0
F0
F0
F0
F0
F0
F0
F0
F0
F0
F0
F0
ENDCHAR
STARTCHAR 00A7
ENCODING 167
SWIDTH 561 0
DWIDTH 39 0
BBX 32 66 3 -15
BITMAP
0007F800
001FFE00
007FFF80
00FFFFC0
01FFFFE0
03FF3FE0
03F807F0
07F003F0
07E003F8
07E001F8
0FE001F8
0FE001F8
0FE001F8
0FE001F8
07E001F8
07F00000
07F80000
03FE0000
01FF0000
01FFC000
07FFE000
0FFFF800
1F8FFE00
3F07FF00
7E01FFC0
7C00FFE0
FC003FF0
FC001FF8
FC0007FC
FC0003FE
FC0001FE
FC0000FF
FE00007F
7F00003F
7F80003F
7FC0001F
3FF0001F
1FF8001F
0FFC003F
07FF003F
03FF803E
00FFC07E
007FF0FC
001FFBF8
000FFFF0
0003FFC0
0001FF80
00007FC0
00003FC0
00001FE0
00000FF0
000007F0
3F0003F0
3F0003F0
3F0003F0
1F8003F0
1F8003F0
1F8007F0
1FC007E0
0FE00FE0
0FFCFFC0
07FFFFC0
03FFFF80
01FFFF00
007FFC00
001FE000
ENDCHAR
STARTCHAR 00A8
ENCODING 168
SWIDTH 331 0
DWIDTH 23 0
BBX 19 7 2 43
BITMAP
FE1FE0
FE1FE0
FE1FE0
FE1FE0
FE1FE0
FE1FE0
FE1FE0
ENDCHAR
STARTCHAR 00A9
ENCODING 169
SWIDTH 734 0
DWIDTH 51 0
BBX 53 54 -1 -2
BITMAP
000003FF000000
00003FFFE00000
0000FFFFFC0000
0003FFFFFF0000
000FFF8FFF8000
001FF0003FE000
007F80000FF000
00FE000003F800
01FC000001FC00
01F8000000FE00
03F00000003F00
07E001FF003F00
0FC007FFC01F80
0F801FFFE00FC0
1F003FFFF007C0
1F007F03F807E0
3E00FC01F803E0
3E00F800FC03F0
7C01F8007C01F0
7C01F0007C01F0
7C01F0003E00F0
7803E0003E00F8
7803E0000000F8
F803E0000000F8
F803E0000000F8
F803C0000000F8
F803C0000000F8
F803C0000000F8
F803C0000000F8
F803E0000000F8
F803E0003E00F8
7803E0003E00F8
7C03E0003E00F8
7C03F0003E00F0
7C01F0007C01F0
3E01F8007C01F0
3E00FC00FC03E0
3E00FE01F803E0
1F007F83F007E0
1F803FFFF007C0
0F801FFFE00FC0
0FC00FFF801F80
07E003FE001F00
03F00000003F00
01F8000000FE00
01FC000001FC00
00FF000003F800
007F80000FF000
001FF0003FE000
000FFF0FFF8000
0003FFFFFF0000
0001FFFFFC0000
00003FFFE00000
000007FE000000
ENDCHAR
STARTCHAR 00AA
ENCODING 170
SWIDTH 374 0
DWIDTH 26 0
BBX 20 31 3 21
BITMAP
03F800
1FFF00
3FFF80
7FFF80
7C07C0
7803C0
7803C0
F003C0
0003C0
0007C0
03FFC0
1FFFC0
3FFBC0
7F03C0
F803C0
F003C0
F003C0
F007C0
F007C0
F81FC0
FFFFE0
7FFBF0
3FF1F0
0FC0F0
000000
000000
000000
FFFFE0
FFFFE0
FFFFE0
FFFFE0
ENDCHAR
STARTCHAR 00AB
ENCODING 171
SWIDTH 561 0
DWIDTH 39 0
BBX 25 23 7 7
BITMAP
00400180
00C00380
01C00780
07C00F80
0FC03F80
1FC07F00
3F80FE00
7F01FC00
FC03F800
F803E000
F003C000
E003C000
F803E000
FC03F000
FE03FC00
7F80FE00
1FC07F00
0FC03F80
07C01F80
03C00780
00C00380
00400180
00000080
ENDCHAR
STARTCHAR 00AC
ENCODING 172
SWIDTH 590 0
DWIDTH 41 0
BBX 35 20 3 6
BITMAP
FFFFFFFFE0
FFFFFFFFE0
FFFFFFFFE0
FFFFFFFFE0
FFFFFFFFE0
00000003E0
00000003E0
00000003E0
00000003E0
00000003E0
00000003E0
00000003E0
00000003E0
00000003E0
00000003E0
00000003E0
00000003E0
00000003E0
00000003E0
00000003E0
ENDCHAR
STARTCHAR 00AD
ENCODING 173
SWIDTH 331 0
DWIDTH 23 0
BBX 17 5 3 17
BITMAP
FFFF80
FFFF80
FFFF80
FFFF80
FFFF80
ENDCHAR
STARTCHAR 00AE
ENCODING 174
SWIDTH 734 0
DWIDTH 51 0
BBX 53 54 -1 -2
BITMAP
000003FF000000
00003FFFF00000
0000FFFFFC0000
0003FFFFFF0000
000FFF8FFF8000
001FF0003FE000
007F80000FF000
00FE000003F800
01FC000001FC00
03F80000007E00
03F00000003F00
07E1FFFFC01F00
0FC1FFFFF01F80
0F81FFFFF80FC0
1F01FFFFFC07C0
1F01F003FC07E0
3E01F0007E03E0
3E01F0003E03F0
7C01F0003E01F0
7C01F0003E01F0
7C01F0003E00F0
7801F0003E00F8
7801F0003E00F8
F801F0007E00F8
F801F000FC00F8
F801FFFFF800F8
F801FFFFF000F8
F801FFFFF000F8
F801FFFFF800F8
F801F003FC00F8
F801F0007C00F8
F801F0007C00F8
7C01F0007C00F8
7C01F0003C00F0
7C01F0003C01F0
7C01F0003E01F0
3E01F0003E03F0
3E01F0003E03E0
1F01F0003E07E0
1F81F0003E07C0
0F81F0003F0FC0
0FC1F0003F1F80
07E1F0001F1F00
03F00000003F00
03F80000007E00
01FC000001FC00
00FF000003F800
007F80000FF000
001FF0003FE000
000FFF8FFF8000
0003FFFFFF0000
0001FFFFFC0000
00003FFFE00000
000007FE000000
ENDCHAR
STARTCHAR 00AF
ENCODING 175
SWIDTH 331 0
DWIDTH 23 0
BBX 19 5 2 44
BITMAP
FFFFE0
FFFFE0
FFFFE0
FFFFE0
FFFFE0
ENDCHAR
STARTCHAR 00B0
ENCODING 176
SWIDTH 403 0
DWIDTH 28 0
BBX 21 21 3 27
BITMAP
00FC00
03FF00
0FFFC0
1FFFE0
3F07F0
3E01F0
7C00F8
780078
780078
F00078
F00078
F00078
780078
780078
7C00F8
3E01F0
3F07E0
1FFFE0
0FFFC0
07FF00
00FC00
ENDCHAR
STARTCHAR 00B1
ENCODING 177
SWIDTH 590 0
DWIDTH 41 0
BBX 34 44 3 -1
BITMAP
0001F00000
0001F00000
0001F00000
0001F00000
0001F00000
0001F00000
0001F00000
0001F00000
0001F00000
0001F00000
0001F00000
0001F00000
0001F00000
0001F00000
FFFFFFFFC0
FFFFFFFFC0
FFFFFFFFC0
FFFFFFFFC0
FFFFFFFFC0
0001F00000
0001F00000
0001F00000
0001F00000
0001F00000
0001F00000
0001F00000
0001F00000
0001F00000
0001F00000
0001F00000
0001F00000
0001F00000
0001F00000
0001F00000
0000000000
0000000000
0000000000
0000000000
0000000000
FFFFFFFFC0
FFFFFFFFC0
FFFFFFFFC0
FFFFFFFFC0
FFFFFFFFC0
ENDCHAR
STARTCHAR 00B2
ENCODING 178
SWIDTH 331 0
DWIDTH 23 0
BBX 21 29 1 20
BITMAP
01FC00
07FF80
1FFFC0
3FFFE0
3F03F0
7C01F0
7C00F8
7800F8
780078
F80078
0000F8
0000F0
0001F0
0003E0
000FC0
003F80
00FF00
03FC00
07F000
0FC000
1F0000
3E0000
7C0000
7C0000
F80000
FFFFF8
FFFFF8
FFFFF8
FFFFF8
ENDCHAR
STARTCHAR 00B3
ENCODING 179
SWIDTH 331 0
DWIDTH 23 0
BBX 21 31 1 18
BITMAP
03FC00
0FFF00
1FFFC0
3FFFC0
7E07E0
7C03E0
7801F0
F801F0
F801F0
F801F0
0001E0
0003E0
000FC0
00FF80
00FF00
00FFC0
000FE0
0001F0
0000F0
0000F8
0000F8
F000F8
F000F8
F000F8
F800F0
F801F0
7E07E0
3FFFC0
1FFF80
0FFF00
01F000
ENDCHAR
STARTCHAR 00B4
ENCODING 180
SWIDTH 331 0
DWIDTH 23 0
BBX 13 10 7 42
BITMAP
03F8
07F0
0FE0
0FC0
1F80
3F00
3E00
7C00
7800
F000
ENDCHAR
STARTCHAR 00B5
ENCODING 181
SWIDTH 561 0
DWIDTH 39 0
BBX 33 52 5 -16
BITMAP
F80001F000
F80001F000
F80001F000
F80001F000
F80001F000
F80001F000
F80001F000
F80001F000
F80001F000
F80001F000
F80001F000
F80001F000
F80001F000
F80001F000
F80001F000
F80001F000
F80001F000
F80001F000
F80001F000
F80001F000
F80001F000
F80001F000
F80001F000
F80003F000
F80003F000
F80003F000
F80003F000
F80007F000
FC0007F000
FC000FF000
FE001FF000
FF003FF800
FFC0FFF800
FFFFFDFF80
FFFFF9FF80
FFFFF0FF80
FBFFC0FF80
F8FE003F00
F800000000
F800000000
F800000000
F800000000
F800000000
F800000000
F800000000
F800000000
F800000000
F800000000
F800000000
F800000000
F800000000
F800000000
ENDCHAR
STARTCHAR 00B6
ENCODING 182
SWIDTH 532 0
DWIDTH 37 0
BBX 33 63 3 -12
BITMAP
000FFFFF80
007FFFFF80
00FFFFFF80
03FFFFFF80
07FFE07800
0FFFE07800
0FFFE07800
1FFFE07800
3FFFE07800
3FFFE07800
7FFFE07800
7FFFE07800
7FFFE07800
7FFFE07800
FFFFE07800
FFFFE07800
FFFFE07800
FFFFE07800
FFFFE07800
7FFFE07800
7FFFE07800
7FFFE07800
7FFFE07800
3FFFE07800
3FFFE07800
1FFFE07800
1FFFE07800
0FFFE07800
07FFE07800
03FFE07800
01FFE07800
007FE07800
0007E07800
0001E07800
0001E07800
0001E07800
0001E07800
0001E07800
0001E07800
0001E07800
0001E07800
0001E07800
0001E07800
0001E07800
0001E07800
0001E07800
0001E07800
0001E07800
0001E07800
0001E07800
0001E07800
0001E07800
0001E07800
0001E07800
0001E07800
0001E07800
0001E07800
0001E07800
0001E07800
0001E07800
0001E07800
0001E07800
0001E07800
ENDCHAR
STARTCHAR 00B7
ENCODING 183
SWIDTH 273 0
DWIDTH 19 0
BBX 7 7 8 16
BITMAP
FE
FE
FE
FE
FE
FE
FE
ENDCHAR
STARTCHAR 00B8
ENCODING 184
SWIDTH 331 0
DWIDTH 23 0
BBX 17 15 3 -15
BITMAP
00E000
00C000
01C000
01C000
03FE00
03FF00
023F80
001F80
000F80
000F80
601F80
F83F00
FFFE00
3FFC00
07E000
ENDCHAR
STARTCHAR 00B9
ENCODING 185
SWIDTH 331 0
DWIDTH 23 0
BBX 11 29 4 20
BITMAP
00E0
01E0
01E0
03E0
07E0
FFE0
FFE0
FFE0
FFE0
03E0
03E0
03E0
03E0
03E0
03E0
03E0
03E0
03E0
03E0
03E0
03E0
03E0
03E0
03E0
03E0
03E0
03E0
03E0
03E0
ENDCHAR
STARTCHAR 00BA
ENCODING 186
SWIDTH 360 0
DWIDTH 25 0
BBX 19 31 3 21
BITMAP
03F800
0FFE00
1FFF00
3FFF80
7E07C0
7C03C0
7803E0
F801E0
F001E0
F001E0
F001E0
F001E0
F001E0
F001E0
F001E0
F001E0
F801E0
7803E0
7C03C0
7E07C0
3FFF80
1FFF00
0FFE00
03F800
000000
000000
000000
7FFFE0
7FFFE0
7FFFE0
7FFFE0
ENDCHAR
STARTCHAR 00BB
ENCODING 187
SWIDTH 561 0
DWIDTH 39 0
BBX 24 22 7 7
BITMAP
800200
C00300
F00380
F803E0
FC03F0
FE03F8
7F81FC
1FC0FF
0FC03F
07C01F
03C00F
01C007
03C01F
0FC03F
1FC07F
3F81FE
FF03F8
FC03F0
F803E0
F003C0
C00300
800200
ENDCHAR
STARTCHAR 00BC
ENCODING 188
SWIDTH 835 0
DWIDTH 58 0
BBX 55 51 2 -1
BITMAP
00E0000000F000
00E0000000F000
01E0000001E000
01E0000003C000
03E0000003C000
0FE00000078000
FFE000000F0000
FFE000000F0000
FFE000001E0000
01E000001E0000
01E000003C0000
01E00000780000
01E00000780000
01E00000F00000
01E00001E00000
01E00001E00000
01E00003C00000
01E00003C00000
01E00007800000
01E0000F000000
01E0000F0003C0
01E0001E0003C0
01E0001E0007C0
01E0003C000FC0
01E00078001FC0
01E00078001FC0
01E000F0003FC0
01E001E0007BC0
01E001E000FBC0
01E003C001F3C0
000003C001E3C0
0000078003C3C0
00000F0007C3C0
00000F000F83C0
00001E000F03C0
00003C001E03C0
00003C003E03C0
000078007C03C0
000078007803C0
0000F000FFFFFE
0001E000FFFFFE
0001E000FFFFFE
0003C000FFFFFE
0007C0000003C0
000780000003C0
000F00000003C0
000F00000003C0
001E00000003C0
003C00000003C0
003C00000003C0
00780000000000
ENDCHAR
STARTCHAR 00BD
ENCODING 189
SWIDTH 835 0
DWIDTH 58 0
BBX 54 51 2 -1
BITMAP
00E0000003C000
00E0000003C000
01E00000078000
01E000000F8000
03E000000F0000
0FE000001E0000
FFE000001E0000
FFE000003C0000
FFE00000780000
01E00000780000
01E00000F00000
01E00000F00000
01E00001E00000
01E00003C00000
01E00003C00000
01E00007800000
01E0000F000000
01E0000F000000
01E0001E000000
01E0001E000000
01E0003C00FF00
01E0007803FFC0
01E000780FFFE0
01E000F00FFFF0
01E001F01F81F8
01E001E03E00FC
01E003C03E007C
01E003C03C003C
01E007803C003C
01E00F003C003C
00000F007C007C
00001E0000007C
00001E000000F8
00003C000001F8
000078000007F0
00007800000FE0
0000F000003FC0
0001E00000FF00
0001E00003FC00
0003C00007F000
0003C0000FC000
000780001F8000
000F00003F0000
000F00003E0000
001E00003C0000
003E00007C0000
003C00007FFFFC
007800007FFFFC
007800007FFFFC
00F000007FFFFC
01E00000000000
ENDCHAR
STARTCHAR 00BE
ENCODING 190
SWIDTH 835 0
DWIDTH 58 0
BBX 54 50 2 -1
BITMAP
01FC0000003C00
0FFF8000007800
1FFFC000007800
3FFFE00000F000
3E03E00001E000
7C01F00001E000
7801F00003C000
7800F000078000
F800F000078000
F800F0000F0000
0001F0000F0000
0003E0001E0000
00FFC0003C0000
00FF80003C0000
00FF8000780000
00FFE000F00000
0003F000F00000
0001F001E00000
0000F801E00000
0000F803C003C0
F00078078003C0
F00078078007C0
F000F80F000FC0
F800F81E001FC0
F801F01E001FC0
7E03F03C003FC0
3FFFE03C007FC0
1FFFC07800FFC0
0FFF80F001F7C0
03FC00F001E7C0
000001E003C7C0
000003C00787C0
000003C00F87C0
000007800F07C0
00000F801E07C0
00000F003C07C0
00001E007C07C0
00001E00F807C0
00003C00FFFFFC
00007800FFFFFC
00007800FFFFFC
0000F000FFFFFC
0001F0000007C0
0001E0000007C0
0003C0000007C0
0003C0000007C0
000780000007C0
000F00000007C0
000F00000007C0
001E0000000000
ENDCHAR
STARTCHAR 00BF
ENCODING 191
SWIDTH 604 0
DWIDTH 42 0
BBX 30 51 7 -15
BITMAP
000FC000
000FC000
000FC000
000FC000
000FC000
000FC000
000FC000
00000000
00000000
00000000
00000000
00000000
00000000
00000000
000FC000
000FC000
000FC000
000FC000
000FC000
000FC000
001FC000
001FC000
003F8000
007F0000
00FF0000
01FE0000
07FC0000
0FF00000
0FE00000
1FC00000
3F800000
7F000000
7F000000
FE000000
FC000000
FC0000FC
FC0000FC
FC0000FC
FC0000F8
FC0001F8
FC0001F8
FE0001F8
FE0003F8
7F0007F0
7FC00FF0
3FFCFFE0
1FFFFFC0
0FFFFF80
07FFFF00
01FFFC00
003FE000
ENDCHAR
STARTCHAR 00C0
ENCODING 192
SWIDTH 662 0
DWIDTH 46 0
BBX 44 66 1 0
BITMAP
000FF0000000
0007F8000000
0003F8000000
0001FC000000
0000FE000000
00007E000000
00003F000000
00001F800000
00000F800000
000007C00000
000003E00000
000000000000
000000000000
000000000000
000000000000
00003FE00000
00003FE00000
00007FE00000
00007FF00000
00007FF00000
0000FFF00000
0000FFF80000
0000FDF80000
0001FDFC0000
0001F9FC0000
0001F8FC0000
0003F8FE0000
0003F0FE0000
0007F07E0000
0007F07F0000
0007E07F0000
000FE03F0000
000FE03F8000
000FC03F8000
001FC01F8000
001F801FC000
001F801FC000
003F800FC000
003F000FE000
003F000FE000
007F0007E000
007E0007F000
00FE0007F000
00FE0003F800
00FC0003F800
01FFFFFFF800
01FFFFFFFC00
01FFFFFFFC00
03FFFFFFFC00
03FFFFFFFE00
03F00000FE00
07F00000FE00
07F000007F00
07E000007F00
0FE000007F00
0FE000003F80
0FC000003F80
1FC000003F80
1FC000001FC0
3F8000001FC0
3F8000001FC0
3F8000000FE0
7F0000000FE0
7F0000000FE0
7F00000007F0
FE00000007F0
ENDCHAR
STARTCHAR 00C1
ENCODING 193
SWIDTH 662 0
DWIDTH 46 0
BBX 44 66 1 0
BITMAP
0000007F0000
000000FE0000
000001FC0000
000001F80000
000003F00000
000007E00000
000007C00000
00000F800000
00001F000000
00001E000000
00003C000000
000000000000
000000000000
000000000000
000000000000
00003FE00000
00003FE00000
00007FE00000
00007FF00000
00007FF00000
0000FFF00000
0000FFF80000
0000FDF80000
0001FDFC0000
0001F9FC0000
0001F8FC0000
0003F8FE0000
0003F0FE0000
0007F07E0000
0007F07F0000
0007E07F0000
000FE03F0000
000FE03F8000
000FC03F8000
001FC01F8000
001F801FC000
001F801FC000
003F800FC000
003F000FE000
003F000FE000
007F0007E000
007E0007F000
00FE0007F000
00FE0003F800
00FC0003F800
01FFFFFFF800
01FFFFFFFC00
01FFFFFFFC00
03FFFFFFFC00
03FFFFFFFE00
03F00000FE00
07F00000FE00
07F000007F00
07E000007F00
0FE000007F00
0FE000003F80
0FC000003F80
1FC000003F80
1FC000001FC0
3F8000001FC0
3F8000001FC0
3F8000000FE0
7F0000000FE0
7F0000000FE0
7F00000007F0
FE00000007F0
ENDCHAR
STARTCHAR 00C2
ENCODING 194
SWIDTH 662 0
DWIDTH 46 0
BBX 44 66 1 0
BITMAP
00001FC00000
00003FC00000
00003FE00000
00007FF00000
0000FDF00000
0000F9F80000
0001F0FC0000
0003E07C0000
0003E03E0000
0007C01E0000
000F800F0000
000000000000
000000000000
000000000000
000000000000
00003FE00000
00003FE00000
00007FE00000
00007FF00000
00007FF00000
0000FFF00000
0000FFF80000
0000FDF80000
0001FDFC0000
0001F9FC0000
0001F8FC0000
0003F8FE0000
0003F0FE0000
0007F07E0000
0007F07F0000
0007E07F0000
000FE03F0000
000FE03F8000
000FC03F8000
001FC01F8000
001F801FC000
001F801FC000
003F800FC000
003F000FE000
003F000FE000
007F0007E000
007E0007F000
00FE0007F000
00FE0003F800
00FC0003F800
01FFFFFFF800
01FFFFFFFC00
01FFFFFFFC00
03FFFFFFFC00
03FFFFFFFE00
03F00000FE00
07F00000FE00
07F000007F00
07E000007F00
0FE000007F00
0FE000003F80
0FC000003F80
1FC000003F80
1FC000001FC0
3F8000001FC0
3F8000001FC0
3F8000000FE0
7F0000000FE0
7F0000000FE0
7F00000007F0
FE00000007F0
ENDCHAR
STARTCHAR 00C3
ENCODING 195
SWIDTH 662 0
DWIDTH 46 0
BBX 44 64 1 0
BITMAP
0001F0078000
0003FE0F8000
0007FFFF8000
000FFFFF0000
000FFFFF0000
000F07FE0000
001F00FC0000
000000000000
000000000000
000000000000
000000000000
000000000000
000000000000
00003FE00000
00003FE00000
00007FE00000
00007FF00000
00007FF00000
0000FFF00000
0000FFF80000
0000FDF80000
0001FDFC0000
0001F9FC0000
0001F8FC0000
0003F8FE0000
0003F0FE0000
0007F07E0000
0007F07F0000
0007E07F0000
000FE03F0000
000FE03F8000
000FC03F8000
001FC01F8000
001F801FC000
001F801FC000
003F800FC000
003F000FE000
003F000FE000
007F0007E000
007E0007F000
00FE0007F000
00FE0003F800
00FC0003F800
01FFFFFFF800
01FFFFFFFC00
01FFFFFFFC00
03FFFFFFFC00
03FFFFFFFE00
03F00000FE00
07F00000FE00
07F000007F00
07E000007F00
0FE000007F00
0FE000003F80
0FC000003F80
1FC000003F80
1FC000001FC0
3F8000001FC0
3F8000001FC0
3F8000000FE0
7F0000000FE0
7F0000000FE0
7F00000007F0
FE00000007F0
ENDCHAR
STARTCHAR 00C4
ENCODING 196
SWIDTH 662 0
DWIDTH 46 0
BBX 44 64 1 0
BITMAP
0007F0FE0000
0007F0FE0000
0007F0FE0000
0007F0FE0000
0007F0FE0000
0007F0FE0000
0007F0FE0000
000000000000
000000000000
000000000000
000000000000
000000000000
000000000000
00003FE00000
00003FE00000
00007FE00000
00007FF00000
00007FF00000
0000FFF00000
0000FFF80000
0000FDF80000
0001FDFC0000
0001F9FC0000
0001F8FC0000
0003F8FE0000
0003F0FE0000
0007F07E0000
0007F07F0000
0007E07F0000
000FE03F0000
000FE03F8000
000FC03F8000
001FC01F8000
001F801FC000
001F801FC000
003F800FC000
003F000FE000
003F000FE000
007F0007E000
007E0007F000
00FE0007F000
00FE0003F800
00FC0003F800
01FFFFFFF800
01FFFFFFFC00
01FFFFFFFC00
03FFFFFFFC00
03FFFFFFFE00
03F00000FE00
07F00000FE00
07F000007F00
07E000007F00
0FE000007F00
0FE000003F80
0FC000003F80
1FC000003F80
1FC000001FC0
3F8000001FC0
3F8000001FC0
3F8000000FE0
7F0000000FE0
7F0000000FE0
7F00000007F0
FE00000007F0
ENDCHAR
STARTCHAR 00C5
ENCODING 197
SWIDTH 662 0
DWIDTH 46 0
BBX 44 67 1 0
BITMAP
00000F800000
00003FC00000
00007FE00000
000078F00000
0000F0700000
0000E0700000
0000E0700000
0000E0700000
0000F0700000
000078F00000
00007FE00000
00003FC00000
00000F800000
000000000000
000000000000
000000000000
00003FE00000
00003FE00000
00007FE00000
00007FF00000
00007FF00000
0000FFF00000
0000FFF80000
0000FDF80000
0001FDFC0000
0001F9FC0000
0001F8FC0000
0003F8FE0000
0003F0FE0000
0007F07E0000
0007F07F0000
0007E07F0000
000FE03F0000
000FE03F8000
000FC03F8000
001FC01F8000
001F801FC000
001F801FC000
003F800FC000
003F000FE000
003F000FE000
007F0007E000
007E0007F000
00FE0007F000
00FE0003F800
00FC0003F800
01FFFFFFF800
01FFFFFFFC00
01FFFFFFFC00
03FFFFFFFC00
03FFFFFFFE00
03F00000FE00
07F00000FE00
07F000007F00
07E000007F00
0FE000007F00
0FE000003F80
0FC000003F80
1FC000003F80
1FC000001FC0
3F8000001FC0
3F8000001FC0
3F8000000FE0
7F0000000FE0
7F0000000FE0
7F00000007F0
FE00000007F0
ENDCHAR
STARTCHAR 00C6
ENCODING 198
SWIDTH 993 0
DWIDTH 69 0
BBX 65 51 1 0
BITMAP
00000FFFFFFFFFFF00
00000FFFFFFFFFFF00
00001FFFFFFFFFFF00
00001FFFFFFFFFFF00
00001FFFFFFFFFFF00
00003FFFFFFFFFFF00
00003F01FC00000000
00007F01FC00000000
00007E01FC00000000
00007E01FC00000000
0000FE01FC00000000
0000FC01FC00000000
0001FC01FC00000000
0001FC01FC00000000
0001F801FC00000000
0003F801FC00000000
0003F001FC00000000
0007F001FC00000000
0007F001FC00000000
0007E001FC00000000
000FE001FC00000000
000FC001FC00000000
001FC001FFFFFFFC00
001FC001FFFFFFFC00
001F8001FFFFFFFC00
003F8001FFFFFFFC00
003F0001FFFFFFFC00
007F0001FFFFFFFC00
007F0001FC00000000
007E0001FC00000000
00FFFFFFFC00000000
00FFFFFFFC00000000
01FFFFFFFC00000000
01FFFFFFFC00000000
03FFFFFFFC00000000
03FFFFFFFC00000000
03F80001FC00000000
07F00001FC00000000
07F00001FC00000000
0FE00001FC00000000
0FE00001FC00000000
0FE00001FC00000000
1FC00001FC00000000
1FC00001FC00000000
3F800001FC00000000
3F800001FFFFFFFF80
3F800001FFFFFFFF80
7F000001FFFFFFFF80
7F000001FFFFFFFF80
FF000001FFFFFFFF80
FE000001FFFFFFFF80
ENDCHAR
STARTCHAR 00C7
ENCODING 199
SWIDTH 720 0
DWIDTH 50 0
BBX 44 67 3 -15
BITMAP
00003FF80000
0001FFFF0000
000FFFFFC000
001FFFFFF000
007FFFFFF800
00FFFFFFFC00
01FFC00FFE00
03FE0001FF00
03FC0000FF00
07F800007F80
0FF000003F80
0FE000001FC0
1FC000001FC0
1FC000000FC0
1F8000000FE0
3F8000000FE0
3F0000000FE0
3F0000000000
7F0000000000
7F0000000000
7E0000000000
7E0000000000
7E0000000000
7E0000000000
FE0000000000
FE0000000000
FE0000000000
FE0000000000
FE0000000000
FE0000000000
FE0000000000
7E0000000000
7E0000000000
7E00000007F0
7F00000007F0
7F00000007F0
3F00000007F0
3F80000007E0
3F8000000FE0
1FC000000FE0
1FC000001FE0
1FE000001FC0
0FE000003FC0
0FF000003F80
07F800007F80
03FE0000FF00
01FF0003FE00
01FFE01FFE00
00FFFFFFFC00
003FFFFFF800
001FFFFFE000
0007FFFF8000
0001FFFE0000
00000F800000
00000E000000
00000E000000
00001FF00000
00001FF80000
000013FC0000
000000FC0000
0000007C0000
0000007C0000
000300FC0000
0007C1F80000
0007FFF00000
0001FFE00000
00003F000000
ENDCHAR
STARTCHAR 00C8
ENCODING 200
SWIDTH 662 0
DWIDTH 46 0
BBX 37 66 6 0
BITMAP
00FF000000
007F800000
003FC00000
001FC00000
000FE00000
0007F00000
0003F00000
0001F80000
0000F80000
00007C0000
00003E0000
0000000000
0000000000
0000000000
0000000000
FFFFFFFFE0
FFFFFFFFE0
FFFFFFFFE0
FFFFFFFFE0
FFFFFFFFE0
FFFFFFFFE0
FE00000000
FE00000000
FE00000000
FE00000000
FE00000000
FE00000000
FE00000000
FE00000000
FE00000000
FE00000000
FE00000000
FE00000000
FE00000000
FE00000000
FE00000000
FE00000000
FFFFFFFFC0
FFFFFFFFC0
FFFFFFFFC0
FFFFFFFFC0
FFFFFFFFC0
FFFFFFFFC0
FE00000000
FE00000000
FE00000000
FE00000000
FE00000000
FE00000000
FE00000000
FE00000000
FE00000000
FE00000000
FE00000000
FE00000000
FE00000000
FE00000000
FE00000000
FE00000000
FE00000000
FFFFFFFFF8
FFFFFFFFF8
FFFFFFFFF8
FFFFFFFFF8
FFFFFFFFF8
FFFFFFFFF8
ENDCHAR
STARTCHAR 00C9
ENCODING 201
SWIDTH 662 0
DWIDTH 46 0
BBX 37 66 6 0
BITMAP
00001FE000
00001FC000
00003F8000
00007F0000
00007E0000
0000FC0000
0001F80000
0001F00000
0003E00000
0003C00000
0007800000
0000000000
0000000000
0000000000
0000000000
FFFFFFFFE0
FFFFFFFFE0
FFFFFFFFE0
FFFFFFFFE0
FFFFFFFFE0
FFFFFFFFE0
FE00000000
FE00000000
FE00000000
FE00000000
FE00000000
FE00000000
FE00000000
FE00000000
FE00000000
FE00000000
FE00000000
FE00000000
FE00000000
FE00000000
FE00000000
FE00000000
FFFFFFFFC0
FFFFFFFFC0
FFFFFFFFC0
FFFFFFFFC0
FFFFFFFFC0
FFFFFFFFC0
FE00000000
FE00000000
FE00000000
FE00000000
FE00000000
FE00000000
FE00000000
FE00000000
FE00000000
FE00000000
FE00000000
FE00000000
FE00000000
FE00000000
FE00000000
FE00000000
FE00000000
FFFFFFFFF8
FFFFFFFFF8
FFFFFFFFF8
FFFFFFFFF8
FFFFFFFFF8
FFFFFFFFF8
ENDCHAR
STARTCHAR 00CA
ENCODING 202
SWIDTH 662 0
DWIDTH 46 0
BBX 37 66 6 0
BITMAP
0001F80000
0003FC0000
0007FE0000
0007FE0000
000FFF0000
001F9F8000
001F0F8000
003E07C000
007C03C000
007C03E000
00F801F000
0000000000
0000000000
0000000000
0000000000
FFFFFFFFE0
FFFFFFFFE0
FFFFFFFFE0
FFFFFFFFE0
FFFFFFFFE0
FFFFFFFFE0
FE00000000
FE00000000
FE00000000
FE00000000
FE00000000
FE00000000
FE00000000
FE00000000
FE00000000
FE00000000
FE00000000
FE00000000
FE00000000
FE00000000
FE00000000
FE00000000
FFFFFFFFC0
FFFFFFFFC0
FFFFFFFFC0
FFFFFFFFC0
FFFFFFFFC0
FFFFFFFFC0
FE00000000
FE00000000
FE00000000
FE00000000
FE00000000
FE00000000
FE00000000
FE00000000
FE00000000
FE00000000
FE00000000
FE00000000
FE00000000
FE00000000
FE00000000
FE00000000
FE00000000
FFFFFFFFF8
FFFFFFFFF8
FFFFFFFFF8
FFFFFFFFF8
FFFFFFFFF8
FFFFFFFFF8
ENDCHAR
STARTCHAR 00CB
ENCODING 203
SWIDTH 662 0
DWIDTH 46 0
BBX 37 64 6 0
BITMAP
007F0FE000
007F0FE000
007F0FE000
007F0FE000
007F0FE000
007F0FE000
007F0FE000
0000000000
0000000000
0000000000
0000000000
0000000000
0000000000
FFFFFFFFE0
FFFFFFFFE0
FFFFFFFFE0
FFFFFFFFE0
FFFFFFFFE0
FFFFFFFFE0
FE00000000
FE00000000
FE00000000
FE00000000
FE00000000
FE00000000
FE00000000
FE00000000
FE00000000
FE00000000
FE00000000
FE00000000
FE00000000
FE00000000
FE00000000
FE00000000
FFFFFFFFC0
FFFFFFFFC0
FFFFFFFFC0
FFFFFFFFC0
FFFFFFFFC0
FFFFFFFFC0
FE00000000
FE00000000
FE00000000
FE00000000
FE00000000
FE00000000
FE00000000
FE00000000
FE00000000
FE00000000
FE00000000
FE00000000
FE00000000
FE00000000
FE00000000
FE00000000
FE00000000
FFFFFFFFF8
FFFFFFFFF8
FFFFFFFFF8
FFFFFFFFF8
FFFFFFFFF8
FFFFFFFFF8
ENDCHAR
STARTCHAR 00CC
ENCODING 204
SWIDTH 273 0
DWIDTH 19 0
BBX 14 66 0 0
BITMAP
FF00
7F80
3F80
1FC0
0FE0
07E0
03F0
01F8
00F8
007C
003C
0000
0000
0000
0000
01F8
01F8
01F8
01F8
01F8
01F8
01F8
01F8
01F8
01F8
01F8
01F8
01F8
01F8
01F8
01F8
01F8
01F8
01F8
01F8
01F8
01F8
01F8
01F8
01F8
01F8
01F8
01F8
01F8
01F8
01F8
01F8
01F8
01F8
01F8
01F8
01F8
01F8
01F8
01F8
01F8
01F8
01F8
01F8
01F8
01F8
01F8
01F8
01F8
01F8
01F8
ENDCHAR
STARTCHAR 00CD
ENCODING 205
SWIDTH 273 0
DWIDTH 19 0
BBX 14 66 5 0
BITMAP
01FC
03F8
07F0
07E0
0FC0
1F80
1F00
3E00
7C00
7800
F000
0000
0000
0000
0000
3F00
3F00
3F00
3F00
3F00
3F00
3F00
3F00
3F00
3F00
3F00
3F00
3F00
3F00
3F00
3F00
3F00
3F00
3F00
3F00
3F00
3F00
3F00
3F00
3F00
3F00
3F00
3F00
3F00
3F00
3F00
3F00
3F00
3F00
3F00
3F00
3F00
3F00
3F00
3F00
3F00
3F00
3F00
3F00
3F00
3F00
3F00
3F00
3F00
3F00
3F00
ENDCHAR
STARTCHAR 00CE
ENCODING 206
SWIDTH 273 0
DWIDTH 19 0
BBX 20 66 0 0
BITMAP
03F800
03FC00
07FE00
07FE00
0FFF00
1F9F00
1F0F80
3E07C0
7C03C0
7803E0
F801F0
000000
000000
000000
000000
01F800
01F800
01F800
01F800
01F800
01F800
01F800
01F800
01F800
01F800
01F800
01F800
01F800
01F800
01F800
01F800
01F800
01F800
01F800
01F800
01F800
01F800
01F800
01F800
01F800
01F800
01F800
01F800
01F800
01F800
01F800
01F800
01F800
01F800
01F800
01F800
01F800
01F800
01F800
01F800
01F800
01F800
01F800
01F800
01F800
01F800
01F800
01F800
01F800
01F800
01F800
ENDCHAR
STARTCHAR 00CF
ENCODING 207
SWIDTH 273 0
DWIDTH 19 0
BBX 18 63 1 0
BITMAP
FE1FC0
FE1FC0
FE1FC0
FE1FC0
FE1FC0
FE1FC0
FE1FC0
000000
000000
000000
000000
000000
03F000
03F000
03F000
03F000
03F000
03F000
03F000
03F000
03F000
03F000
03F000
03F000
03F000
03F000
03F000
03F000
03F000
03F000
03F000
03F000
03F000
03F000
03F000
03F000
03F000
03F000
03F000
03F000
03F000
03F000
03F000
03F000
03F000
03F000
03F000
03F000
03F000
03F000
03F000
03F000
03F000
03F000
03F000
03F000
03F000
03F000
03F000
03F000
03F000
03F000
03F000
ENDCHAR
STARTCHAR 00D0
ENCODING 208
SWIDTH 720 0
DWIDTH 50 0
BBX 45 51 1 0
BITMAP
07FFFFFC0000
07FFFFFF8000
07FFFFFFE000
07FFFFFFF800
07FFFFFFFC00
07FFFFFFFE00
07F00007FF00
07F00001FF00
07F000007F80
07F000003FC0
07F000001FC0
07F000000FE0
07F000000FE0
07F0000007F0
07F0000007F0
07F0000003F0
07F0000003F0
07F0000003F8
07F0000003F8
07F0000003F8
07F0000001F8
07F0000001F8
FFFFFF0001F8
FFFFFF0001F8
FFFFFF0001F8
FFFFFF0001F8
FFFFFF0001F8
07F0000001F8
07F0000001F8
07F0000001F8
07F0000001F8
07F0000003F8
07F0000003F8
07F0000003F8
07F0000003F0
07F0000007F0
07F0000007F0
07F0000007E0
07F000000FE0
07F000000FE0
07F000001FC0
07F000003FC0
07F000007F80
07F00001FF00
07F00007FF00
07FFFFFFFE00
07FFFFFFFC00
07FFFFFFF000
07FFFFFFE000
07FFFFFF8000
07FFFFF80000
ENDCHAR
STARTCHAR 00D1
ENCODING 209
SWIDTH 720 0
DWIDTH 50 0
BBX 40 64 5 0
BITMAP
0007E01E00
000FFC1E00
001FFFFE00
001FFFFE00
003FFFFC00
003C1FF800
003C03F000
0000000000
0000000000
0000000000
0000000000
0000000000
0000000000
FF0000003F
FF0000003F
FF8000003F
FFC000003F
FFC000003F
FFE000003F
FFE000003F
FFF000003F
FFF800003F
FFF800003F
FDFC00003F
FCFE00003F
FCFE00003F
FC7F00003F
FC7F00003F
FC3F80003F
FC1FC0003F
FC1FC0003F
FC0FE0003F
FC07F0003F
FC07F0003F
FC03F8003F
FC03FC003F
FC01FC003F
FC00FE003F
FC00FE003F
FC007F003F
FC003F803F
FC003F803F
FC001FC03F
FC000FE03F
FC000FE03F
FC0007F03F
FC0007F83F
FC0003F83F
FC0001FC3F
FC0001FC3F
FC0000FE3F
FC00007F3F
FC00007F3F
FC00003FBF
FC00003FFF
FC00001FFF
FC00000FFF
FC00000FFF
FC000007FF
FC000003FF
FC000003FF
FC000001FF
FC000000FF
FC000000FF
ENDCHAR
STARTCHAR 00D2
ENCODING 210
SWIDTH 777 0
DWIDTH 54 0
BBX 49 68 3 -2
BITMAP
0003FC00000000
0001FE00000000
0000FE00000000
00007F00000000
00003F80000000
00001F80000000
00000FC0000000
000007E0000000
000003E0000000
000001F0000000
000000F8000000
00000000000000
00000000000000
00000000000000
00001FF8000000
0001FFFF800000
0007FFFFE00000
001FFFFFF80000
003FFFFFFE0000
00FFFFFFFF0000
01FFE007FF8000
03FF0000FFC000
03FC00003FE000
07F800001FF000
0FF000000FF000
1FE0000007F800
1FC0000003F800
3FC0000001FC00
3F80000001FC00
3F80000000FE00
7F00000000FE00
7F00000000FE00
7E000000007F00
FE000000007F00
FE000000007F00
FE000000003F00
FC000000003F00
FC000000003F00
FC000000003F00
FC000000003F80
FC000000003F80
FC000000003F80
FC000000003F80
FC000000003F00
FC000000003F00
FC000000003F00
FE000000003F00
FE000000007F00
FE000000007F00
7E000000007F00
7F000000007E00
7F00000000FE00
3F80000000FE00
3F80000001FC00
3FC0000001FC00
1FC0000003F800
1FE0000007F800
0FF000000FF000
07F800001FE000
07FE00003FE000
03FF0000FFC000
01FFE003FF8000
00FFFFFFFF0000
003FFFFFFE0000
001FFFFFF80000
0007FFFFE00000
0001FFFF800000
00001FF8000000
ENDCHAR
STARTCHAR 00D3
ENCODING 211
SWIDTH 777 0
DWIDTH 54 0
BBX 49 68 3 -2
BITMAP
0000003FC00000
0000007F800000
0000007F000000
000000FE000000
000001FC000000
000001F8000000
000003F0000000
000007E0000000
000007C0000000
00000F80000000
00001F00000000
00000000000000
00000000000000
00000000000000
00001FF8000000
0001FFFF800000
0007FFFFE00000
001FFFFFF80000
003FFFFFFE0000
00FFFFFFFF0000
01FFE007FF8000
03FF0000FFC000
03FC00003FE000
07F800001FF000
0FF000000FF000
1FE0000007F800
1FC0000003F800
3FC0000001FC00
3F80000001FC00
3F80000000FE00
7F00000000FE00
7F00000000FE00
7E000000007F00
FE000000007F00
FE000000007F00
FE000000003F00
FC000000003F00
FC000000003F00
FC000000003F00
FC000000003F80
FC000000003F80
FC000000003F80
FC000000003F80
FC000000003F00
FC000000003F00
FC000000003F00
FE000000003F00
FE000000007F00
FE000000007F00
7E000000007F00
7F000000007E00
7F00000000FE00
3F80000000FE00
3F80000001FC00
3FC0000001FC00
1FC0000003F800
1FE0000007F800
0FF000000FF000
07F800001FE000
07FE00003FE000
03FF0000FFC000
01FFE003FF8000
00FFFFFFFF0000
003FFFFFFE0000
001FFFFFF80000
0007FFFFE00000
0001FFFF800000
00001FF8000000
ENDCHAR
STARTCHAR 00D4
ENCODING 212
SWIDTH 777 0
DWIDTH 54 0
BBX 49 68 3 -2
BITMAP
000007F0000000
00000FF0000000
00001FF8000000
00001FF8000000
00003F7C000000
00007E7E000000
00007C3E000000
0000F81F000000
0001F00F800000
0001F007800000
0003E003C00000
00000000000000
00000000000000
00000000000000
00001FF8000000
0001FFFF800000
0007FFFFE00000
001FFFFFF80000
003FFFFFFE0000
00FFFFFFFF0000
01FFE007FF8000
03FF0000FFC000
03FC00003FE000
07F800001FF000
0FF000000FF000
1FE0000007F800
1FC0000003F800
3FC0000001FC00
3F80000001FC00
3F80000000FE00
7F00000000FE00
7F00000000FE00
7E000000007F00
FE000000007F00
FE000000007F00
FE000000003F00
FC000000003F00
FC000000003F00
FC000000003F00
FC000000003F80
FC000000003F80
FC000000003F80
FC000000003F80
FC000000003F00
FC000000003F00
FC000000003F00
FE000000003F00
FE000000007F00
FE000000007F00
7E000000007F00
7F000000007E00
7F00000000FE00
3F80000000FE00
3F80000001FC00
3FC0000001FC00
1FC0000003F800
1FE0000007F800
0FF000000FF000
07F800001FE000
07FE00003FE000
03FF0000FFC000
01FFE003FF8000
00FFFFFFFF0000
003FFFFFFE0000
001FFFFFF80000
0007FFFFE00000
0001FFFF800000
00001FF8000000
ENDCHAR
STARTCHAR 00D5
ENCODING 213
SWIDTH 777 0
DWIDTH 54 0
BBX 49 66 3 -2
BITMAP
00007C01E00000
0000FF83E00000
0001FFFFE00000
0001FFFFC00000
0003FFFFC00000
0003C1FF800000
0003C03F000000
00000000000000
00000000000000
00000000000000
00000000000000
00000000000000
00001FF8000000
0001FFFF800000
0007FFFFE00000
001FFFFFF80000
003FFFFFFE0000
00FFFFFFFF0000
01FFE007FF8000
03FF0000FFC000
03FC00003FE000
07F800001FF000
0FF000000FF000
1FE0000007F800
1FC0000003F800
3FC0000001FC00
3F80000001FC00
3F80000000FE00
7F00000000FE00
7F00000000FE00
7E000000007F00
FE000000007F00
FE000000007F00
FE000000003F00
FC000000003F00
FC000000003F00
FC000000003F00
FC000000003F80
FC000000003F80
FC000000003F80
FC000000003F80
FC000000003F00
FC000000003F00
FC000000003F00
FE000000003F00
FE000000007F00
FE000000007F00
7E000000007F00
7F000000007E00
7F00000000FE00
3F80000000FE00
3F80000001FC00
3FC0000001FC00
1FC0000003F800
1FE0000007F800
0FF000000FF000
07F800001FE000
07FE00003FE000
03FF0000FFC000
01FFE003FF8000
00FFFFFFFF0000
003FFFFFFE0000
001FFFFFF80000
0007FFFFE00000
0001FFFF800000
00001FF8000000
ENDCHAR
STARTCHAR 00D6
ENCODING 214
SWIDTH 777 0
DWIDTH 54 0
BBX 49 66 3 -2
BITMAP
0001FC3F800000
0001FC3F800000
0001FC3F800000
0001FC3F800000
0001FC3F800000
0001FC3F800000
0001FC3F800000
00000000000000
00000000000000
00000000000000
00000000000000
00000000000000
00001FF8000000
0001FFFF800000
0007FFFFE00000
001FFFFFF80000
003FFFFFFE0000
00FFFFFFFF0000
01FFE007FF8000
03FF0000FFC000
03FC00003FE000
07F800001FF000
0FF000000FF000
1FE0000007F800
1FC0000003F800
3FC0000001FC00
3F80000001FC00
3F80000000FE00
7F00000000FE00
7F00000000FE00
7E000000007F00
FE000000007F00
FE000000007F00
FE000000003F00
FC000000003F00
FC000000003F00
FC000000003F00
FC000000003F80
FC000000003F80
FC000000003F80
FC000000003F80
FC000000003F00
FC000000003F00
FC000000003F00
FE000000003F00
FE000000007F00
FE000000007F00
7E000000007F00
7F000000007E00
7F00000000FE00
3F80000000FE00
3F80000001FC00
3FC0000001FC00
1FC0000003F800
1FE0000007F800
0FF000000FF000
07F800001FE000
07FE00003FE000
03FF0000FFC000
01FFE003FF8000
00FFFFFFFF0000
003FFFFFFE0000
001FFFFFF80000
0007FFFFE00000
0001FFFF800000
00001FF8000000
ENDCHAR
STARTCHAR 00D7
ENCODING 215
SWIDTH 590 0
DWIDTH 41 0
BBX 27 28 7 2
BITMAP
00000100
30000380
780007C0
FC000FC0
FE001FC0
7F003F80
3F807F00
1FC0FE00
0FE1FC00
07F3F800
03FFF000
01FFE000
00FFC000
007F8000
007F8000
00FFC000
01FFE000
03FFF000
07F3F800
0FE1FC00
1FC0FE00
3F807F00
7F003F80
FE001FC0
FC000FE0
780007C0
30000380
00000100
ENDCHAR
STARTCHAR 00D8
ENCODING 216
SWIDTH 777 0
DWIDTH 54 0
BBX 50 55 2 -2
BITMAP
00000000000200
00000FFC000380
0000FFFFC007C0
0003FFFFF00F80
000FFFFFFC1F00
003FFFFFFF3E00
007FFFFFFFFC00
00FFE003FFF800
01FF80007FF000
03FE00003FF000
03FC00000FF000
07F8000007F800
0FF000000FFC00
0FE000001FFC00
1FC000003FFE00
1FC000007CFE00
3F800000F8FE00
3F800001F07F00
3F000003E07F00
7F000007C03F00
7F00000F803F80
7F00000F803F80
7E00001F003F80
7E00003E001F80
7E00007C001F80
7E0000F8001F80
FE0001F0001F80
FE0003E0001F80
FE0007C0001F80
FE000F80001F80
7E001F00001F80
7E001F00001F80
7E003E00001F80
7E007C00003F80
7F00F800003F80
7F01F000003F80
7F03E000003F00
3F87C000007F00
3F8F8000007F00
3F9F0000007E00
1FDE000000FE00
1FFE000001FE00
0FFC000001FC00
0FF8000003FC00
07F8000007F800
07FC00000FF000
07FE00001FF000
0FFF80007FE000
1FFFF003FFC000
3E7FFFFFFF8000
3E3FFFFFFE0000
7C0FFFFFFC0000
7807FFFFF00000
3000FFFFC00000
00001FFC000000
ENDCHAR
STARTCHAR 00D9
ENCODING 217
SWIDTH 720 0
DWIDTH 50 0
BBX 39 68 6 -2
BITMAP
007F800000
003FC00000
001FC00000
000FE00000
0007F00000
0003F00000
0001F80000
0000FC0000
00007C0000
00003E0000
00001F0000
0000000000
0000000000
0000000000
0000000000
FC000000FE
FC000000FE
FC000000FE
FC000000FE
FC000000FE
FC000000FE
FC000000FE
FC000000FE
FC000000FE
FC000000FE
FC000000FE
FC000000FE
FC000000FE
FC000000FE
FC000000FE
FC000000FE
FC000000FE
FC000000FE
FC000000FE
FC000000FE
FC000000FE
FC000000FE
FC000000FE
FC000000FE
FC000000FE
FC000000FE
FC000000FE
FC000000FE
FC000000FE
FC000000FE
FC000000FE
FC000000FE
FC000000FE
FC000000FE
FC000000FE
FC000000FE
FC000000FE
FC000000FE
FE000000FE
FE000000FE
FE000000FC
7F000001FC
7F000001FC
7F800003F8
3FC00007F8
1FF0001FF0
1FFC007FE0
0FFFFFFFC0
07FFFFFF80
01FFFFFF00
00FFFFFC00
003FFFF000
0003FF8000
ENDCHAR
STARTCHAR 00DA
ENCODING 218
SWIDTH 720 0
DWIDTH 50 0
BBX 39 68 6 -2
BITMAP
000007F800
00000FF000
00000FE000
00001FC000
00003F8000
00003F0000
00007E0000
0000FC0000
0000F80000
0001F00000
0003E00000
0000000000
0000000000
0000000000
0000000000
FC000000FE
FC000000FE
FC000000FE
FC000000FE
FC000000FE
FC000000FE
FC000000FE
FC000000FE
FC000000FE
FC000000FE
FC000000FE
FC000000FE
FC000000FE
FC000000FE
FC000000FE
FC000000FE
FC000000FE
FC000000FE
FC000000FE
FC000000FE
FC000000FE
FC000000FE
FC000000FE
FC000000FE
FC000000FE
FC000000FE
FC000000FE
FC000000FE
FC000000FE
FC000000FE
FC000000FE
FC000000FE
FC000000FE
FC000000FE
FC000000FE
FC000000FE
FC000000FE
FC000000FE
FE000000FE
FE000000FE
FE000000FC
7F000001FC
7F000001FC
7F800003F8
3FC00007F8
1FF0001FF0
1FFC007FE0
0FFFFFFFC0
07FFFFFF80
01FFFFFF00
00FFFFFC00
003FFFF000
0003FF8000
ENDCHAR
STARTCHAR 00DB
ENCODING 219
SWIDTH 720 0
DWIDTH 50 0
BBX 39 68 6 -2
BITMAP
0000FE0000
0001FE0000
0001FF0000
0003FF8000
0007EF8000
0007CFC000
000F87E000
001F83E000
001F01F000
003E00F800
003C007800
0000000000
0000000000
0000000000
0000000000
FC000000FE
FC000000FE
FC000000FE
FC000000FE
FC000000FE
FC000000FE
FC000000FE
FC000000FE
FC000000FE
FC000000FE
FC000000FE
FC000000FE
FC000000FE
FC000000FE
FC000000FE
FC000000FE
FC000000FE
FC000000FE
FC000000FE
FC000000FE
FC000000FE
FC000000FE
FC000000FE
FC000000FE
FC000000FE
FC000000FE
FC000000FE
FC000000FE
FC000000FE
FC000000FE
FC000000FE
FC000000FE
FC000000FE
FC000000FE
FC000000FE
FC000000FE
FC000000FE
FC000000FE
FE000000FE
FE000000FE
FE000000FC
7F000001FC
7F000001FC
7F800003F8
3FC00007F8
1FF0001FF0
1FFC007FE0
0FFFFFFFC0
07FFFFFF80
01FFFFFF00
00FFFFFC00
003FFFF000
0003FF8000
ENDCHAR
STARTCHAR 00DC
ENCODING 220
SWIDTH 720 0
DWIDTH 50 0
BBX 39 66 6 -2
BITMAP
003F87F800
003F87F800
003F87F800
003F87F800
003F87F800
003F87F800
003F87F800
0000000000
0000000000
0000000000
0000000000
0000000000
0000000000
FC000000FE
FC000000FE
FC000000FE
FC000000FE
FC000000FE
FC000000FE
FC000000FE
FC000000FE
FC000000FE
FC000000FE
FC000000FE
FC000000FE
FC000000FE
FC000000FE
FC000000FE
FC000000FE
FC000000FE
FC000000FE
FC000000FE
FC000000FE
FC000000FE
FC000000FE
FC000000FE
FC000000FE
FC000000FE
FC000000FE
FC000000FE
FC000000FE
FC000000FE
FC000000FE
FC000000FE
FC000000FE
FC000000FE
FC000000FE
FC000000FE
FC000000FE
FC000000FE
FC000000FE
FE000000FE
FE000000FE
FE000000FC
7F000001FC
7F000001FC
7F800003F8
3FC00007F8
1FF0001FF0
1FFC007FE0
0FFFFFFFC0
07FFFFFF80
01FFFFFF00
00FFFFFC00
003FFFF000
0003FF8000
ENDCHAR
STARTCHAR 00DD
ENCODING 221
SWIDTH 662 0
DWIDTH 46 0
BBX 45 66 1 0
BITMAP
000000FF0000
000000FE0000
000001FC0000
000003F80000
000003F00000
000007E00000
00000FC00000
00000F800000
00001F000000
00003E000000
00003C000000
000000000000
000000000000
000000000000
000000000000
FF00000007F8
7F8000000FF0
7F8000000FE0
3FC000001FE0
1FE000003FC0
1FE000003F80
0FF000007F80
07F000007F00
07F80000FF00
03FC0000FE00
03FC0001FC00
01FE0003FC00
00FE0003F800
00FF0007F800
007F8007F000
003F800FE000
003FC00FE000
001FC01FC000
001FE03F8000
000FF03F8000
0007F07F0000
0007F87F0000
0003F8FE0000
0001FDFC0000
0001FDFC0000
0000FFF80000
00007FF80000
00007FF00000
00003FE00000
00003FE00000
00001FC00000
00001FC00000
00001FC00000
00001FC00000
00001FC00000
00001FC00000
00001FC00000
00001FC00000
00001FC00000
00001FC00000
00001FC00000
00001FC00000
00001FC00000
00001FC00000
00001FC00000
00001FC00000
00001FC00000
00001FC00000
00001FC00000
00001FC00000
00001FC00000
ENDCHAR
STARTCHAR 00DE
ENCODING 222
SWIDTH 662 0
DWIDTH 46 0
BBX 37 51 6 0
BITMAP
FE00000000
FE00000000
FE00000000
FE00000000
FE00000000
FE00000000
FE00000000
FE00000000
FFFFFF0000
FFFFFFF000
FFFFFFFC00
FFFFFFFF00
FFFFFFFF80
FFFFFFFFC0
FE0000FFE0
FE00003FE0
FE00001FF0
FE00000FF0
FE000007F0
FE000007F0
FE000003F8
FE000003F8
FE000003F8
FE000003F8
FE000003F8
FE000003F8
FE000007F0
FE000007F0
FE00000FF0
FE00001FF0
FE00003FE0
FE0000FFE0
FFFFFFFFC0
FFFFFFFF80
FFFFFFFF00
FFFFFFFE00
FFFFFFF800
FFFFFF8000
FE00000000
FE00000000
FE00000000
FE00000000
FE00000000
FE00000000
FE00000000
FE00000000
FE00000000
FE00000000
FE00000000
FE00000000
FE00000000
ENDCHAR
STARTCHAR 00DF
ENCODING 223
SWIDTH 604 0
DWIDTH 42 0
BBX 34 52 5 -1
BITMAP
001FF80000
00FFFF0000
03FFFFC000
0FFFFFE000
1FFFFFF000
3FFCFFF800
7FC007FC00
7F0003FC00
7E0001FC00
FE0000FE00
FC00007E00
FC00007E00
FC00007E00
FC00007E00
FC00007E00
FC00007E00
FC0000FC00
FC0001FC00
FC0003F800
FC0007F000
FC003FE000
FC03FF8000
FC03FE0000
FC03FF8000
FC03FFE000
FC03FFF800
FC007FFC00
FC0003FE00
FC0000FF00
FC00007F00
FC00003F80
FC00001F80
FC00001F80
FC00001F80
FC00001FC0
FC00001FC0
FC00001FC0
FC00001F80
FC00001F80
FC00001F80
FC00003F80
FC00003F80
FC00007F00
FC0000FF00
FC0001FE00
FC0007FE00
FC07FFFC00
FC07FFF800
FC07FFF000
FC07FFC000
FC07FF0000
0007F80000
ENDCHAR
STARTCHAR 00E0
ENCODING 224
SWIDTH 561 0
DWIDTH 39 0
BBX 34 54 3 -2
BITMAP
01FE000000
00FE000000
007F000000
003F000000
001F800000
000FC00000
0007C00000
0003E00000
0003F00000
0001F00000
0000F80000
0000000000
0000000000
0000000000
0000000000
001FF80000
00FFFF8000
03FFFFC000
07FFFFE000
0FFFFFF000
1FFE7FF800
1FC007F800
3F8001FC00
3F0001FC00
3F0000FC00
3F0000FC00
3E0000FC00
000000FC00
000000FC00
000001FC00
000003FC00
00007FFC00
003FFFFC00
03FFFFFC00
07FFFFFC00
1FFFF8FC00
3FFC00FC00
7FC000FC00
7F0000FC00
7E0000FC00
FC0000FC00
FC0000FC00
FC0000FC00
FC0000FC00
FC0001FC00
FC0003FC00
FE0007FC00
7F001FFC00
7FC07FFE00
3FFFFEFFC0
1FFFFC7FC0
0FFFF87FC0
07FFE03FC0
00FF001FC0
ENDCHAR
STARTCHAR 00E1
ENCODING 225
SWIDTH 561 0
DWIDTH 39 0
BBX 34 54 3 -2
BITMAP
00003F8000
00007F0000
00007F0000
0000FE0000
0001FC0000
0001F80000
0003F00000
0003E00000
0007C00000
000F800000
000F000000
0000000000
0000000000
0000000000
0000000000
001FF80000
00FFFF8000
03FFFFC000
07FFFFE000
0FFFFFF000
1FFE7FF800
1FC007F800
3F8001FC00
3F0001FC00
3F0000FC00
3F0000FC00
3E0000FC00
000000FC00
000000FC00
000001FC00
000003FC00
00007FFC00
003FFFFC00
03FFFFFC00
07FFFFFC00
1FFFF8FC00
3FFC00FC00
7FC000FC00
7F0000FC00
7E0000FC00
FC0000FC00
FC0000FC00
FC0000FC00
FC0000FC00
FC0001FC00
FC0003FC00
FE0007FC00
7F001FFC00
7FC07FFE00
3FFFFEFFC0
1FFFFC7FC0
0FFFF87FC0
07FFE03FC0
00FF001FC0
ENDCHAR
STARTCHAR 00E2
ENCODING 226
SWIDTH 561 0
DWIDTH 39 0
BBX 34 54 3 -2
BITMAP
0007F00000
000FF00000
001FF80000
001FF80000
003F7C0000
003E7E0000
007C3E0000
00F81F0000
00F80F8000
01F00F8000
01E007C000
0000000000
0000000000
0000000000
0000000000
001FF80000
00FFFF8000
03FFFFC000
07FFFFE000
0FFFFFF000
1FFE7FF800
1FC007F800
3F8001FC00
3F0001FC00
3F0000FC00
3F0000FC00
3E0000FC00
000000FC00
000000FC00
000001FC00
000003FC00
00007FFC00
003FFFFC00
03FFFFFC00
07FFFFFC00
1FFFF8FC00
3FFC00FC00
7FC000FC00
7F0000FC00
7E0000FC00
FC0000FC00
FC0000FC00
FC0000FC00
FC0000FC00
FC0001FC00
FC0003FC00
FE0007FC00
7F001FFC00
7FC07FFE00
3FFFFEFFC0
1FFFFC7FC0
0FFFF87FC0
07FFE03FC0
00FF001FC0
ENDCHAR
STARTCHAR 00E3
ENCODING 227
SWIDTH 561 0
DWIDTH 39 0
BBX 34 52 3 -2
BITMAP
007C01E000
00FF83E000
01FFFFC000
03FFFFC000
03FFFFC000
03C1FF8000
07803E0000
0000000000
0000000000
0000000000
0000000000
0000000000
0000000000
001FF80000
00FFFF8000
03FFFFC000
07FFFFE000
0FFFFFF000
1FFE7FF800
1FC007F800
3F8001FC00
3F0001FC00
3F0000FC00
3F0000FC00
3E0000FC00
000000FC00
000000FC00
000001FC00
000003FC00
00007FFC00
003FFFFC00
03FFFFFC00
07FFFFFC00
1FFFF8FC00
3FFC00FC00
7FC000FC00
7F0000FC00
7E0000FC00
FC0000FC00
FC0000FC00
FC0000FC00
FC0000FC00
FC0001FC00
FC0003FC00
FE0007FC00
7F001FFC00
7FC07FFE00
3FFFFEFFC0
1FFFFC7FC0
0FFFF87FC0
07FFE03FC0
00FF001FC0
ENDCHAR
STARTCHAR 00E4
ENCODING 228
SWIDTH 561 0
DWIDTH 39 0
BBX 34 52 3 -2
BITMAP
01FC3F8000
01FC3F8000
01FC3F8000
01FC3F8000
01FC3F8000
01FC3F8000
01FC3F8000
0000000000
0000000000
0000000000
0000000000
0000000000
0000000000
001FF80000
00FFFF8000
03FFFFC000
07FFFFE000
0FFFFFF000
1FFE7FF800
1FC007F800
3F8001FC00
3F0001FC00
3F0000FC00
3F0000FC00
3E0000FC00
000000FC00
000000FC00
000001FC00
000003FC00
00007FFC00
003FFFFC00
03FFFFFC00
07FFFFFC00
1FFFF8FC00
3FFC00FC00
7FC000FC00
7F0000FC00
7E0000FC00
FC0000FC00
FC0000FC00
FC0000FC00
FC0000FC00
FC0001FC00
FC0003FC00
FE0007FC00
7F001FFC00
7FC07FFE00
3FFFFEFFC0
1FFFFC7FC0
0FFFF87FC0
07FFE03FC0
00FF001FC0
ENDCHAR
STARTCHAR 00E5
ENCODING 229
SWIDTH 561 0
DWIDTH 39 0
BBX 34 54 3 -2
BITMAP
0003E00000
000FF00000
001FF80000
001E3C0000
003C1C0000
00381C0000
00381C0000
003C1C0000
001C3C0000
001FF80000
000FF00000
0007E00000
0000000000
0000000000
0000000000
001FF80000
00FFFF8000
03FFFFC000
07FFFFE000
0FFFFFF000
1FFE7FF800
1FC007F800
3F8001FC00
3F0001FC00
3F0000FC00
3F0000FC00
3E0000FC00
000000FC00
000000FC00
000001FC00
000003FC00
00007FFC00
003FFFFC00
03FFFFFC00
07FFFFFC00
1FFFF8FC00
3FFC00FC00
7FC000FC00
7F0000FC00
7E0000FC00
FC0000FC00
FC0000FC00
FC0000FC00
FC0000FC00
FC0001FC00
FC0003FC00
FE0007FC00
7F001FFC00
7FC07FFE00
3FFFFEFFC0
1FFFFC7FC0
0FFFF87FC0
07FFE03FC0
00FF001FC0
ENDCHAR
STARTCHAR 00E6
ENCODING 230
SWIDTH 892 0
DWIDTH 62 0
BBX 57 39 2 -2
BITMAP
000FF80007F80000
00FFFF003FFF0000
01FFFFC0FFFF8000
07FFFFE1FFFFE000
0FFFFFF3FFFFF000
0FFE3FF7FE3FF800
1FE003FFF007FC00
1FC001FFC001FC00
3F8000FF8000FE00
3F0000FF00007E00
3F0000FF00007F00
3F0000FE00003F00
000000FE00003F00
000000FC00003F00
000000FC00003F00
000003FC00003F80
0000FFFFFFFFFF80
003FFFFFFFFFFF80
03FFFFFFFFFFFF80
07FFFFFFFFFFFF80
1FFFF0FFFFFFFF80
3FFC00FC00000000
3FC000FC00000000
7F8000FC00000000
7E0000FC00000000
7E0000FC00000000
FE0000FE00003F00
FC0000FE00003F00
FC0000FF00007E00
FE0001FF00007E00
7E0003FF8000FE00
7F0007FFC001FC00
7F801FCFF007FC00
3FC07F8FFE3FF800
3FFFFF07FFFFF000
1FFFFC03FFFFE000
0FFFF801FFFFC000
03FFE0007FFF0000
00FF00000FF80000
ENDCHAR
STARTCHAR 00E7
ENCODING 231
SWIDTH 504 0
DWIDTH 35 0
BBX 31 52 2 -15
BITMAP
000FF800
007FFE00
00FFFF80
03FFFFE0
07FFFFF0
0FFE3FF0
0FF007F8
1FC003FC
1F8001FC
3F8000FC
3F0000FC
7F00007E
7E00007E
7E000000
7E000000
FE000000
FC000000
FC000000
FC000000
FC000000
FC000000
FC000000
FC000000
FE000000
7E00007E
7E00007E
7E00007E
7F00007E
3F0000FC
3F8000FC
1FC001FC
1FE003F8
0FF80FF0
07FFFFF0
03FFFFE0
01FFFFC0
007FFF00
001FFC00
00070000
00070000
0006C000
000FF800
000FFC00
0008FE00
00007E00
00003E00
00003E00
01807C00
03E0FC00
03FFF800
00FFF000
001F8000
ENDCHAR
STARTCHAR 00E8
ENCODING 232
SWIDTH 561 0
DWIDTH 39 0
BBX 33 54 3 -2
BITMAP
01FE000000
00FE000000
007F000000
003F800000
001F800000
000FC00000
0007C00000
0003E00000
0001F00000
0000F00000
0000F80000
0000000000
0000000000
0000000000
0000000000
000FF80000
007FFF0000
00FFFF8000
03FFFFE000
07FFFFF000
0FFE3FF800
1FF007FC00
1FC001FC00
3F8000FE00
3F0000FE00
7F00007F00
7E00007F00
7E00003F00
FC00003F00
FC00003F00
FC00003F00
FFFFFFFF80
FFFFFFFF80
FFFFFFFF80
FFFFFFFF80
FFFFFFFF80
FC00000000
FC00000000
FC00000000
FC00000000
FC00000000
7E00003F00
7E00003F00
7F00007E00
3F00007E00
3F8000FE00
1FC001FC00
1FF007F800
0FFE3FF800
07FFFFF000
03FFFFE000
01FFFF8000
007FFF0000
000FF80000
ENDCHAR
STARTCHAR 00E9
ENCODING 233
SWIDTH 561 0
DWIDTH 39 0
BBX 33 54 3 -2
BITMAP
00003FC000
00007F8000
00007F0000
0000FE0000
0000FC0000
0001F80000
0003F00000
0003E00000
0007C00000
0007800000
000F000000
0000000000
0000000000
0000000000
0000000000
000FF80000
007FFF0000
00FFFF8000
03FFFFE000
07FFFFF000
0FFE3FF800
1FF007FC00
1FC001FC00
3F8000FE00
3F0000FE00
7F00007F00
7E00007F00
7E00003F00
FC00003F00
FC00003F00
FC00003F00
FFFFFFFF80
FFFFFFFF80
FFFFFFFF80
FFFFFFFF80
FFFFFFFF80
FC00000000
FC00000000
FC00000000
FC00000000
FC00000000
7E00003F00
7E00003F00
7F00007E00
3F00007E00
3F8000FE00
1FC001FC00
1FF007F800
0FFE3FF800
07FFFFF000
03FFFFE000
01FFFF8000
007FFF0000
000FF80000
ENDCHAR
STARTCHAR 00EA
ENCODING 234
SWIDTH 561 0
DWIDTH 39 0
BBX 33 54 3 -2
BITMAP
0007F80000
0007F80000
000FFC0000
001FFC0000
001F7E0000
003F3F0000
003E1F0000
007C0F8000
00F80F8000
00F807C000
01F003C000
0000000000
0000000000
0000000000
0000000000
000FF80000
007FFF0000
00FFFF8000
03FFFFE000
07FFFFF000
0FFE3FF800
1FF007FC00
1FC001FC00
3F8000FE00
3F0000FE00
7F00007F00
7E00007F00
7E00003F00
FC00003F00
FC00003F00
FC00003F00
FFFFFFFF80
FFFFFFFF80
FFFFFFFF80
FFFFFFFF80
FFFFFFFF80
FC00000000
FC00000000
FC00000000
FC00000000
FC00000000
7E00003F00
7E00003F00
7F00007E00
3F00007E00
3F8000FE00
1FC001FC00
1FF007F800
0FFE3FF800
07FFFFF000
03FFFFE000
01FFFF8000
007FFF0000
000FF80000
ENDCHAR
STARTCHAR 00EB
ENCODING 235
SWIDTH 561 0
DWIDTH 39 0
BBX 33 52 3 -2
BITMAP
00FE1FC000
00FE1FC000
00FE1FC000
00FE1FC000
00FE1FC000
00FE1FC000
00FE1FC000
0000000000
0000000000
0000000000
0000000000
0000000000
0000000000
000FF80000
007FFF0000
00FFFF8000
03FFFFE000
07FFFFF000
0FFE3FF800
1FF007FC00
1FC001FC00
3F8000FE00
3F0000FE00
7F00007F00
7E00007F00
7E00003F00
FC00003F00
FC00003F00
FC00003F00
FFFFFFFF80
FFFFFFFF80
FFFFFFFF80
FFFFFFFF80
FFFFFFFF80
FC00000000
FC00000000
FC00000000
FC00000000
FC00000000
7E00003F00
7E00003F00
7F00007E00
3F00007E00
3F8000FE00
1FC001FC00
1FF007F800
0FFE3FF800
07FFFFF000
03FFFFE000
01FFFF8000
007FFF0000
000FF80000
ENDCHAR
STARTCHAR 00EC
ENCODING 236
SWIDTH 273 0
DWIDTH 19 0
BBX 14 52 0 0
BITMAP
FF00
7F00
3F80
1FC0
0FC0
07E0
03E0
01F0
00F8
0078
003C
0000
0000
0000
0000
0000
01F0
01F0
01F0
01F0
01F0
01F0
01F0
01F0
01F0
01F0
01F0
01F0
01F0
01F0
01F0
01F0
01F0
01F0
01F0
01F0
01F0
01F0
01F0
01F0
01F0
01F0
01F0
01F0
01F0
01F0
01F0
01F0
01F0
01F0
01F0
01F0
ENDCHAR
STARTCHAR 00ED
ENCODING 237
SWIDTH 273 0
DWIDTH 19 0
BBX 14 52 5 0
BITMAP
03FC
07F8
07F0
0FE0
1FC0
1F80
3F00
3E00
7C00
F800
F000
0000
0000
0000
0000
0000
3E00
3E00
3E00
3E00
3E00
3E00
3E00
3E00
3E00
3E00
3E00
3E00
3E00
3E00
3E00
3E00
3E00
3E00
3E00
3E00
3E00
3E00
3E00
3E00
3E00
3E00
3E00
3E00
3E00
3E00
3E00
3E00
3E00
3E00
3E00
3E00
ENDCHAR
STARTCHAR 00EE
ENCODING 238
SWIDTH 273 0
DWIDTH 19 0
BBX 19 52 0 0
BITMAP
03F800
07FC00
07FC00
0FFE00
1FBE00
1F1F00
3E1F80
3E0F80
7C07C0
F803E0
F001E0
000000
000000
000000
000000
000000
01F000
01F000
01F000
01F000
01F000
01F000
01F000
01F000
01F000
01F000
01F000
01F000
01F000
01F000
01F000
01F000
01F000
01F000
01F000
01F000
01F000
01F000
01F000
01F000
01F000
01F000
01F000
01F000
01F000
01F000
01F000
01F000
01F000
01F000
01F000
01F000
ENDCHAR
STARTCHAR 00EF
ENCODING 239
SWIDTH 273 0
DWIDTH 19 0
BBX 19 49 0 0
BITMAP
FE1FE0
FE1FE0
FE1FE0
FE1FE0
FE1FE0
FE1FE0
FE1FE0
000000
000000
000000
000000
000000
000000
01F000
01F000
01F000
01F000
01F000
01F000
01F000
01F000
01F000
01F000
01F000
01F000
01F000
01F000
01F000
01F000
01F000
01F000
01F000
01F000
01F000
01F000
01F000
01F000
01F000
01F000
01F000
01F000
01F000
01F000
01F000
01F000
01F000
01F000
01F000
01F000
ENDCHAR
STARTCHAR 00F0
ENCODING 240
SWIDTH 561 0
DWIDTH 39 0
BBX 33 53 2 -2
BITMAP
0380000000
07E00C0000
0FF83E0000
03FCFF0000
01FFFC0000
007FF00000
007FC00000
01FFF00000
07FFF80000
0FE3FC0000
0781FE0000
0200FF0000
00003F8000
00001FC000
000FEFE000
007FFFF000
00FFFFF000
03FFFFF800
07FFFFFC00
0FFE1FFC00
0FF003FE00
1FE001FE00
1FC000FF00
3F80007F00
3F00007F00
3F00003F80
7F00003F80
7E00001F80
7E00001F80
7E00001F80
7E00001F80
7E00001F80
7E00001F80
FE00001F80
7E00001F80
7E00001F80
7E00001F80
7E00001F80
7E00001F80
7E00001F80
7F00003F80
3F00003F00
3F80007F00
3F80007F00
1FC000FE00
1FE001FE00
0FF003FC00
0FFF3FF800
07FFFFF800
03FFFFF000
00FFFFC000
007FFF0000
000FF80000
ENDCHAR
STARTCHAR 00F1
ENCODING 241
SWIDTH 561 0
DWIDTH 39 0
BBX 29 50 5 0
BITMAP
01F00780
03FE0F80
07FFFF80
07FFFF00
0FFFFF00
0F07FE00
0F00FC00
00000000
00000000
00000000
00000000
00000000
00000000
0007F800
F81FFF00
F87FFF80
F8FFFFE0
F9FFFFE0
FBF83FF0
FBC00FF0
FF8003F8
FF0003F8
FF0001F8
FE0001F8
FE0001F8
FC0001F8
FC0001F8
FC0001F8
FC0001F8
FC0001F8
FC0001F8
FC0001F8
FC0001F8
FC0001F8
FC0001F8
FC0001F8
FC0001F8
FC0001F8
FC0001F8
FC0001F8
FC0001F8
FC0001F8
FC0001F8
FC0001F8
FC0001F8
FC0001F8
FC0001F8
FC0001F8
FC0001F8
FC0001F8
ENDCHAR
STARTCHAR 00F2
ENCODING 242
SWIDTH 561 0
DWIDTH 39 0
BBX 33 54 2 -2
BITMAP
00FE000000
007F000000
007F800000
003F800000
001FC00000
000FC00000
0007E00000
0003F00000
0001F00000
0000F80000
0000780000
0000000000
0000000000
0000000000
0000000000
0007F80000
003FFF0000
00FFFFC000
01FFFFF000
03FFFFF800
07FF3FF800
0FF003FC00
1FE001FE00
1FC000FE00
3F80007F00
3F00007F00
3F00003F00
7F00003F80
7E00001F80
7E00001F80
7E00001F80
7E00001F80
7E00001F80
7E00001F80
FE00001F80
7E00001F80
7E00001F80
7E00001F80
7E00001F80
7E00001F80
7E00001F80
7F00003F80
3F00003F00
3F80003F00
3F80007F00
1FC000FE00
1FE001FE00
0FF003FC00
07FF3FF800
07FFFFF000
03FFFFE000
00FFFFC000
003FFF0000
000FF80000
ENDCHAR
STARTCHAR 00F3
ENCODING 243
SWIDTH 561 0
DWIDTH 39 0
BBX 33 54 2 -2
BITMAP
00003FC000
00003F8000
00007F0000
00007E0000
0000FC0000
0001F80000
0001F00000
0003E00000
0003E00000
0007C00000
000F800000
0000000000
0000000000
0000000000
0000000000
0007F80000
003FFF0000
00FFFFC000
01FFFFF000
03FFFFF800
07FF3FF800
0FF003FC00
1FE001FE00
1FC000FE00
3F80007F00
3F00007F00
3F00003F00
7F00003F80
7E00001F80
7E00001F80
7E00001F80
7E00001F80
7E00001F80
7E00001F80
FE00001F80
7E00001F80
7E00001F80
7E00001F80
7E00001F80
7E00001F80
7E00001F80
7F00003F80
3F00003F00
3F80003F00
3F80007F00
1FC000FE00
1FE001FE00
0FF003FC00
07FF3FF800
07FFFFF000
03FFFFE000
00FFFFC000
003FFF0000
000FF80000
ENDCHAR
STARTCHAR 00F4
ENCODING 244
SWIDTH 561 0
DWIDTH 39 0
BBX 33 54 2 -2
BITMAP
0007F80000
0007F80000
000FFC0000
000FFC0000
001FFE0000
003F3F0000
003E1F0000
007C0F8000
00780F8000
00F807C000
01F003E000
0000000000
0000000000
0000000000
0000000000
0007F80000
003FFF0000
00FFFFC000
01FFFFF000
03FFFFF800
07FF3FF800
0FF003FC00
1FE001FE00
1FC000FE00
3F80007F00
3F00007F00
3F00003F00
7F00003F80
7E00001F80
7E00001F80
7E00001F80
7E00001F80
7E00001F80
7E00001F80
FE00001F80
7E00001F80
7E00001F80
7E00001F80
7E00001F80
7E00001F80
7E00001F80
7F00003F80
3F00003F00
3F80003F00
3F80007F00
1FC000FE00
1FE001FE00
0FF003FC00
07FF3FF800
07FFFFF000
03FFFFE000
00FFFFC000
003FFF0000
000FF80000
ENDCHAR
STARTCHAR 00F5
ENCODING 245
SWIDTH 561 0
DWIDTH 39 0
BBX 33 52 2 -2
BITMAP
003E00F000
007FC1F000
00FFFFF000
01FFFFE000
01FFFFE000
01E0FFC000
03E01F8000
0000000000
0000000000
0000000000
0000000000
0000000000
0000000000
0007F80000
003FFF0000
00FFFFC000
01FFFFF000
03FFFFF800
07FF3FF800
0FF003FC00
1FE001FE00
1FC000FE00
3F80007F00
3F00007F00
3F00003F00
7F00003F80
7E00001F80
7E00001F80
7E00001F80
7E00001F80
7E00001F80
7E00001F80
FE00001F80
7E00001F80
7E00001F80
7E00001F80
7E00001F80
7E00001F80
7E00001F80
7F00003F80
3F00003F00
3F80003F00
3F80007F00
1FC000FE00
1FE001FE00
0FF003FC00
07FF3FF800
07FFFFF000
03FFFFE000
00FFFFC000
003FFF0000
000FF80000
ENDCHAR
STARTCHAR 00F6
ENCODING 246
SWIDTH 561 0
DWIDTH 39 0
BBX 33 52 2 -2
BITMAP
00FE1FC000
00FE1FC000
00FE1FC000
00FE1FC000
00FE1FC000
00FE1FC000
00FE1FC000
0000000000
0000000000
0000000000
0000000000
0000000000
0000000000
0007F80000
003FFF0000
00FFFFC000
01FFFFF000
03FFFFF800
07FF3FF800
0FF003FC00
1FE001FE00
1FC000FE00
3F80007F00
3F00007F00
3F00003F00
7F00003F80
7E00001F80
7E00001F80
7E00001F80
7E00001F80
7E00001F80
7E00001F80
FE00001F80
7E00001F80
7E00001F80
7E00001F80
7E00001F80
7E00001F80
7E00001F80
7F00003F80
3F00003F00
3F80003F00
3F80007F00
1FC000FE00
1FE001FE00
0FF003FC00
07FF3FF800
07FFFFF000
03FFFFE000
00FFFFC000
003FFF0000
000FF80000
ENDCHAR
STARTCHAR 00F7
ENCODING 247
SWIDTH 590 0
DWIDTH 41 0
BBX 34 33 3 0
BITMAP
0003F80000
0003F80000
0003F80000
0003F80000
0003F80000
0003F80000
0003F80000
0000000000
0000000000
0000000000
0000000000
0000000000
0000000000
0000000000
FFFFFFFFC0
FFFFFFFFC0
FFFFFFFFC0
FFFFFFFFC0
FFFFFFFFC0
0000000000
0000000000
0000000000
0000000000
0000000000
0000000000
0000000000
0003F80000
0003F80000
0003F80000
0003F80000
0003F80000
0003F80000
0003F80000
ENDCHAR
STARTCHAR 00F8
ENCODING 248
SWIDTH 604 0
DWIDTH 42 0
BBX 35 39 1 -2
BITMAP
0003FE0040
001FFF80E0
007FFFE1E0
00FFFFF3C0
01FFFFFB80
03FF9FFF80
07F801FF00
0FF000FF00
0FE0007F00
1FC0007F80
1F8000FF80
1F8001FF80
3F8003DFC0
3F00038FC0
3F00078FC0
3F000F0FC0
3F001E0FC0
3F003C0FC0
3F00780FC0
7F00F00FC0
3F01E00FC0
3F03C00FC0
3F03C00FC0
3F07800FC0
3F0F000FC0
3F1E000FC0
3FBC001FC0
1FF8001F80
1FF0003F80
1FE0003F80
0FE0007F00
0FF000FF00
07F801FE00
0FFF0FFC00
1FFFFFF800
3CFFFFF000
787FFFE000
F01FFF8000
6003FC0000
ENDCHAR
STARTCHAR 00F9
ENCODING 249
SWIDTH 561 0
DWIDTH 39 0
BBX 28 54 5 -2
BITMAP
07F00000
07F80000
03F80000
01FC0000
00FE0000
007E0000
003F0000
001F8000
000F8000
0007C000
00000000
00000000
00000000
00000000
00000000
00000000
F80001F0
F80001F0
F80001F0
F80001F0
F80001F0
F80001F0
F80001F0
F80001F0
F80001F0
F80001F0
F80001F0
F80001F0
F80001F0
F80001F0
F80001F0
F80001F0
F80001F0
F80001F0
F80001F0
F80001F0
F80001F0
F80001F0
F80001F0
F80003F0
F80003F0
F80003F0
F80003F0
F80007F0
FC0007F0
FC000FF0
FE001FF0
FF003FF0
FFC0FDF0
7FFFF9F0
3FFFF1F0
1FFFE1F0
0FFF8000
01FC0000
ENDCHAR
STARTCHAR 00FA
ENCODING 250
SWIDTH 561 0
DWIDTH 39 0
BBX 28 54 5 -2
BITMAP
0001FE00
0001FC00
0003F800
0007F000
0007E000
000FC000
001F8000
001F0000
003E0000
007C0000
00000000
00000000
00000000
00000000
00000000
00000000
F80001F0
F80001F0
F80001F0
F80001F0
F80001F0
F80001F0
F80001F0
F80001F0
F80001F0
F80001F0
F80001F0
F80001F0
F80001F0
F80001F0
F80001F0
F80001F0
F80001F0
F80001F0
F80001F0
F80001F0
F80001F0
F80001F0
F80001F0
F80003F0
F80003F0
F80003F0
F80003F0
F80007F0
FC0007F0
FC000FF0
FE001FF0
FF003FF0
FFC0FDF0
7FFFF9F0
3FFFF1F0
1FFFE1F0
0FFF8000
01FC0000
ENDCHAR
STARTCHAR 00FB
ENCODING 251
SWIDTH 561 0
DWIDTH 39 0
BBX 28 54 5 -2
BITMAP
003FC000
003FC000
007FE000
007FF000
00F9F000
01F9F800
01F0F800
03E07C00
07C03E00
07801E00
0F800F00
00000000
00000000
00000000
00000000
00000000
F80001F0
F80001F0
F80001F0
F80001F0
F80001F0
F80001F0
F80001F0
F80001F0
F80001F0
F80001F0
F80001F0
F80001F0
F80001F0
F80001F0
F80001F0
F80001F0
F80001F0
F80001F0
F80001F0
F80001F0
F80001F0
F80001F0
F80001F0
F80003F0
F80003F0
F80003F0
F80003F0
F80007F0
FC0007F0
FC000FF0
FE001FF0
FF003FF0
FFC0FDF0
7FFFF9F0
3FFFF1F0
1FFFE1F0
0FFF8000
01FC0000
ENDCHAR
STARTCHAR 00FC
ENCODING 252
SWIDTH 561 0
DWIDTH 39 0
BBX 28 52 5 -2
BITMAP
07F0FE00
07F0FE00
07F0FE00
07F0FE00
07F0FE00
07F0FE00
07F0FE00
00000000
00000000
00000000
00000000
00000000
00000000
00000000
F80001F0
F80001F0
F80001F0
F80001F0
F80001F0
F80001F0
F80001F0
F80001F0
F80001F0
F80001F0
F80001F0
F80001F0
F80001F0
F80001F0
F80001F0
F80001F0
F80001F0
F80001F0
F80001F0
F80001F0
F80001F0
F80001F0
F80001F0
F80003F0
F80003F0
F80003F0
F80003F0
F80007F0
FC0007F0
FC000FF0
FE001FF0
FF003FF0
FFC0FDF0
7FFFF9F0
3FFFF1F0
1FFFE1F0
0FFF8000
01FC0000
ENDCHAR
STARTCHAR 00FD
ENCODING 253
SWIDTH 504 0
DWIDTH 35 0
BBX 31 67 2 -15
BITMAP
0000FF00
0000FE00
0001FC00
0001F800
0003F000
0007E000
0007E000
000FC000
000F8000
001F0000
003E0000
00000000
00000000
00000000
00000000
00000000
FC00007E
FC0000FE
FC0000FC
7E0000FC
7E0001FC
7E0001F8
3F0001F8
3F0003F0
3F0003F0
1F8003F0
1F8007E0
1F8007E0
0FC00FE0
0FC00FC0
0FC00FC0
07E01F80
07E01F80
07E01F80
03F03F00
03F03F00
03F03F00
01F87E00
01F87E00
01F8FC00
00FCFC00
00FCFC00
00FDF800
007FF800
007FF800
007FF000
003FF000
003FE000
003FE000
001FE000
001FC000
001FC000
000FC000
001F8000
001F8000
003F8000
003F0000
003F0000
007E0000
007E0000
00FE0000
3FFC0000
3FFC0000
3FF80000
3FF00000
3FE00000
1F800000
ENDCHAR
STARTCHAR 00FE
ENCODING 254
SWIDTH 561 0
DWIDTH 39 0
BBX 32 65 4 -16
BITMAP
FC000000
FC000000
FC000000
FC000000
FC000000
FC000000
FC000000
FC000000
FC000000
FC000000
FC000000
FC000000
FC07F800
FC3FFE00
FC7FFF80
FDFFFFC0
FFFFFFE0
FFFEFFF0
FFE00FF8
FFC003F8
FF8001FC
FF0001FC
FE0000FE
FE00007E
FE00007E
FC00007F
FC00003F
FC00003F
FC00003F
FC00003F
FC00003F
FC00003F
FC00003F
FC00003F
FC00003F
FC00003F
FC00003F
FC00007F
FE00007F
FE00007E
FF0000FE
FF0000FE
FF8001FC
FFC003FC
FFE00FF8
FFFE7FF0
FFFFFFE0
FDFFFFC0
FCFFFF80
FC3FFE00
FC07F800
FC000000
FC000000
FC000000
FC000000
FC000000
FC000000
FC000000
FC000000
FC000000
FC000000
FC000000
FC000000
FC000000
FC000000
ENDCHAR
STARTCHAR 00FF
ENCODING 255
SWIDTH 504 0
DWIDTH 35 0
BBX 31 65 2 -15
BITMAP
03F87F00
03F87F00
03F87F00
03F87F00
03F87F00
03F87F00
03F87F00
00000000
00000000
00000000
00000000
00000000
00000000
00000000
FC00007E
FC0000FE
FC0000FC
7E0000FC
7E0001FC
7E0001F8
3F0001F8
3F0003F0
3F0003F0
1F8003F0
1F8007E0
1F8007E0
0FC00FE0
0FC00FC0
0FC00FC0
07E01F80
07E01F80
07E01F80
03F03F00
03F03F00
03F03F00
01F87E00
01F87E00
01F8FC00
00FCFC00
00FCFC00
00FDF800
007FF800
007FF800
007FF000
003FF000
003FE000
003FE000
001FE000
001FC000
001FC000
000FC000
001F8000
001F8000
003F8000
003F0000
003F0000
007E0000
007E0000
00FE0000
3FFC0000
3FFC0000
3FF80000
3FF00000
3FE00000
1F800000
ENDCHAR
STARTCHAR 0100
ENCODING 256
SWIDTH 662 0
DWIDTH 46 0
BBX 44 63 1 0
BITMAP
0007FFFF0000
0007FFFF0000
0007FFFF0000
0007FFFF0000
0007FFFF0000
000000000000
000000000000
000000000000
000000000000
000000000000
000000000000
000000000000
00003FE00000
00003FE00000
00007FE00000
00007FF00000
00007FF00000
0000FFF00000
0000FFF80000
0000FDF80000
0001FDFC0000
0001F9FC0000
0001F8FC0000
0003F8FE0000
0003F0FE0000
0007F07E0000
0007F07F0000
0007E07F0000
000FE03F0000
000FE03F8000
000FC03F8000
001FC01F8000
001F801FC000
001F801FC000
003F800FC000
003F000FE000
003F000FE000
007F0007E000
007E0007F000
00FE0007F000
00FE0003F800
00FC0003F800
01FFFFFFF800
01FFFFFFFC00
01FFFFFFFC00
03FFFFFFFC00
03FFFFFFFE00
03F00000FE00
07F00000FE00
07F000007F00
07E000007F00
0FE000007F00
0FE000003F80
0FC000003F80
1FC000003F80
1FC000001FC0
3F8000001FC0
3F8000001FC0
3F8000000FE0
7F0000000FE0
7F0000000FE0
7F00000007F0
FE00000007F0
ENDCHAR
STARTCHAR 0101
ENCODING 257
SWIDTH 561 0
DWIDTH 39 0
BBX 34 50 3 -2
BITMAP
03FFFFC000
03FFFFC000
03FFFFC000
03FFFFC000
03FFFFC000
0000000000
0000000000
0000000000
0000000000
0000000000
0000000000
001FF80000
00FFFF8000
03FFFFC000
07FFFFE000
0FFFFFF000
1FFE7FF800
1FC007F800
3F8001FC00
3F0001FC00
3F0000FC00
3F0000FC00
3E0000FC00
000000FC00
000000FC00
000001FC00
000003FC00
00007FFC00
003FFFFC00
03FFFFFC00
07FFFFFC00
1FFFF8FC00
3FFC00FC00
7FC000FC00
7F0000FC00
7E0000FC00
FC0000FC00
FC0000FC00
FC0000FC00
FC0000FC00
FC0001FC00
FC0003FC00
FE0007FC00
7F001FFC00
7FC07FFE00
3FFFFEFFC0
1FFFFC7FC0
0FFFF87FC0
07FFE03FC0
00FF001FC0
ENDCHAR
STARTCHAR 0102
ENCODING 258
SWIDTH 662 0
DWIDTH 46 0
BBX 44 65 1 0
BITMAP
000F00078000
000F000F8000
000F801F0000
000FE03F0000
0007FFFE0000
0003FFFE0000
0001FFFC0000
0000FFF80000
00003FC00000
000000000000
000000000000
000000000000
000000000000
000000000000
00003FE00000
00003FE00000
00007FE00000
00007FF00000
00007FF00000
0000FFF00000
0000FFF80000
0000FDF80000
0001FDFC0000
0001F9FC0000
0001F8FC0000
0003F8FE0000
0003F0FE0000
0007F07E0000
0007F07F0000
0007E07F0000
000FE03F0000
000FE03F8000
000FC03F8000
001FC01F8000
001F801FC000
001F801FC000
003F800FC000
003F000FE000
003F000FE000
007F0007E000
007E0007F000
00FE0007F000
00FE0003F800
00FC0003F800
01FFFFFFF800
01FFFFFFFC00
01FFFFFFFC00
03FFFFFFFC00
03FFFFFFFE00
03F00000FE00
07F00000FE00
07F000007F00
07E000007F00
0FE000007F00
0FE000003F80
0FC000003F80
1FC000003F80
1FC000001FC0
3F8000001FC0
3F8000001FC0
3F8000000FE0
7F0000000FE0
7F0000000FE0
7F00000007F0
FE00000007F0
ENDCHAR
STARTCHAR 0103
ENCODING 259
SWIDTH 561 0
DWIDTH 39 0
BBX 34 53 3 -2
BITMAP
03C003E000
03C003C000
03E003C000
03E007C000
03F81FC000
01FFFF8000
00FFFF0000
007FFE0000
003FFC0000
0007E00000
0000000000
0000000000
0000000000
0000000000
001FF80000
00FFFF8000
03FFFFC000
07FFFFE000
0FFFFFF000
1FFE7FF800
1FC007F800
3F8001FC00
3F0001FC00
3F0000FC00
3F0000FC00
3E0000FC00
000000FC00
000000FC00
000001FC00
000003FC00
00007FFC00
003FFFFC00
03FFFFFC00
07FFFFFC00
1FFFF8FC00
3FFC00FC00
7FC000FC00
7F0000FC00
7E0000FC00
FC0000FC00
FC0000FC00
FC0000FC00
FC0000FC00
FC0001FC00
FC0003FC00
FE0007FC00
7F001FFC00
7FC07FFE00
3FFFFEFFC0
1FFFFC7FC0
0FFFF87FC0
07FFE03FC0
00FF001FC0
ENDCHAR
STARTCHAR 0104
ENCODING 260
SWIDTH 662 0
DWIDTH 46 0
BBX 47 65 1 -14
BITMAP
00003FE00000
00003FE00000
00007FE00000
00007FF00000
00007FF00000
0000FFF00000
0000FFF80000
0000FDF80000
0001FDFC0000
0001F9FC0000
0001F8FC0000
0003F8FE0000
0003F0FE0000
0007F07E0000
0007F07F0000
0007E07F0000
000FE03F0000
000FE03F8000
000FC03F8000
001FC01F8000
001F801FC000
001F801FC000
003F800FC000
003F000FE000
003F000FE000
007F0007E000
007E0007F000
00FE0007F000
00FE0003F800
00FC0003F800
01FFFFFFF800
01FFFFFFFC00
01FFFFFFFC00
03FFFFFFFC00
03FFFFFFFE00
03F00000FE00
07F00000FE00
07F000007F00
07E000007F00
0FE000007F00
0FE000003F80
0FC000003F80
1FC000003F80
1FC000001FC0
3F8000001FC0
3F8000001FC0
3F8000000FE0
7F0000000FE0
7F0000000FE0
7F00000007F0
FE00000007F0
0000000001E0
0000000007C0
000000001F00
000000003E00
000000007C00
000000007C00
000000007C00
000000007C00
000000007C00
000000007C00
000000007F02
000000003FFE
000000001FFE
0000000003FE
ENDCHAR
STARTCHAR 0105
ENCODING 261
SWIDTH 561 0
DWIDTH 39 0
BBX 38 52 3 -15
BITMAP
001FF80000
00FFFF8000
03FFFFC000
07FFFFF000
0FFFFFF000
1FFE7FF800
1FC003F800
3F8001FC00
3F0000FC00
3F0000FC00
3F0000FC00
3F0000FC00
000000FC00
000000FC00
000001FC00
000003FC00
00007FFC00
003FFFFC00
01FFFFFC00
07FFFFFC00
1FFFF8FC00
3FFC00FC00
3FC000FC00
7F0000FC00
7E0000FC00
FC0000FC00
FC0000FC00
FC0000FC00
FC0000FC00
FC0001FC00
FC0003FC00
FE0007FC00
7F001FFC00
7FC07FFE00
3FFFFEFFC0
1FFFFC7FC0
0FFFF87FC0
07FFE03FC0
00FF001FC0
0000000F00
0000003E00
0000007C00
0000007800
000000F800
000000F800
000000F800
000000F800
000000FC00
0000007E04
0000003FFC
0000001FFC
00000003F8
ENDCHAR
STARTCHAR 0106
ENCODING 262
SWIDTH 720 0
DWIDTH 50 0
BBX 44 68 3 -2
BITMAP
0000007F8000
000000FF0000
000000FE0000
000001FC0000
000003F80000
000003F00000
000007E00000
00000FC00000
00000F800000
00001F000000
00001E000000
000000000000
000000000000
000000000000
00003FF80000
0001FFFF0000
000FFFFFC000
001FFFFFF000
007FFFFFF800
00FFFFFFFC00
01FFC00FFE00
03FE0001FF00
03FC0000FF00
07F800007F80
0FF000003F80
0FE000001FC0
1FC000001FC0
1FC000000FC0
1F8000000FE0
3F8000000FE0
3F0000000FE0
3F0000000000
7F0000000000
7F0000000000
7E0000000000
7E0000000000
7E0000000000
7E0000000000
FE0000000000
FE0000000000
FE0000000000
FE0000000000
FE0000000000
FE0000000000
FE0000000000
7E0000000000
7E0000000000
7E0000000000
7F00000007F0
7F00000007F0
7F00000007F0
3F80000007E0
3F8000000FE0
3F8000000FE0
1FC000000FE0
1FE000001FC0
0FE000001FC0
0FF000003F80
07F800007F80
07FC0000FF00
03FF0001FF00
01FFC00FFE00
00FFFFFFFC00
007FFFFFF800
003FFFFFF000
000FFFFFC000
0003FFFF0000
00003FF00000
ENDCHAR
STARTCHAR 0107
ENCODING 263
SWIDTH 504 0
DWIDTH 35 0
BBX 31 54 2 -2
BITMAP
00003FC0
00003F80
00007F00
00007E00
0000FC00
0001F800
0001F000
0003E000
0003E000
0007C000
000F8000
00000000
00000000
00000000
00000000
000FF800
003FFE00
00FFFF80
03FFFFE0
07FFFFF0
0FFE3FF0
0FF007F8
1FC003F8
1F8001FC
3F8000FC
3F0000FC
7F0000FE
7E00007E
7E000000
7E000000
FE000000
FC000000
FC000000
FC000000
FC000000
FC000000
FC000000
FC000000
FE000000
7E000000
7E00007E
7E00007E
7F00007E
3F0000FE
3F8000FC
3F8001FC
1FC003F8
1FF007F8
0FFE3FF0
07FFFFE0
03FFFFC0
01FFFF80
007FFE00
000FF000
ENDCHAR
STARTCHAR 0108
ENCODING 264
SWIDTH 720 0
DWIDTH 50 0
BBX 44 68 3 -2
BITMAP
00001FC00000
00001FE00000
00003FF00000
00003FF00000
00007DF80000
0000FCFC0000
0000F87C0000
0001F03E0000
0003E01F0000
0003C00F0000
0007C00F8000
000000000000
000000000000
000000000000
00003FF80000
0001FFFF0000
000FFFFFC000
001FFFFFF000
007FFFFFF800
00FFFFFFFC00
01FFC00FFE00
03FE0001FF00
03FC0000FF00
07F800007F80
0FF000003F80
0FE000001FC0
1FC000001FC0
1FC000000FC0
1F8000000FE0
3F8000000FE0
3F0000000FE0
3F0000000000
7F0000000000
7F0000000000
7E0000000000
7E0000000000
7E0000000000
7E0000000000
FE0000000000
FE0000000000
FE0000000000
FE0000000000
FE0000000000
FE0000000000
FE0000000000
7E0000000000
7E0000000000
7E0000000000
7F00000007F0
7F00000007F0
7F00000007F0
3F80000007E0
3F8000000FE0
3F8000000FE0
1FC000000FE0
1FE000001FC0
0FE000001FC0
0FF000003F80
07F800007F80
07FC0000FF00
03FF0001FF00
01FFC00FFE00
00FFFFFFFC00
007FFFFFF800
003FFFFFF000
000FFFFFC000
0003FFFF0000
00003FF00000
ENDCHAR
STARTCHAR 0109
ENCODING 265
SWIDTH 504 0
DWIDTH 35 0
BBX 31 54 2 -2
BITMAP
0007F000
000FF800
000FF800
001FFC00
001F7E00
003E3E00
007E1F00
007C1F00
00F80F80
00F007C0
01F003C0
00000000
00000000
00000000
00000000
000FF800
003FFE00
00FFFF80
03FFFFE0
07FFFFF0
0FFE3FF0
0FF007F8
1FC003F8
1F8001FC
3F8000FC
3F0000FC
7F0000FE
7E00007E
7E000000
7E000000
FE000000
FC000000
FC000000
FC000000
FC000000
FC000000
FC000000
FC000000
FE000000
7E000000
7E00007E
7E00007E
7F00007E
3F0000FE
3F8000FC
3F8001FC
1FC003F8
1FF007F8
0FFE3FF0
07FFFFE0
03FFFFC0
01FFFF80
007FFE00
000FF000
ENDCHAR
STARTCHAR 010A
ENCODING 266
SWIDTH 720 0
DWIDTH 50 0
BBX 44 66 3 -2
BITMAP
00000FE00000
00000FE00000
00000FE00000
00000FE00000
00000FE00000
00000FE00000
00000FE00000
000000000000
000000000000
000000000000
000000000000
000000000000
00003FF80000
0001FFFF0000
000FFFFFC000
001FFFFFF000
007FFFFFF800
00FFFFFFFC00
01FFC00FFE00
03FE0001FF00
03FC0000FF00
07F800007F80
0FF000003F80
0FE000001FC0
1FC000001FC0
1FC000000FC0
1F8000000FE0
3F8000000FE0
3F0000000FE0
3F0000000000
7F0000000000
7F0000000000
7E0000000000
7E0000000000
7E0000000000
7E0000000000
FE0000000000
FE0000000000
FE0000000000
FE0000000000
FE0000000000
FE0000000000
FE0000000000
7E0000000000
7E0000000000
7E0000000000
7F00000007F0
7F00000007F0
7F00000007F0
3F80000007E0
3F8000000FE0
3F8000000FE0
1FC000000FE0
1FE000001FC0
0FE000001FC0
0FF000003F80
07F800007F80
07FC0000FF00
03FF0001FF00
01FFC00FFE00
00FFFFFFFC00
007FFFFFF800
003FFFFFF000
000FFFFFC000
0003FFFF0000
00003FF00000
ENDCHAR
STARTCHAR 010B
ENCODING 267
SWIDTH 504 0
DWIDTH 35 0
BBX 31 52 2 -2
BITMAP
0007F000
0007F000
0007F000
0007F000
0007F000
0007F000
0007F000
00000000
00000000
00000000
00000000
00000000
00000000
000FF800
003FFE00
00FFFF80
03FFFFE0
07FFFFF0
0FFE3FF0
0FF007F8
1FC003F8
1F8001FC
3F8000FC
3F0000FC
7F0000FE
7E00007E
7E000000
7E000000
FE000000
FC000000
FC000000
FC000000
FC000000
FC000000
FC000000
FC000000
FE000000
7E000000
7E00007E
7E00007E
7F00007E
3F0000FE
3F8000FC
3F8001FC
1FC003F8
1FF007F8
0FFE3FF0
07FFFFE0
03FFFFC0
01FFFF80
007FFE00
000FF000
ENDCHAR
STARTCHAR 010C
ENCODING 268
SWIDTH 720 0
DWIDTH 50 0
BBX 44 68 3 -2
BITMAP
0003C0078000
0003E00F8000
0001F01F0000
0000F83E0000
0000FC7E0000
00007C7C0000
00003EF80000
00003FF80000
00001FF00000
00001FE00000
00000FE00000
000000000000
000000000000
000000000000
00003FF80000
0001FFFF0000
000FFFFFC000
001FFFFFF000
007FFFFFF800
00FFFFFFFC00
01FFC00FFE00
03FE0001FF00
03FC0000FF00
07F800007F80
0FF000003F80
0FE000001FC0
1FC000001FC0
1FC000000FC0
1F8000000FE0
3F8000000FE0
3F0000000FE0
3F0000000000
7F0000000000
7F0000000000
7E0000000000
7E0000000000
7E0000000000
7E0000000000
FE0000000000
FE0000000000
FE0000000000
FE0000000000
FE0000000000
FE0000000000
FE0000000000
7E0000000000
7E0000000000
7E0000000000
7F00000007F0
7F00000007F0
7F00000007F0
3F80000007E0
3F8000000FE0
3F8000000FE0
1FC000000FE0
1FE000001FC0
0FE000001FC0
0FF000003F80
07F800007F80
07FC0000FF00
03FF0001FF00
01FFC00FFE00
00FFFFFFFC00
007FFFFFF800
003FFFFFF000
000FFFFFC000
0003FFFF0000
00003FF00000
ENDCHAR
STARTCHAR 010D
ENCODING 269
SWIDTH 504 0
DWIDTH 35 0
BBX 31 54 2 -2
BITMAP
01E003C0
01F00780
00F80F80
007C1F00
007C3F00
003E3E00
003F7E00
001FFC00
000FF800
000FF800
0007F000
00000000
00000000
00000000
00000000
000FF800
003FFE00
00FFFF80
03FFFFE0
07FFFFF0
0FFE3FF0
0FF007F8
1FC003F8
1F8001FC
3F8000FC
3F0000FC
7F0000FE
7E00007E
7E000000
7E000000
FE000000
FC000000
FC000000
FC000000
FC000000
FC000000
FC000000
FC000000
FE000000
7E000000
7E00007E
7E00007E
7F00007E
3F0000FE
3F8000FC
3F8001FC
1FC003F8
1FF007F8
0FFE3FF0
07FFFFE0
03FFFFC0
01FFFF80
007FFE00
000FF000
ENDCHAR
STARTCHAR 010E
ENCODING 270
SWIDTH 720 0
DWIDTH 50 0
BBX 40 66 6 0
BITMAP
00F001E000
00F803E000
007C07C000
003E0F8000
003E0F8000
001F1F0000
001FBF0000
000FFE0000
0007FC0000
0007FC0000
0003F80000
0000000000
0000000000
0000000000
0000000000
FFFFFF8000
FFFFFFF000
FFFFFFFC00
FFFFFFFE00
FFFFFFFF80
FFFFFFFFC0
FE0000FFE0
FE00003FE0
FE00000FF0
FE000007F8
FE000003F8
FE000001FC
FE000001FC
FE000000FE
FE000000FE
FE000000FE
FE0000007E
FE0000007F
FE0000007F
FE0000007F
FE0000003F
FE0000003F
FE0000003F
FE0000003F
FE0000003F
FE0000003F
FE0000003F
FE0000003F
FE0000003F
FE0000003F
FE0000003F
FE0000007F
FE0000007F
FE0000007F
FE0000007E
FE000000FE
FE000000FE
FE000000FC
FE000001FC
FE000001FC
FE000003F8
FE000007F8
FE00000FF0
FE00003FE0
FE0000FFE0
FFFFFFFFC0
FFFFFFFF80
FFFFFFFE00
FFFFFFFC00
FFFFFFF000
FFFFFF0000
ENDCHAR
STARTCHAR 010F
ENCODING 271
SWIDTH 648 0
DWIDTH 45 0
BBX 43 53 2 -2
BITMAP
0000001F0FE0
0000001F0FE0
0000001F0FE0
0000001F0FE0
0000001F0FE0
0000001F0FE0
0000001F0FE0
0000001F00E0
0000001F00E0
0000001F00E0
0000001F00E0
0000001F01C0
0000001F01C0
0000001F0780
000FE01F0F80
007FFC1F0F00
01FFFF1F0000
03FFFF9F0000
07FFFFDF0000
0FFF7FFF0000
1FF007FF0000
1FC003FF0000
3F8001FF0000
3F8000FF0000
7F00007F0000
7E00007F0000
7E00003F0000
FE00003F0000
FC00003F0000
FC00003F0000
FC00003F0000
FC00001F0000
FC00001F0000
FC00001F0000
FC00001F0000
FC00001F0000
FC00003F0000
FC00003F0000
FC00003F0000
FE00003F0000
7E00003F0000
7F00007F0000
7F00007F0000
3F8000FF0000
3F8001FF0000
1FE003FF0000
1FF007FF0000
0FFF7FFF0000
07FFFFDF0000
03FFFF9F0000
01FFFF1F0000
007FFC000000
001FF0000000
ENDCHAR
STARTCHAR 0110
ENCODING 272
SWIDTH 720 0
DWIDTH 50 0
BBX 45 51 1 0
BITMAP
07FFFFFC0000
07FFFFFF8000
07FFFFFFE000
07FFFFFFF800
07FFFFFFFC00
07FFFFFFFE00
07F00007FF00
07F00001FF00
07F000007F80
07F000003FC0
07F000001FC0
07F000000FE0
07F000000FE0
07F0000007F0
07F0000007F0
07F0000003F0
07F0000003F0
07F0000003F8
07F0000003F8
07F0000003F8
07F0000001F8
07F0000001F8
FFFFFF0001F8
FFFFFF0001F8
FFFFFF0001F8
FFFFFF0001F8
FFFFFF0001F8
07F0000001F8
07F0000001F8
07F0000001F8
07F0000001F8
07F0000003F8
07F0000003F8
07F0000003F8
07F0000003F0
07F0000007F0
07F0000007F0
07F0000007E0
07F000000FE0
07F000000FE0
07F000001FC0
07F000003FC0
07F000007F80
07F00001FF00
07F00007FF00
07FFFFFFFE00
07FFFFFFFC00
07FFFFFFF000
07FFFFFFE000
07FFFFFF8000
07FFFFF80000
ENDCHAR
STARTCHAR 0111
ENCODING 273
SWIDTH 561 0
DWIDTH 39 0
BBX 37 53 2 -2
BITMAP
0000001F00
0000001F00
0000001F00
0000001F00
0000001F00
0000001F00
0000FFFFF8
0000FFFFF8
0000FFFFF8
0000FFFFF8
0000001F00
0000001F00
0000001F00
0000001F00
000FE01F00
007FFC1F00
01FFFF1F00
03FFFF9F00
07FFFFDF00
0FFFFFFF00
1FF00FFF00
1FE003FF00
3FC001FF00
3F8000FF00
7F0000FF00
7E00007F00
7E00007F00
FE00003F00
FC00003F00
FC00003F00
FC00003F00
FC00003F00
FC00001F00
FC00001F00
FC00001F00
FC00003F00
FC00003F00
FC00003F00
FC00003F00
FE00003F00
7E00007F00
7F00007F00
7F0000FF00
3F8000FF00
3FC001FF00
1FE003FF00
1FF80FFF00
0FFFFFFF00
07FFFFDF00
03FFFF9F00
01FFFF1F00
007FFC0000
000FE00000
ENDCHAR
STARTCHAR 0112
ENCODING 274
SWIDTH 662 0
DWIDTH 46 0
BBX 37 63 6 0
BITMAP
00FFFFE000
00FFFFE000
00FFFFE000
00FFFFE000
00FFFFE000
0000000000
0000000000
0000000000
0000000000
0000000000
0000000000
0000000000
FFFFFFFFE0
FFFFFFFFE0
FFFFFFFFE0
FFFFFFFFE0
FFFFFFFFE0
FFFFFFFFE0
FE00000000
FE00000000
FE00000000
FE00000000
FE00000000
FE00000000
FE00000000
FE00000000
FE00000000
FE00000000
FE00000000
FE00000000
FE00000000
FE00000000
FE00000000
FE00000000
FFFFFFFFC0
FFFFFFFFC0
FFFFFFFFC0
FFFFFFFFC0
FFFFFFFFC0
FFFFFFFFC0
FE00000000
FE00000000
FE00000000
FE00000000
FE00000000
FE00000000
FE00000000
FE00000000
FE00000000
FE00000000
FE00000000
FE00000000
FE00000000
FE00000000
FE00000000
FE00000000
FE00000000
FFFFFFFFF8
FFFFFFFFF8
FFFFFFFFF8
FFFFFFFFF8
FFFFFFFFF8
FFFFFFFFF8
ENDCHAR
STARTCHAR 0113
ENCODING 275
SWIDTH 561 0
DWIDTH 39 0
BBX 33 50 3 -2
BITMAP
01FFFFC000
01FFFFC000
01FFFFC000
01FFFFC000
01FFFFC000
0000000000
0000000000
0000000000
0000000000
0000000000
0000000000
000FF80000
007FFF0000
00FFFF8000
03FFFFE000
07FFFFF000
0FFE3FF800
1FF007FC00
1FC001FC00
3F8000FE00
3F0000FE00
7F00007F00
7E00007F00
7E00003F00
FC00003F00
FC00003F00
FC00003F00
FFFFFFFF80
FFFFFFFF80
FFFFFFFF80
FFFFFFFF80
FFFFFFFF80
FC00000000
FC00000000
FC00000000
FC00000000
FC00000000
7E00003F00
7E00003F00
7F00007E00
3F00007E00
3F8000FE00
1FC001FC00
1FF007F800
0FFE3FF800
07FFFFF000
03FFFFE000
01FFFF8000
007FFF0000
000FF80000
ENDCHAR
STARTCHAR 0114
ENCODING 276
SWIDTH 662 0
DWIDTH 46 0
BBX 37 65 6 0
BITMAP
00F000F000
00F000F000
00F801F000
00FC03F000
007FFFE000
007FFFC000
003FFF8000
000FFF0000
0003FC0000
0000000000
0000000000
0000000000
0000000000
0000000000
FFFFFFFFE0
FFFFFFFFE0
FFFFFFFFE0
FFFFFFFFE0
FFFFFFFFE0
FFFFFFFFE0
FE00000000
FE00000000
FE00000000
FE00000000
FE00000000
FE00000000
FE00000000
FE00000000
FE00000000
FE00000000
FE00000000
FE00000000
FE00000000
FE00000000
FE00000000
FE00000000
FFFFFFFFC0
FFFFFFFFC0
FFFFFFFFC0
FFFFFFFFC0
FFFFFFFFC0
FFFFFFFFC0
FE00000000
FE00000000
FE00000000
FE00000000
FE00000000
FE00000000
FE00000000
FE00000000
FE00000000
FE00000000
FE00000000
FE00000000
FE00000000
FE00000000
FE00000000
FE00000000
FE00000000
FFFFFFFFF8
FFFFFFFFF8
FFFFFFFFF8
FFFFFFFFF8
FFFFFFFFF8
FFFFFFFFF8
ENDCHAR
STARTCHAR 0115
ENCODING 277
SWIDTH 561 0
DWIDTH 39 0
BBX 33 53 3 -2
BITMAP
03E001E000
01E001E000
01E003E000
01F003E000
01FC0FC000
00FFFFC000
00FFFF8000
007FFF0000
001FFE0000
0003F00000
0000000000
0000000000
0000000000
0000000000
000FF80000
007FFF0000
00FFFF8000
03FFFFE000
07FFFFF000
0FFE3FF800
1FF007FC00
1FC001FC00
3F8000FE00
3F0000FE00
7F00007F00
7E00007F00
7E00003F00
FC00003F00
FC00003F00
FC00003F00
FFFFFFFF80
FFFFFFFF80
FFFFFFFF80
FFFFFFFF80
FFFFFFFF80
FC00000000
FC00000000
FC00000000
FC00000000
FC00000000
7E00003F00
7E00003F00
7F00007E00
3F00007E00
3F8000FE00
1FC001FC00
1FF007F800
0FFE3FF800
07FFFFF000
03FFFFE000
01FFFF8000
007FFF0000
000FF80000
ENDCHAR
STARTCHAR 0116
ENCODING 278
SWIDTH 662 0
DWIDTH 46 0
BBX 37 64 6 0
BITMAP
0003FC0000
0003FC0000
0003FC0000
0003FC0000
0003FC0000
0003FC0000
0003FC0000
0000000000
0000000000
0000000000
0000000000
0000000000
0000000000
FFFFFFFFE0
FFFFFFFFE0
FFFFFFFFE0
FFFFFFFFE0
FFFFFFFFE0
FFFFFFFFE0
FE00000000
FE00000000
FE00000000
FE00000000
FE00000000
FE00000000
FE00000000
FE00000000
FE00000000
FE00000000
FE00000000
FE00000000
FE00000000
FE00000000
FE00000000
FE00000000
FFFFFFFFC0
FFFFFFFFC0
FFFFFFFFC0
FFFFFFFFC0
FFFFFFFFC0
FFFFFFFFC0
FE00000000
FE00000000
FE00000000
FE00000000
FE00000000
FE00000000
FE00000000
FE00000000
FE00000000
FE00000000
FE00000000
FE00000000
FE00000000
FE00000000
FE00000000
FE00000000
FE00000000
FFFFFFFFF8
FFFFFFFFF8
FFFFFFFFF8
FFFFFFFFF8
FFFFFFFFF8
FFFFFFFFF8
ENDCHAR
STARTCHAR 0117
ENCODING 279
SWIDTH 561 0
DWIDTH 39 0
BBX 33 52 3 -2
BITMAP
0007F00000
0007F00000
0007F00000
0007F00000
0007F00000
0007F00000
0007F00000
0000000000
0000000000
0000000000
0000000000
0000000000
0000000000
000FF80000
007FFF0000
00FFFF8000
03FFFFE000
07FFFFF000
0FFE3FF800
1FF007FC00
1FC001FC00
3F8000FE00
3F0000FE00
7F00007F00
7E00007F00
7E00003F00
FC00003F00
FC00003F00
FC00003F00
FFFFFFFF80
FFFFFFFF80
FFFFFFFF80
FFFFFFFF80
FFFFFFFF80
FC00000000
FC00000000
FC00000000
FC00000000
FC00000000
7E00003F00
7E00003F00
7F00007E00
3F00007E00
3F8000FE00
1FC001FC00
1FF007F800
0FFE3FF800
07FFFFF000
03FFFFE000
01FFFF8000
007FFF0000
000FF80000
ENDCHAR
STARTCHAR 0118
ENCODING 280
SWIDTH 662 0
DWIDTH 46 0
BBX 39 65 6 -14
BITMAP
FFFFFFFFE0
FFFFFFFFE0
FFFFFFFFE0
FFFFFFFFE0
FFFFFFFFE0
FFFFFFFFE0
FE00000000
FE00000000
FE00000000
FE00000000
FE00000000
FE00000000
FE00000000
FE00000000
FE00000000
FE00000000
FE00000000
FE00000000
FE00000000
FE00000000
FE00000000
FE00000000
FFFFFFFFC0
FFFFFFFFC0
FFFFFFFFC0
FFFFFFFFC0
FFFFFFFFC0
FFFFFFFFC0
FE00000000
FE00000000
FE00000000
FE00000000
FE00000000
FE00000000
FE00000000
FE00000000
FE00000000
FE00000000
FE00000000
FE00000000
FE00000000
FE00000000
FE00000000
FE00000000
FE00000000
FFFFFFFFF8
FFFFFFFFF8
FFFFFFFFF8
FFFFFFFFF8
FFFFFFFFF8
FFFFFFFFF8
00000001F0
00000007C0
0000001F00
0000003E00
0000003E00
0000007C00
0000007C00
0000007C00
0000007C00
0000007E00
0000003F00
0000003FFE
0000000FFE
00000003FE
ENDCHAR
STARTCHAR 0119
ENCODING 281
SWIDTH 561 0
DWIDTH 39 0
BBX 33 52 3 -15
BITMAP
000FF80000
007FFF0000
00FFFF8000
03FFFFE000
07FFFFF000
0FFE3FF800
1FF007FC00
1FC001FC00
3F8000FE00
3F0000FE00
7F00007F00
7E00003F00
7E00003F00
FC00003F00
FC00003F00
FC00003F80
FFFFFFFF80
FFFFFFFF80
FFFFFFFF80
FFFFFFFF80
FFFFFFFF80
FC00000000
FC00000000
FC00000000
FC00000000
FC00000000
7E00003F00
7E00003F00
7F00007E00
3F00007E00
3F8000FE00
1FC001FC00
1FF007F800
0FFE3FF800
07FFFFF000
03FFFFE000
01FFFFC000
007FFF8000
000FFF0000
00000F0000
00001E0000
00003C0000
00007C0000
00007C0000
0000780000
0000F80000
0000FC0000
00007C0000
00007F0200
00003FFE00
00001FFE00
000003FC00
ENDCHAR
STARTCHAR 011A
ENCODING 282
SWIDTH 662 0
DWIDTH 46 0
BBX 37 66 6 0
BITMAP
00F801F000
007801E000
007C03E000
003E07C000
001F0F8000
001F9F8000
000FFF0000
0007FE0000
0007FE0000
0003FC0000
0001F80000
0000000000
0000000000
0000000000
0000000000
FFFFFFFFE0
FFFFFFFFE0
FFFFFFFFE0
FFFFFFFFE0
FFFFFFFFE0
FFFFFFFFE0
FE00000000
FE00000000
FE00000000
FE00000000
FE00000000
FE00000000
FE00000000
FE00000000
FE00000000
FE00000000
FE00000000
FE00000000
FE00000000
FE00000000
FE00000000
FE00000000
FFFFFFFFC0
FFFFFFFFC0
FFFFFFFFC0
FFFFFFFFC0
FFFFFFFFC0
FFFFFFFFC0
FE00000000
FE00000000
FE00000000
FE00000000
FE00000000
FE00000000
FE00000000
FE00000000
FE00000000
FE00000000
FE00000000
FE00000000
FE00000000
FE00000000
FE00000000
FE00000000
FE00000000
FFFFFFFFF8
FFFFFFFFF8
FFFFFFFFF8
FFFFFFFFF8
FFFFFFFFF8
FFFFFFFFF8
ENDCHAR
STARTCHAR 011B
ENCODING 283
SWIDTH 561 0
DWIDTH 39 0
BBX 33 54 3 -2
BITMAP
01F003E000
00F807C000
00F80F8000
007C0F8000
003E1F0000
003F3F0000
001F7E0000
001FFC0000
000FFC0000
0007F80000
0007F80000
0000000000
0000000000
0000000000
0000000000
000FF80000
007FFF0000
00FFFF8000
03FFFFE000
07FFFFF000
0FFE3FF800
1FF007FC00
1FC001FC00
3F8000FE00
3F0000FE00
7F00007F00
7E00007F00
7E00003F00
FC00003F00
FC00003F00
FC00003F00
FFFFFFFF80
FFFFFFFF80
FFFFFFFF80
FFFFFFFF80
FFFFFFFF80
FC00000000
FC00000000
FC00000000
FC00000000
FC00000000
7E00003F00
7E00003F00
7F00007E00
3F00007E00
3F8000FE00
1FC001FC00
1FF007F800
0FFE3FF800
07FFFFF000
03FFFFE000
01FFFF8000
007FFF0000
000FF80000
ENDCHAR
STARTCHAR 011C
ENCODING 284
SWIDTH 777 0
DWIDTH 54 0
BBX 46 68 3 -2
BITMAP
00000FE00000
00000FF00000
00001FF80000
00003FF80000
00003EFC0000
00007E7C0000
0000FC3E0000
0000F81F0000
0001F00F0000
0001E00F8000
0003C007C000
000000000000
000000000000
000000000000
00001FFC0000
0001FFFFC000
0007FFFFF000
001FFFFFFC00
003FFFFFFE00
007FFFFFFF00
00FFE003FF80
01FF0000FFC0
03FE00003FE0
07F800001FE0
0FF000000FF0
0FE0000007F0
1FE0000007F8
1FC0000003F8
3F80000003F8
3F80000001F8
3F00000001FC
7F0000000000
7F0000000000
7E0000000000
7E0000000000
7E0000000000
FE0000000000
FE0000000000
FE0000000000
FE00007FFFFC
FE00007FFFFC
FE00007FFFFC
FE00007FFFFC
FE00007FFFFC
FE00007FFFFC
FE000000007C
FE000000007C
7E000000007C
7F00000000FC
7F00000000FC
7F00000000FC
3F80000000FC
3F80000000FC
3F80000001FC
1FC0000001FC
1FE0000003FC
0FE0000007FC
0FF000000FFC
07F800001FFC
03FE00003FFC
03FF8000FF7C
01FFE003FE7C
00FFFFFFFC7C
003FFFFFF87C
001FFFFFE03C
0007FFFFC03C
0001FFFE003C
00003FF00000
ENDCHAR
STARTCHAR 011D
ENCODING 285
SWIDTH 561 0
DWIDTH 39 0
BBX 31 68 2 -16
BITMAP
0007F000
0007F800
000FFC00
000FFC00
001F7E00
003F3F00
003E1F00
007C0F80
00F80F80
00F807C0
01F003E0
00000000
00000000
00000000
00000000
000FE000
007FF83E
00FFFE3E
01FFFF3E
03FFFFBE
07FE7FFE
0FF00FFE
1FC003FE
1F8001FE
3F8001FE
3F0000FE
3F0000FE
7E00007E
7E00007E
7E00007E
7E00007E
7E00007E
7E00007E
FE00007E
FC00007E
FE00007E
FE00007E
7E00007E
7E00007E
7E00007E
7E00007E
7E00007E
7F0000FE
3F0000FE
3F8001FE
1F8001FE
1FC003FE
0FF00FFE
07FE7FFE
07FFFF7E
03FFFE7E
00FFFC7E
007FF87E
000FC07E
0000007E
0000007E
0000007E
3F0000FC
3F0000FC
3F0000FC
3F8001F8
1FC003F8
0FF00FF0
0FFFFFE0
07FFFFC0
01FFFF80
00FFFE00
000FE000
ENDCHAR
STARTCHAR 011E
ENCODING 286
SWIDTH 777 0
DWIDTH 54 0
BBX 46 67 3 -2
BITMAP
0003E001E000
0003E001E000
0001F003E000
0001F807C000
0001FFFFC000
0000FFFF8000
00007FFF0000
00003FFE0000
000007F00000
000000000000
000000000000
000000000000
000000000000
00001FFC0000
0001FFFFC000
0007FFFFF000
001FFFFFFC00
003FFFFFFE00
007FFFFFFF00
00FFE003FF80
01FF0000FFC0
03FE00003FE0
07F800001FE0
0FF000000FF0
0FE0000007F0
1FE0000007F8
1FC0000003F8
3F80000003F8
3F80000001F8
3F00000001FC
7F0000000000
7F0000000000
7E0000000000
7E0000000000
7E0000000000
FE0000000000
FE0000000000
FE0000000000
FE00007FFFFC
FE00007FFFFC
FE00007FFFFC
FE00007FFFFC
FE00007FFFFC
FE00007FFFFC
FE000000007C
FE000000007C
7E000000007C
7F00000000FC
7F00000000FC
7F00000000FC
3F80000000FC
3F80000000FC
3F80000001FC
1FC0000001FC
1FE0000003FC
0FE0000007FC
0FF000000FFC
07F800001FFC
03FE00003FFC
03FF8000FF7C
01FFE003FE7C
00FFFFFFFC7C
003FFFFFF87C
001FFFFFE03C
0007FFFFC03C
0001FFFE003C
00003FF00000
ENDCHAR
STARTCHAR 011F
ENCODING 287
SWIDTH 561 0
DWIDTH 39 0
BBX 31 67 2 -16
BITMAP
03C001E0
03E001E0
03E003E0
01F007E0
01FC0FC0
00FFFFC0
00FFFF80
007FFF00
001FFE00
0003F000
00000000
00000000
00000000
00000000
000FE000
007FF83E
00FFFE3E
01FFFF3E
03FFFFBE
07FE7FFE
0FF00FFE
1FC003FE
1F8001FE
3F8001FE
3F0000FE
3F0000FE
7E00007E
7E00007E
7E00007E
7E00007E
7E00007E
7E00007E
FE00007E
FC00007E
FE00007E
FE00007E
7E00007E
7E00007E
7E00007E
7E00007E
7E00007E
7F0000FE
3F0000FE
3F8001FE
1F8001FE
1FC003FE
0FF00FFE
07FE7FFE
07FFFF7E
03FFFE7E
00FFFC7E
007FF87E
000FC07E
0000007E
0000007E
0000007E
3F0000FC
3F0000FC
3F0000FC
3F8001F8
1FC003F8
0FF00FF0
0FFFFFE0
07FFFFC0
01FFFF80
00FFFE00
000FE000
ENDCHAR
STARTCHAR 0120
ENCODING 288
SWIDTH 777 0
DWIDTH 54 0
BBX 46 66 3 -2
BITMAP
00000FF00000
00000FF00000
00000FF00000
00000FF00000
00000FF00000
00000FF00000
00000FF00000
000000000000
000000000000
000000000000
000000000000
000000000000
00001FFC0000
0001FFFFC000
0007FFFFF000
001FFFFFFC00
003FFFFFFE00
007FFFFFFF00
00FFE003FF80
01FF0000FFC0
03FE00003FE0
07F800001FE0
0FF000000FF0
0FE0000007F0
1FE0000007F8
1FC0000003F8
3F80000003F8
3F80000001F8
3F00000001FC
7F0000000000
7F0000000000
7E0000000000
7E0000000000
7E0000000000
FE0000000000
FE0000000000
FE0000000000
FE00007FFFFC
FE00007FFFFC
FE00007FFFFC
FE00007FFFFC
FE00007FFFFC
FE00007FFFFC
FE000000007C
FE000000007C
7E000000007C
7F00000000FC
7F00000000FC
7F00000000FC
3F80000000FC
3F80000000FC
3F80000001FC
1FC0000001FC
1FE0000003FC
0FE0000007FC
0FF000000FFC
07F800001FFC
03FE00003FFC
03FF8000FF7C
01FFE003FE7C
00FFFFFFFC7C
003FFFFFF87C
001FFFFFE03C
0007FFFFC03C
0001FFFE003C
00003FF00000
ENDCHAR
STARTCHAR 0121
ENCODING 289
SWIDTH 561 0
DWIDTH 39 0
BBX 31 66 2 -16
BITMAP
0007F000
0007F000
0007F000
0007F000
0007F000
0007F000
0007F000
00000000
00000000
00000000
00000000
00000000
00000000
000FE000
007FF83E
00FFFE3E
01FFFF3E
03FFFFBE
07FE7FFE
0FF00FFE
1FC003FE
1F8001FE
3F8001FE
3F0000FE
3F0000FE
7E00007E
7E00007E
7E00007E
7E00007E
7E00007E
7E00007E
FE00007E
FC00007E
FE00007E
FE00007E
7E00007E
7E00007E
7E00007E
7E00007E
7E00007E
7F0000FE
3F0000FE
3F8001FE
1F8001FE
1FC003FE
0FF00FFE
07FE7FFE
07FFFF7E
03FFFE7E
00FFFC7E
007FF87E
000FC07E
0000007E
0000007E
0000007E
3F0000FC
3F0000FC
3F0000FC
3F8001F8
1FC003F8
0FF00FF0
0FFFFFE0
07FFFFC0
01FFFF80
00FFFE00
000FE000
ENDCHAR
STARTCHAR 0122
ENCODING 290
SWIDTH 777 0
DWIDTH 54 0
BBX 46 73 3 -21
BITMAP
00001FFC0000
0001FFFFC000
0007FFFFF000
001FFFFFFC00
003FFFFFFE00
007FFFFFFF00
00FFE003FF80
01FF0000FFC0
03FE00003FE0
07F800001FE0
0FF000000FF0
0FE0000007F0
1FE0000007F8
1FC0000003F8
3F80000003F8
3F80000001F8
3F00000001FC
7F0000000000
7F0000000000
7E0000000000
7E0000000000
7E0000000000
FE0000000000
FE0000000000
FE0000000000
FE00007FFFFC
FE00007FFFFC
FE00007FFFFC
FE00007FFFFC
FE00007FFFFC
FE00007FFFFC
FE000000007C
FE000000007C
7E000000007C
7F00000000FC
7F00000000FC
7F00000000FC
3F80000000FC
3F80000000FC
3F80000001FC
1FC0000001FC
1FE0000003FC
0FE0000007FC
0FF000000FFC
07F800001FFC
03FE00003FFC
03FF8000FF7C
01FFE003FE7C
00FFFFFFFC7C
003FFFFFF87C
001FFFFFE03C
0007FFFFC03C
0001FFFE003C
00003FF00000
000000000000
000000000000
000000000000
00000FE00000
00000FE00000
00000FE00000
00000FE00000
00000FE00000
00000FE00000
00000FE00000
000000E00000
000000E00000
000000E00000
000000E00000
000001E00000
000003C00000
00000F800000
00000F000000
000008000000
ENDCHAR
STARTCHAR 0123
ENCODING 291
SWIDTH 561 0
DWIDTH 39 0
BBX 31 73 2 -16
BITMAP
00001000
0000F000
0001F000
0003C000
00038000
00078000
00070000
00070000
00070000
0007F000
0007F000
0007F000
0007F000
0007F000
0007F000
0007F000
00000000
00000000
00000000
00000000
000FE000
007FF83E
00FFFE3E
01FFFF3E
03FFFFBE
07FE7FFE
0FF00FFE
1FC003FE
1F8001FE
3F8001FE
3F0000FE
3F0000FE
7E00007E
7E00007E
7E00007E
7E00007E
7E00007E
7E00007E
FE00007E
FC00007E
FE00007E
FE00007E
7E00007E
7E00007E
7E00007E
7E00007E
7E00007E
7F0000FE
3F0000FE
3F8001FE
1F8001FE
1FC003FE
0FF00FFE
07FE7FFE
07FFFF7E
03FFFE7E
00FFFC7E
007FF87E
000FC07E
0000007E
0000007E
0000007E
3F0000FC
3F0000FC
3F0000FC
3F8001F8
1FC003F8
0FF00FF0
0FFFFFE0
07FFFFC0
01FFFF80
00FFFE00
000FE000
ENDCHAR
STARTCHAR 0124
ENCODING 292
SWIDTH 720 0
DWIDTH 50 0
BBX 39 66 6 0
BITMAP
0000FE0000
0000FF0000
0001FF0000
0003FF8000
0003EFC000
0007E7C000
0007C3E000
000F81F000
001F01F000
001E00F800
003C007C00
0000000000
0000000000
0000000000
0000000000
FC000000FE
FC000000FE
FC000000FE
FC000000FE
FC000000FE
FC000000FE
FC000000FE
FC000000FE
FC000000FE
FC000000FE
FC000000FE
FC000000FE
FC000000FE
FC000000FE
FC000000FE
FC000000FE
FC000000FE
FC000000FE
FC000000FE
FC000000FE
FC000000FE
FC000000FE
FFFFFFFFFE
FFFFFFFFFE
FFFFFFFFFE
FFFFFFFFFE
FFFFFFFFFE
FFFFFFFFFE
FC000000FE
FC000000FE
FC000000FE
FC000000FE
FC000000FE
FC000000FE
FC000000FE
FC000000FE
FC000000FE
FC000000FE
FC000000FE
FC000000FE
FC000000FE
FC000000FE
FC000000FE
FC000000FE
FC000000FE
FC000000FE
FC000000FE
FC000000FE
FC000000FE
FC000000FE
FC000000FE
ENDCHAR
STARTCHAR 0125
ENCODING 293
SWIDTH 561 0
DWIDTH 39 0
BBX 36 66 -2 0
BITMAP
03F8000000
03FC000000
07FE000000
07FE000000
0FFF000000
1F9F000000
1F0F800000
3E07C00000
7C03C00000
7803E00000
F801F00000
0000000000
0000000000
0000000000
0000000000
01F8000000
01F8000000
01F8000000
01F8000000
01F8000000
01F8000000
01F8000000
01F8000000
01F8000000
01F8000000
01F8000000
01F8000000
01F8000000
01F8000000
01F80FF800
01F83FFE00
01F8FFFF80
01F9FFFFC0
01FBFFFFC0
01FFF07FE0
01FF801FE0
01FF0007F0
01FE0007F0
01FE0003F0
01FC0003F0
01FC0003F0
01F80003F0
01F80003F0
01F80003F0
01F80003F0
01F80003F0
01F80003F0
01F80003F0
01F80003F0
01F80003F0
01F80003F0
01F80003F0
01F80003F0
01F80003F0
01F80003F0
01F80003F0
01F80003F0
01F80003F0
01F80003F0
01F80003F0
01F80003F0
01F80003F0
01F80003F0
01F80003F0
01F80003F0
01F80003F0
ENDCHAR
STARTCHAR 0126
ENCODING 294
SWIDTH 720 0
DWIDTH 50 0
BBX 49 51 1 0
BITMAP
07E0000007F000
07E0000007F000
07E0000007F000
07E0000007F000
07E0000007F000
07E0000007F000
07E0000007F000
07E0000007F000
07E0000007F000
07E0000007F000
07E0000007F000
FFFFFFFFFFFF80
FFFFFFFFFFFF80
FFFFFFFFFFFF80
FFFFFFFFFFFF80
FFFFFFFFFFFF80
07E0000007F000
07E0000007F000
07E0000007F000
07E0000007F000
07E0000007F000
07E0000007F000
07FFFFFFFFF000
07FFFFFFFFF000
07FFFFFFFFF000
07FFFFFFFFF000
07FFFFFFFFF000
07FFFFFFFFF000
07E0000007F000
07E0000007F000
07E0000007F000
07E0000007F000
07E0000007F000
07E0000007F000
07E0000007F000
07E0000007F000
07E0000007F000
07E0000007F000
07E0000007F000
07E0000007F000
07E0000007F000
07E0000007F000
07E0000007F000
07E0000007F000
07E0000007F000
07E0000007F000
07E0000007F000
07E0000007F000
07E0000007F000
07E0000007F000
07E0000007F000
ENDCHAR
STARTCHAR 0127
ENCODING 295
SWIDTH 561 0
DWIDTH 39 0
BBX 33 51 1 0
BITMAP
0FC0000000
0FC0000000
0FC0000000
0FC0000000
0FC0000000
0FC0000000
FFFFFF0000
FFFFFF0000
FFFFFF0000
FFFFFF0000
0FC0000000
0FC0000000
0FC0000000
0FC0000000
0FC07FC000
0FC1FFF000
0FC7FFFC00
0FCFFFFE00
0FDFFFFE00
0FFF83FF00
0FFC00FF00
0FF8003F80
0FF0003F80
0FF0001F80
0FE0001F80
0FE0001F80
0FC0001F80
0FC0001F80
0FC0001F80
0FC0001F80
0FC0001F80
0FC0001F80
0FC0001F80
0FC0001F80
0FC0001F80
0FC0001F80
0FC0001F80
0FC0001F80
0FC0001F80
0FC0001F80
0FC0001F80
0FC0001F80
0FC0001F80
0FC0001F80
0FC0001F80
0FC0001F80
0FC0001F80
0FC0001F80
0FC0001F80
0FC0001F80
0FC0001F80
ENDCHAR
STARTCHAR 0128
ENCODING 296
SWIDTH 273 0
DWIDTH 19 0
BBX 21 64 -1 0
BITMAP
1F0078
3FE0F8
7FFFF8
7FFFF0
FFFFF0
F07FE0
F00FC0
000000
000000
000000
000000
000000
000000
00FC00
00FC00
00FC00
00FC00
00FC00
00FC00
00FC00
00FC00
00FC00
00FC00
00FC00
00FC00
00FC00
00FC00
00FC00
00FC00
00FC00
00FC00
00FC00
00FC00
00FC00
00FC00
00FC00
00FC00
00FC00
00FC00
00FC00
00FC00
00FC00
00FC00
00FC00
00FC00
00FC00
00FC00
00FC00
00FC00
00FC00
00FC00
00FC00
00FC00
00FC00
00FC00
00FC00
00FC00
00FC00
00FC00
00FC00
00FC00
00FC00
00FC00
00FC00
ENDCHAR
STARTCHAR 0129
ENCODING 297
SWIDTH 273 0
DWIDTH 19 0
BBX 21 50 -1 0
BITMAP
1F0078
3FE0F8
7FFFF8
7FFFF0
FFFFF0
F07FE0
F00FC0
000000
000000
000000
000000
000000
000000
000000
00F800
00F800
00F800
00F800
00F800
00F800
00F800
00F800
00F800
00F800
00F800
00F800
00F800
00F800
00F800
00F800
00F800
00F800
00F800
00F800
00F800
00F800
00F800
00F800
00F800
00F800
00F800
00F800
00F800
00F800
00F800
00F800
00F800
00F800
00F800
00F800
ENDCHAR
STARTCHAR 012A
ENCODING 298
SWIDTH 273 0
DWIDTH 19 0
BBX 18 63 1 0
BITMAP
FFFFC0
FFFFC0
FFFFC0
FFFFC0
FFFFC0
000000
000000
000000
000000
000000
000000
000000
03F000
03F000
03F000
03F000
03F000
03F000
03F000
03F000
03F000
03F000
03F000
03F000
03F000
03F000
03F000
03F000
03F000
03F000
03F000
03F000
03F000
03F000
03F000
03F000
03F000
03F000
03F000
03F000
03F000
03F000
03F000
03F000
03F000
03F000
03F000
03F000
03F000
03F000
03F000
03F000
03F000
03F000
03F000
03F000
03F000
03F000
03F000
03F000
03F000
03F000
03F000
ENDCHAR
STARTCHAR 012B
ENCODING 299
SWIDTH 273 0
DWIDTH 19 0
BBX 17 48 1 0
BITMAP
FFFF80
FFFF80
FFFF80
FFFF80
FFFF80
000000
000000
000000
000000
000000
000000
000000
03E000
03E000
03E000
03E000
03E000
03E000
03E000
03E000
03E000
03E000
03E000
03E000
03E000
03E000
03E000
03E000
03E000
03E000
03E000
03E000
03E000
03E000
03E000
03E000
03E000
03E000
03E000
03E000
03E000
03E000
03E000
03E000
03E000
03E000
03E000
03E000
ENDCHAR
STARTCHAR 012C
ENCODING 300
SWIDTH 273 0
DWIDTH 19 0
BBX 21 65 -1 0
BITMAP
F00078
F800F8
FC00F8
7E03F0
7FFFF0
3FFFE0
1FFFC0
0FFF80
01FC00
000000
000000
000000
000000
000000
00FC00
00FC00
00FC00
00FC00
00FC00
00FC00
00FC00
00FC00
00FC00
00FC00
00FC00
00FC00
00FC00
00FC00
00FC00
00FC00
00FC00
00FC00
00FC00
00FC00
00FC00
00FC00
00FC00
00FC00
00FC00
00FC00
00FC00
00FC00
00FC00
00FC00
00FC00
00FC00
00FC00
00FC00
00FC00
00FC00
00FC00
00FC00
00FC00
00FC00
00FC00
00FC00
00FC00
00FC00
00FC00
00FC00
00FC00
00FC00
00FC00
00FC00
00FC00
ENDCHAR
STARTCHAR 012D
ENCODING 301
SWIDTH 273 0
DWIDTH 19 0
BBX 21 51 -1 0
BITMAP
F00078
F80078
F800F8
7C01F0
7F03F0
7FFFF0
3FFFE0
1FFFC0
07FF00
00F800
000000
000000
000000
000000
000000
00F800
00F800
00F800
00F800
00F800
00F800
00F800
00F800
00F800
00F800
00F800
00F800
00F800
00F800
00F800
00F800
00F800
00F800
00F800
00F800
00F800
00F800
00F800
00F800
00F800
00F800
00F800
00F800
00F800
00F800
00F800
00F800
00F800
00F800
00F800
00F800
ENDCHAR
STARTCHAR 012E
ENCODING 302
SWIDTH 273 0
DWIDTH 19 0
BBX 11 65 5 -14
BITMAP
3F00
3F00
3F00
3F00
3F00
3F00
3F00
3F00
3F00
3F00
3F00
3F00
3F00
3F00
3F00
3F00
3F00
3F00
3F00
3F00
3F00
3F00
3F00
3F00
3F00
3F00
3F00
3F00
3F00
3F00
3F00
3F00
3F00
3F00
3F00
3F00
3F00
3F00
3F00
3F00
3F00
3F00
3F00
3F00
3F00
3F00
3F00
3F00
3F00
3F00
3F00
0F00
1E00
3C00
7C00
F800
F800
F800
F800
F800
F800
FC00
7FE0
3FE0
1FE0
ENDCHAR
STARTCHAR 012F
ENCODING 303
SWIDTH 216 0
DWIDTH 15 0
BBX 11 65 2 -14
BITMAP
1F00
1F00
1F00
1F00
1F00
1F00
1F00
0000
0000
0000
0000
0000
0000
0000
0000
1F00
1F00
1F00
1F00
1F00
1F00
1F00
1F00
1F00
1F00
1F00
1F00
1F00
1F00
1F00
1F00
1F00
1F00
1F00
1F00
1F00
1F00
1F00
1F00
1F00
1F00
1F00
1F00
1F00
1F00
1F00
1F00
1F00
1F00
1F00
1F00
0F00
1E00
3C00
7C00
7800
F800
F800
F800
F800
F800
FC00
7FE0
3FE0
0FE0
ENDCHAR
STARTCHAR 0130
ENCODING 304
SWIDTH 273 0
DWIDTH 19 0
BBX 8 64 6 0
BITMAP
FF
FF
FF
FF
FF
FF
FF
00
00
00
00
00
00
7F
7F
7F
7F
7F
7F
7F
7F
7F
7F
7F
7F
7F
7F
7F
7F
7F
7F
7F
7F
7F
7F
7F
7F
7F
7F
7F
7F
7F
7F
7F
7F
7F
7F
7F
7F
7F
7F
7F
7F
7F
7F
7F
7F
7F
7F
7F
7F
7F
7F
7F
ENDCHAR
STARTCHAR 0131
ENCODING 305
SWIDTH 273 0
DWIDTH 19 0
BBX 5 36 7 0
BITMAP
F8
F8
F8
F8
F8
F8
F8
F8
F8
F8
F8
F8
F8
F8
F8
F8
F8
F8
F8
F8
F8
F8
F8
F8
F8
F8
F8
F8
F8
F8
F8
F8
F8
F8
F8
F8
ENDCHAR
STARTCHAR 0132
ENCODING 306
SWIDTH 734 0
DWIDTH 51 0
BBX 39 53 7 -2
BITMAP
FE000000FE
FE000000FE
FE000000FE
FE000000FE
FE000000FE
FE000000FE
FE000000FE
FE000000FE
FE000000FE
FE000000FE
FE000000FE
FE000000FE
FE000000FE
FE000000FE
FE000000FE
FE000000FE
FE000000FE
FE000000FE
FE000000FE
FE000000FE
FE000000FE
FE000000FE
FE000000FE
FE000000FE
FE000000FE
FE000000FE
FE000000FE
FE000000FE
FE000000FE
FE000000FE
FE000000FE
FE000000FE
FE000000FE
FE000000FE
FE000000FE
FE3F8000FE
FE3F8000FE
FE3F8000FE
FE3F8000FE
FE3F8000FE
FE3F8000FC
FE3F8000FC
FE3F8001FC
FE1FC001FC
FE1FC003FC
FE1FE007F8
FE0FF00FF8
FE0FFE7FF0
FE07FFFFE0
FE03FFFFC0
FE01FFFF80
00007FFE00
00000FF000
ENDCHAR
STARTCHAR 0133
ENCODING 307
SWIDTH 446 0
DWIDTH 31 0
BBX 19 66 6 -15
BITMAP
FC07E0
FC07E0
FC07E0
FC07E0
FC07E0
FC07E0
FC07E0
000000
000000
000000
000000
000000
000000
000000
000000
FC07E0
FC07E0
FC07E0
FC07E0
FC07E0
FC07E0
FC07E0
FC07E0
FC07E0
FC07E0
FC07E0
FC07E0
FC07E0
FC07E0
FC07E0
FC07E0
FC07E0
FC07E0
FC07E0
FC07E0
FC07E0
FC07E0
FC07E0
FC07E0
FC07E0
FC07E0
FC07E0
FC07E0
FC07E0
FC07E0
FC07E0
FC07E0
FC07E0
FC07E0
FC07E0
FC07E0
0007E0
0007E0
0007E0
0007E0
0007E0
0007E0
0007E0
0007E0
0007E0
000FE0
01FFE0
01FFC0
01FF80
01FF00
01FC00
ENDCHAR
STARTCHAR 0134
ENCODING 308
SWIDTH 504 0
DWIDTH 35 0
BBX 34 68 1 -2
BITMAP
000007F000
00000FF000
00000FF800
00001FFC00
00003F7C00
00003E3E00
00007C3F00
00007C1F00
0000F80F80
0001F007C0
0001E003C0
0000000000
0000000000
0000000000
0000000000
000003F800
000003F800
000003F800
000003F800
000003F800
000003F800
000003F800
000003F800
000003F800
000003F800
000003F800
000003F800
000003F800
000003F800
000003F800
000003F800
000003F800
000003F800
000003F800
000003F800
000003F800
000003F800
000003F800
000003F800
000003F800
000003F800
000003F800
000003F800
000003F800
000003F800
000003F800
000003F800
000003F800
000003F800
000003F800
FE0003F800
FE0003F800
FE0003F800
FE0003F800
FE0003F800
FE0003F800
FE0003F000
FE0007F000
7F0007F000
7F000FF000
7F800FE000
3FC03FE000
3FF9FFC000
1FFFFF8000
0FFFFF0000
07FFFE0000
01FFF80000
003FE00000
ENDCHAR
STARTCHAR 0135
ENCODING 309
SWIDTH 216 0
DWIDTH 15 0
BBX 19 67 -2 -15
BITMAP
03F800
07FC00
07FC00
0FFE00
1FBE00
1F1F00
3E1F80
3E0F80
7C07C0
F803E0
F001E0
000000
000000
000000
000000
000000
01F800
01F800
01F800
01F800
01F800
01F800
01F800
01F800
01F800
01F800
01F800
01F800
01F800
01F800
01F800
01F800
01F800
01F800
01F800
01F800
01F800
01F800
01F800
01F800
01F800
01F800
01F800
01F800
01F800
01F800
01F800
01F800
01F800
01F800
01F800
01F800
01F800
01F800
01F800
01F800
01F800
01F800
01F800
01F800
03F800
07F000
7FF000
7FF000
7FE000
7FC000
7E0000
ENDCHAR
STARTCHAR 0136
ENCODING 310
SWIDTH 662 0
DWIDTH 46 0
BBX 40 71 5 -20
BITMAP
FE000000FF
FE000001FE
FE000003FC
FE000007F8
FE00000FF0
FE00001FE0
FE00003FC0
FE00007F80
FE0000FF00
FE0001FE00
FE0003FC00
FE0007F800
FE000FF000
FE001FE000
FE003FC000
FE007F8000
FE00FF0000
FE01FE0000
FE03FC0000
FE07F80000
FE0FF00000
FE1FF00000
FE3FF80000
FE7FFC0000
FEFFFC0000
FFFEFE0000
FFFCFF0000
FFF87F8000
FFF03F8000
FFE03FC000
FFC01FE000
FF800FE000
FF000FF000
FE0007F800
FE0003F800
FE0003FC00
FE0001FE00
FE0000FE00
FE00007F00
FE00007F80
FE00003F80
FE00001FC0
FE00001FE0
FE00000FF0
FE000007F0
FE000007F8
FE000003FC
FE000001FC
FE000001FE
FE000000FF
FE0000007F
0000000000
0000000000
0000000000
0000000000
0000FE0000
0000FE0000
0000FE0000
0000FE0000
0000FE0000
0000FE0000
0000FE0000
00000E0000
00000E0000
00001E0000
00001C0000
00001C0000
0000380000
0000F80000
0000F00000
0000800000
ENDCHAR
STARTCHAR 0137
ENCODING 311
SWIDTH 504 0
DWIDTH 35 0
BBX 31 71 4 -20
BITMAP
FC000000
FC000000
FC000000
FC000000
FC000000
FC000000
FC000000
FC000000
FC000000
FC000000
FC000000
FC000000
FC000000
FC000000
FC000000
FC0007F0
FC000FE0
FC001FC0
FC003F80
FC007F00
FC00FE00
FC01FC00
FC03F800
FC07F000
FC0FE000
FC1FC000
FC3F8000
FC7F0000
FCFF8000
FDFF8000
FFFFC000
FFFFE000
FFCFE000
FF87F000
FF07F000
FE03F800
FC01FC00
FC01FC00
FC00FE00
FC00FF00
FC007F00
FC003F80
FC003FC0
FC001FC0
FC000FE0
FC000FE0
FC0007F0
FC0007F8
FC0003F8
FC0001FC
FC0001FE
00000000
00000000
00000000
00000000
001FC000
001FC000
001FC000
001FC000
001FC000
001FC000
001FC000
0001C000
0001C000
0001C000
0003C000
00038000
00078000
001F0000
001E0000
00180000
ENDCHAR
STARTCHAR 0138
ENCODING 312
SWIDTH 504 0
DWIDTH 35 0
BBX 28 35 3 0
BITMAP
F00007E0
F0000FC0
F0001F80
F0003F00
F0007E00
F000FC00
F001F800
F003F000
F007E000
F00FC000
F01F8000
F03F0000
F07E0000
F0FC0000
F1FC0000
F3FC0000
F7FE0000
FF9F0000
FF1F8000
FE0F8000
FC07C000
F807E000
F003E000
F001F000
F001F800
F000F800
F0007C00
F0007E00
F0003E00
F0001F00
F0001F80
F0000FC0
F00007C0
F00003E0
F00003F0
ENDCHAR
STARTCHAR 0139
ENCODING 313
SWIDTH 561 0
DWIDTH 39 0
BBX 32 66 5 0
BITMAP
03FC0000
03F80000
07F00000
07E00000
0FC00000
1F800000
1F000000
3E000000
7C000000
78000000
F0000000
00000000
00000000
00000000
00000000
7E000000
7E000000
7E000000
7E000000
7E000000
7E000000
7E000000
7E000000
7E000000
7E000000
7E000000
7E000000
7E000000
7E000000
7E000000
7E000000
7E000000
7E000000
7E000000
7E000000
7E000000
7E000000
7E000000
7E000000
7E000000
7E000000
7E000000
7E000000
7E000000
7E000000
7E000000
7E000000
7E000000
7E000000
7E000000
7E000000
7E000000
7E000000
7E000000
7E000000
7E000000
7E000000
7E000000
7E000000
7E000000
7FFFFFFF
7FFFFFFF
7FFFFFFF
7FFFFFFF
7FFFFFFF
7FFFFFFF
ENDCHAR
STARTCHAR 013A
ENCODING 314
SWIDTH 216 0
DWIDTH 15 0
BBX 15 66 4 0
BITMAP
01FE
03FC
03F8
07F0
0FE0
0FC0
1F80
3F00
3E00
7C00
F800
0000
0000
0000
0000
7E00
7E00
7E00
7E00
7E00
7E00
7E00
7E00
7E00
7E00
7E00
7E00
7E00
7E00
7E00
7E00
7E00
7E00
7E00
7E00
7E00
7E00
7E00
7E00
7E00
7E00
7E00
7E00
7E00
7E00
7E00
7E00
7E00
7E00
7E00
7E00
7E00
7E00
7E00
7E00
7E00
7E00
7E00
7E00
7E00
7E00
7E00
7E00
7E00
7E00
7E00
ENDCHAR
STARTCHAR 013B
ENCODING 315
SWIDTH 561 0
DWIDTH 39 0
BBX 31 71 6 -20
BITMAP
FC000000
FC000000
FC000000
FC000000
FC000000
FC000000
FC000000
FC000000
FC000000
FC000000
FC000000
FC000000
FC000000
FC000000
FC000000
FC000000
FC000000
FC000000
FC000000
FC000000
FC000000
FC000000
FC000000
FC000000
FC000000
FC000000
FC000000
FC000000
FC000000
FC000000
FC000000
FC000000
FC000000
FC000000
FC000000
FC000000
FC000000
FC000000
FC000000
FC000000
FC000000
FC000000
FC000000
FC000000
FC000000
FFFFFFFE
FFFFFFFE
FFFFFFFE
FFFFFFFE
FFFFFFFE
FFFFFFFE
00000000
00000000
00000000
00000000
000FE000
000FE000
000FE000
000FE000
000FE000
000FE000
000FE000
0000E000
0000E000
0000E000
0001C000
0001C000
0003C000
000F8000
000F0000
00080000
ENDCHAR
STARTCHAR 013C
ENCODING 316
SWIDTH 216 0
DWIDTH 15 0
BBX 7 71 4 -20
BITMAP
7E
7E
7E
7E
7E
7E
7E
7E
7E
7E
7E
7E
7E
7E
7E
7E
7E
7E
7E
7E
7E
7E
7E
7E
7E
7E
7E
7E
7E
7E
7E
7E
7E
7E
7E
7E
7E
7E
7E
7E
7E
7E
7E
7E
7E
7E
7E
7E
7E
7E
7E
00
00
00
00
FE
FE
FE
FE
FE
FE
FE
0E
0E
0E
0E
1E
3C
F8
F0
C0
ENDCHAR
STARTCHAR 013D
ENCODING 317
SWIDTH 561 0
DWIDTH 39 0
BBX 31 51 6 0
BITMAP
FC07F000
FC07F000
FC07F000
FC07F000
FC07F000
FC07F000
FC07F000
FC007000
FC007000
FC007000
FC00E000
FC00E000
FC01E000
FC07C000
FC078000
FC060000
FC000000
FC000000
FC000000
FC000000
FC000000
FC000000
FC000000
FC000000
FC000000
FC000000
FC000000
FC000000
FC000000
FC000000
FC000000
FC000000
FC000000
FC000000
FC000000
FC000000
FC000000
FC000000
FC000000
FC000000
FC000000
FC000000
FC000000
FC000000
FC000000
FFFFFFFE
FFFFFFFE
FFFFFFFE
FFFFFFFE
FFFFFFFE
FFFFFFFE
ENDCHAR
STARTCHAR 013E
ENCODING 318
SWIDTH 302 0
DWIDTH 21 0
BBX 16 51 5 0
BITMAP
FC7F
FC7F
FC7F
FC7F
FC7F
FC7F
FC7F
FC07
FC07
FC07
FC07
FC0E
FC1E
FC7C
FC78
FC60
FC00
FC00
FC00
FC00
FC00
FC00
FC00
FC00
FC00
FC00
FC00
FC00
FC00
FC00
FC00
FC00
FC00
FC00
FC00
FC00
FC00
FC00
FC00
FC00
FC00
FC00
FC00
FC00
FC00
FC00
FC00
FC00
FC00
FC00
FC00
ENDCHAR
STARTCHAR 013F
ENCODING 319
SWIDTH 561 0
DWIDTH 39 0
BBX 31 51 6 0
BITMAP
FC000000
FC000000
FC000000
FC000000
FC000000
FC000000
FC000000
FC000000
FC000000
FC000000
FC000000
FC000000
FC000000
FC000000
FC000000
FC000000
FC000000
FC000000
FC000000
FC000000
FC000000
FC000000
FC000000
FC003F80
FC003F80
FC003F80
FC003F80
FC003F80
FC003F80
FC003F80
FC000000
FC000000
FC000000
FC000000
FC000000
FC000000
FC000000
FC000000
FC000000
FC000000
FC000000
FC000000
FC000000
FC000000
FC000000
FFFFFFFE
FFFFFFFE
FFFFFFFE
FFFFFFFE
FFFFFFFE
FFFFFFFE
ENDCHAR
STARTCHAR 0140
ENCODING 320
SWIDTH 331 0
DWIDTH 23 0
BBX 18 51 5 0
BITMAP
FC0000
FC0000
FC0000
FC0000
FC0000
FC0000
FC0000
FC0000
FC0000
FC0000
FC0000
FC0000
FC0000
FC0000
FC0000
FC0000
FC0000
FC0000
FC0000
FC0000
FC0000
FC0000
FC0000
FC1FC0
FC1FC0
FC1FC0
FC1FC0
FC1FC0
FC1FC0
FC1FC0
FC0000
FC0000
FC0000
FC0000
FC0000
FC0000
FC0000
FC0000
FC0000
FC0000
FC0000
FC0000
FC0000
FC0000
FC0000
FC0000
FC0000
FC0000
FC0000
FC0000
FC0000
ENDCHAR
STARTCHAR 0141
ENCODING 321
SWIDTH 561 0
DWIDTH 39 0
BBX 38 51 0 0
BITMAP
03F0000000
03F0000000
03F0000000
03F0000000
03F0000000
03F0000000
03F0000000
03F0000000
03F0000000
03F0000000
03F0000000
03F0000000
03F0000000
03F0000000
03F0010000
03F0030000
03F0070000
03F01F0000
03F03F0000
03F0FF0000
03F1FC0000
03F3F80000
03FFF00000
03FFC00000
03FF800000
03FE000000
07FC000000
0FF8000000
3FF0000000
7FF0000000
FFF0000000
FBF0000000
F3F0000000
E3F0000000
83F0000000
03F0000000
03F0000000
03F0000000
03F0000000
03F0000000
03F0000000
03F0000000
03F0000000
03F0000000
03F0000000
03FFFFFFFC
03FFFFFFFC
03FFFFFFFC
03FFFFFFFC
03FFFFFFFC
03FFFFFFFC
ENDCHAR
STARTCHAR 0142
ENCODING 322
SWIDTH 216 0
DWIDTH 15 0
BBX 15 51 0 0
BITMAP
0FC0
0FC0
0FC0
0FC0
0FC0
0FC0
0FC0
0FC0
0FC0
0FC0
0FC0
0FC0
0FC0
0FC0
0FC0
0FC0
0FC0
0FC0
0FC2
0FC6
0FDE
0FFE
0FFE
0FF8
0FF0
1FE0
3FC0
7FC0
FFC0
FFC0
EFC0
8FC0
0FC0
0FC0
0FC0
0FC0
0FC0
0FC0
0FC0
0FC0
0FC0
0FC0
0FC0
0FC0
0FC0
0FC0
0FC0
0FC0
0FC0
0FC0
0FC0
ENDCHAR
STARTCHAR 0143
ENCODING 323
SWIDTH 720 0
DWIDTH 50 0
BBX 40 66 5 0
BITMAP
000003FC00
000007F800
000007F000
00000FE000
00001FC000
00001F8000
00003F0000
00007E0000
00007C0000
0000F80000
0001F00000
0000000000
0000000000
0000000000
0000000000
FF0000003F
FF0000003F
FF8000003F
FFC000003F
FFC000003F
FFE000003F
FFE000003F
FFF000003F
FFF800003F
FFF800003F
FDFC00003F
FCFE00003F
FCFE00003F
FC7F00003F
FC7F00003F
FC3F80003F
FC1FC0003F
FC1FC0003F
FC0FE0003F
FC07F0003F
FC07F0003F
FC03F8003F
FC03FC003F
FC01FC003F
FC00FE003F
FC00FE003F
FC007F003F
FC003F803F
FC003F803F
FC001FC03F
FC000FE03F
FC000FE03F
FC0007F03F
FC0007F83F
FC0003F83F
FC0001FC3F
FC0001FC3F
FC0000FE3F
FC00007F3F
FC00007F3F
FC00003FBF
FC00001FFF
FC00001FFF
FC00000FFF
FC00000FFF
FC000007FF
FC000003FF
FC000003FF
FC000001FF
FC000000FF
FC000000FF
ENDCHAR
STARTCHAR 0144
ENCODING 324
SWIDTH 561 0
DWIDTH 39 0
BBX 29 52 5 0
BITMAP
0000FF00
0000FE00
0001FC00
0003F800
0003F000
0007E000
0007C000
000F8000
001F0000
001E0000
003C0000
00000000
00000000
00000000
00000000
0007F800
F81FFF00
F87FFF80
F8FFFFE0
F9FFFFE0
FBF83FF0
FBC00FF0
FF8003F8
FF0003F8
FF0001F8
FE0001F8
FE0001F8
FC0001F8
FC0001F8
FC0001F8
FC0001F8
FC0001F8
FC0001F8
FC0001F8
FC0001F8
FC0001F8
FC0001F8
FC0001F8
FC0001F8
FC0001F8
FC0001F8
FC0001F8
FC0001F8
FC0001F8
FC0001F8
FC0001F8
FC0001F8
FC0001F8
FC0001F8
FC0001F8
FC0001F8
FC0001F8
ENDCHAR
STARTCHAR 0145
ENCODING 325
SWIDTH 720 0
DWIDTH 50 0
BBX 40 71 5 -20
BITMAP
FF0000003F
FF0000003F
FF8000003F
FFC000003F
FFC000003F
FFE000003F
FFE000003F
FFF000003F
FFF800003F
FFF800003F
FDFC00003F
FCFE00003F
FCFE00003F
FC7F00003F
FC7F00003F
FC3F80003F
FC1FC0003F
FC1FC0003F
FC0FE0003F
FC07F0003F
FC07F0003F
FC03F8003F
FC03FC003F
FC01FC003F
FC00FE003F
FC00FE003F
FC007F003F
FC003F803F
FC003F803F
FC001FC03F
FC000FE03F
FC000FE03F
FC0007F03F
FC0007F83F
FC0003F83F
FC0001FC3F
FC0001FC3F
FC0000FE3F
FC00007F3F
FC00007F3F
FC00003FBF
FC00001FFF
FC00001FFF
FC00000FFF
FC00000FFF
FC000007FF
FC000003FF
FC000003FF
FC000001FF
FC000000FF
FC000000FF
0000000000
0000000000
0000000000
0000000000
0000FE0000
0000FE0000
0000FE0000
0000FE0000
0000FE0000
0000FE0000
0000FE0000
00000E0000
00000E0000
00001C0000
00001C0000
00001C0000
0000380000
0000F80000
0000F00000
0000800000
ENDCHAR
STARTCHAR 0146
ENCODING 326
SWIDTH 561 0
DWIDTH 39 0
BBX 29 57 5 -20
BITMAP
0007F800
F81FFF00
F87FFF80
F8FFFFE0
F9FFFFE0
FBF83FF0
FBC00FF0
FF8003F8
FF0003F8
FF0001F8
FE0001F8
FE0001F8
FC0001F8
FC0001F8
FC0001F8
FC0001F8
FC0001F8
FC0001F8
FC0001F8
FC0001F8
FC0001F8
FC0001F8
FC0001F8
FC0001F8
FC0001F8
FC0001F8
FC0001F8
FC0001F8
FC0001F8
FC0001F8
FC0001F8
FC0001F8
FC0001F8
FC0001F8
FC0001F8
FC0001F8
FC0001F8
00000000
00000000
00000000
00000000
001FC000
001FC000
001FC000
001FC000
001FC000
001FC000
001FC000
0001C000
0001C000
0001C000
00038000
00038000
00078000
001F0000
001E0000
00100000
ENDCHAR
STARTCHAR 0147
ENCODING 327
SWIDTH 720 0
DWIDTH 50 0
BBX 40 66 5 0
BITMAP
003E007C00
001E007800
001F00F800
000F81F000
0007C3E000
0007E7E000
0003FFC000
0001FF8000
0001FF8000
0000FF0000
00007F0000
0000000000
0000000000
0000000000
0000000000
FF0000003F
FF0000003F
FF8000003F
FFC000003F
FFC000003F
FFE000003F
FFE000003F
FFF000003F
FFF800003F
FFF800003F
FDFC00003F
FCFE00003F
FCFE00003F
FC7F00003F
FC7F00003F
FC3F80003F
FC1FC0003F
FC1FC0003F
FC0FE0003F
FC07F0003F
FC07F0003F
FC03F8003F
FC03FC003F
FC01FC003F
FC00FE003F
FC00FE003F
FC007F003F
FC003F803F
FC003F803F
FC001FC03F
FC000FE03F
FC000FE03F
FC0007F03F
FC0007F83F
FC0003F83F
FC0001FC3F
FC0001FC3F
FC0000FE3F
FC00007F3F
FC00007F3F
FC00003FBF
FC00001FFF
FC00001FFF
FC00000FFF
FC00000FFF
FC000007FF
FC000003FF
FC000003FF
FC000001FF
FC000000FF
FC000000FF
ENDCHAR
STARTCHAR 0148
ENCODING 328
SWIDTH 561 0
DWIDTH 39 0
BBX 29 52 5 0
BITMAP
07801F00
07C01E00
03E03E00
03F07C00
01F0FC00
00F8F800
00FDF000
007FF000
007FE000
003FE000
001FC000
00000000
00000000
00000000
00000000
0007F800
F81FFF00
F87FFF80
F8FFFFE0
F9FFFFE0
FBF83FF0
FBC00FF0
FF8003F8
FF0003F8
FF0001F8
FE0001F8
FE0001F8
FC0001F8
FC0001F8
FC0001F8
FC0001F8
FC0001F8
FC0001F8
FC0001F8
FC0001F8
FC0001F8
FC0001F8
FC0001F8
FC0001F8
FC0001F8
FC0001F8
FC0001F8
FC0001F8
FC0001F8
FC0001F8
FC0001F8
FC0001F8
FC0001F8
FC0001F8
FC0001F8
FC0001F8
FC0001F8
ENDCHAR
STARTCHAR 0149
ENCODING 329
SWIDTH 604 0
DWIDTH 42 0
BBX 36 53 1 0
BITMAP
FE00000000
FE00000000
FE00000000
FE00000000
FE00000000
FE00000000
FE00000000
0E00000000
0E00000000
1C00000000
1C00000000
1C00000000
3800000000
F800000000
F000000000
C000000000
00000FF800
01F83FFE00
01F87FFF80
01F9FFFFC0
01F9FFFFE0
01FBF03FE0
01FFC00FF0
01FF8007F0
01FF0003F0
01FE0003F0
01FC0003F0
01FC0003F0
01FC0003F0
01F80003F0
01F80003F0
01F80003F0
01F80003F0
01F80003F0
01F80003F0
01F80003F0
01F80003F0
01F80003F0
01F80003F0
01F80003F0
01F80003F0
01F80003F0
01F80003F0
01F80003F0
01F80003F0
01F80003F0
01F80003F0
01F80003F0
01F80003F0
01F80003F0
01F80003F0
01F80003F0
01F80003F0
ENDCHAR
STARTCHAR 014A
ENCODING 330
SWIDTH 720 0
DWIDTH 50 0
BBX 37 73 7 -21
BITMAP
00007FC000
F803FFF800
F807FFFE00
F81FFFFF00
F83FFFFFC0
F87FFFFFC0
F8FE007FE0
F9F8001FF0
FBF0000FF0
FBC00007F0
FFC00007F8
FF800003F8
FF000003F8
FF000003F8
FE000003F8
FE000001F8
FE000001F8
FC000001F8
FC000001F8
FC000001F8
FC000001F8
FC000001F8
FC000001F8
FC000001F8
FC000001F8
FC000001F8
FC000001F8
FC000001F8
FC000001F8
FC000001F8
FC000001F8
FC000001F8
FC000001F8
FC000001F8
FC000001F8
FC000001F8
FC000001F8
FC000001F8
FC000001F8
FC000001F8
FC000001F8
FC000001F8
FC000001F8
FC000001F8
FC000001F8
FC000001F8
FC000001F8
FC000001F8
FC000001F8
FC000001F8
FC000001F8
FC000001F8
00000001F8
00000001F8
00000001F8
00000001F8
00000001F8
00000001F8
00000001F8
00000001F8
00000001F8
00000001F8
00000001F8
00000003F8
00000003F8
00000007F8
0000000FF0
000007FFF0
000007FFE0
000007FFE0
000007FFC0
000007FF00
000007F800
ENDCHAR
STARTCHAR 014B
ENCODING 331
SWIDTH 561 0
DWIDTH 39 0
BBX 29 52 5 -15
BITMAP
0003F800
F81FFF00
F83FFF80
F8FFFFC0
F9FFFFE0
F9F81FF0
FBE00FF0
FF8003F8
FF0003F8
FF0001F8
FE0001F8
FE0001F8
FC0001F8
FC0001F8
FC0001F8
FC0001F8
FC0001F8
FC0001F8
FC0001F8
FC0001F8
FC0001F8
FC0001F8
FC0001F8
FC0001F8
FC0001F8
FC0001F8
FC0001F8
FC0001F8
FC0001F8
FC0001F8
FC0001F8
FC0001F8
FC0001F8
FC0001F8
FC0001F8
FC0001F8
FC0001F8
000001F8
000001F8
000001F8
000001F8
000001F8
000001F8
000001F8
000001F8
000001F8
000007F8
00007FF0
00007FF0
00007FE0
00007FC0
00007F00
ENDCHAR
STARTCHAR 014C
ENCODING 332
SWIDTH 777 0
DWIDTH 54 0
BBX 49 65 3 -2
BITMAP
0001FFFFC00000
0001FFFFC00000
0001FFFFC00000
0001FFFFC00000
0001FFFFC00000
00000000000000
00000000000000
00000000000000
00000000000000
00000000000000
00000000000000
00001FF8000000
0001FFFF800000
0007FFFFE00000
001FFFFFF80000
003FFFFFFE0000
00FFFFFFFF0000
01FFE007FF8000
03FF0000FFC000
03FC00003FE000
07F800001FF000
0FF000000FF000
1FE0000007F800
1FC0000003F800
3FC0000001FC00
3F80000001FC00
3F80000000FE00
7F00000000FE00
7F00000000FE00
7E000000007F00
FE000000007F00
FE000000007F00
FE000000003F00
FC000000003F00
FC000000003F00
FC000000003F00
FC000000003F80
FC000000003F80
FC000000003F80
FC000000003F80
FC000000003F00
FC000000003F00
FC000000003F00
FE000000003F00
FE000000007F00
FE000000007F00
7E000000007F00
7F000000007E00
7F00000000FE00
3F80000000FE00
3F80000001FC00
3FC0000001FC00
1FC0000003F800
1FE0000007F800
0FF000000FF000
07F800001FE000
07FE00003FE000
03FF0000FFC000
01FFE003FF8000
00FFFFFFFF0000
003FFFFFFE0000
001FFFFFF80000
0007FFFFE00000
0001FFFF800000
00001FF8000000
ENDCHAR
STARTCHAR 014D
ENCODING 333
SWIDTH 561 0
DWIDTH 39 0
BBX 33 50 2 -2
BITMAP
01FFFFC000
01FFFFC000
01FFFFC000
01FFFFC000
01FFFFC000
0000000000
0000000000
0000000000
0000000000
0000000000
0000000000
0007F80000
003FFF0000
00FFFFC000
01FFFFF000
03FFFFF800
07FF3FF800
0FF003FC00
1FE001FE00
1FC000FE00
3F80007F00
3F00007F00
3F00003F00
7F00003F80
7E00001F80
7E00001F80
7E00001F80
7E00001F80
7E00001F80
7E00001F80
FE00001F80
7E00001F80
7E00001F80
7E00001F80
7E00001F80
7E00001F80
7E00001F80
7F00003F80
3F00003F00
3F80003F00
3F80007F00
1FC000FE00
1FE001FE00
0FF003FC00
07FF3FF800
07FFFFF000
03FFFFE000
00FFFFC000
003FFF0000
000FF80000
ENDCHAR
STARTCHAR 014E
ENCODING 334
SWIDTH 777 0
DWIDTH 54 0
BBX 49 67 3 -2
BITMAP
0003C003C00000
0003C003C00000
0003E007C00000
0003F00FC00000
0001FFFF800000
0001FFFF000000
0000FFFF000000
00003FFC000000
00000FF0000000
00000000000000
00000000000000
00000000000000
00000000000000
00001FF8000000
0001FFFF800000
0007FFFFE00000
001FFFFFF80000
003FFFFFFE0000
00FFFFFFFF0000
01FFE007FF8000
03FF0000FFC000
03FC00003FE000
07F800001FF000
0FF000000FF000
1FE0000007F800
1FC0000003F800
3FC0000001FC00
3F80000001FC00
3F80000000FE00
7F00000000FE00
7F00000000FE00
7E000000007F00
FE000000007F00
FE000000007F00
FE000000003F00
FC000000003F00
FC000000003F00
FC000000003F00
FC000000003F80
FC000000003F80
FC000000003F80
FC000000003F80
FC000000003F00
FC000000003F00
FC000000003F00
FE000000003F00
FE000000007F00
FE000000007F00
7E000000007F00
7F000000007E00
7F00000000FE00
3F80000000FE00
3F80000001FC00
3FC0000001FC00
1FC0000003F800
1FE0000007F800
0FF000000FF000
07F800001FE000
07FE00003FE000
03FF0000FFC000
01FFE003FF8000
00FFFFFFFF0000
003FFFFFFE0000
001FFFFFF80000
0007FFFFE00000
0001FFFF800000
00001FF8000000
ENDCHAR
STARTCHAR 014F
ENCODING 335
SWIDTH 561 0
DWIDTH 39 0
BBX 33 53 2 -2
BITMAP
01E001E000
01E001E000
01E003E000
01F003E000
01FC0FC000
00FFFFC000
00FFFF8000
007FFF0000
001FFE0000
0003F00000
0000000000
0000000000
0000000000
0000000000
0007F80000
003FFF0000
00FFFFC000
01FFFFF000
03FFFFF800
07FF3FF800
0FF003FC00
1FE001FE00
1FC000FE00
3F80007F00
3F00007F00
3F00003F00
7F00003F80
7E00001F80
7E00001F80
7E00001F80
7E00001F80
7E00001F80
7E00001F80
FE00001F80
7E00001F80
7E00001F80
7E00001F80
7E00001F80
7E00001F80
7E00001F80
7F00003F80
3F00003F00
3F80003F00
3F80007F00
1FC000FE00
1FE001FE00
0FF003FC00
07FF3FF800
07FFFFF000
03FFFFE000
00FFFFC000
003FFF0000
000FF80000
ENDCHAR
STARTCHAR 0150
ENCODING 336
SWIDTH 777 0
DWIDTH 54 0
BBX 49 68 3 -2
BITMAP
000003FC3FC000
000007F83F8000
000007F07F0000
00000FE0FE0000
00000FC0FC0000
00001F81F80000
00003F03F00000
00003E03E00000
00007C07C00000
0000F80F800000
0000F00F000000
00000000000000
00000000000000
00000000000000
00001FF8000000
0001FFFF800000
0007FFFFE00000
001FFFFFF80000
003FFFFFFE0000
00FFFFFFFF0000
01FFE007FF8000
03FF0000FFC000
03FC00003FE000
07F800001FF000
0FF000000FF000
1FE0000007F800
1FC0000003F800
3FC0000001FC00
3F80000001FC00
3F80000000FE00
7F00000000FE00
7F00000000FE00
7E000000007F00
FE000000007F00
FE000000007F00
FE000000003F00
FC000000003F00
FC000000003F00
FC000000003F00
FC000000003F80
FC000000003F80
FC000000003F80
FC000000003F80
FC000000003F00
FC000000003F00
FC000000003F00
FE000000003F00
FE000000007F00
FE000000007F00
7E000000007F00
7F000000007E00
7F00000000FE00
3F80000000FE00
3F80000001FC00
3FC0000001FC00
1FC0000003F800
1FE0000007F800
0FF000000FF000
07F800001FE000
07FE00003FE000
03FF0000FFC000
01FFE003FF8000
00FFFFFFFF0000
003FFFFFFE0000
001FFFFFF80000
0007FFFFE00000
0001FFFF800000
00001FF8000000
ENDCHAR
STARTCHAR 0151
ENCODING 337
SWIDTH 561 0
DWIDTH 39 0
BBX 34 54 2 -2
BITMAP
0003FC3FC0
0003F83F80
0007F07F00
0007E07E00
000FC0FC00
001F81F800
001F01F800
003E03F000
003E03E000
007C07C000
00F80F8000
0000000000
0000000000
0000000000
0000000000
0007F80000
003FFF0000
00FFFFC000
01FFFFF000
03FFFFF800
07FF3FF800
0FF003FC00
1FE001FE00
1FC000FE00
3F80007F00
3F00007F00
3F00003F00
7F00003F80
7E00001F80
7E00001F80
7E00001F80
7E00001F80
7E00001F80
7E00001F80
FE00001F80
7E00001F80
7E00001F80
7E00001F80
7E00001F80
7E00001F80
7E00001F80
7F00003F80
3F00003F00
3F80003F00
3F80007F00
1FC000FE00
1FE001FE00
0FF003FC00
07FF3FF800
07FFFFF000
03FFFFE000
00FFFFC000
003FFF0000
000FF80000
ENDCHAR
STARTCHAR 0152
ENCODING 338
SWIDTH 993 0
DWIDTH 69 0
BBX 64 53 3 -1
BITMAP
00007F8000000000
0007FFF07FFFFFFE
001FFFFC7FFFFFFE
007FFFFE7FFFFFFE
00FFFFFF7FFFFFFE
01FFFFFFFFFFFFFE
03FF003FFFFFFFFE
07FC000FFF000000
07F00007FF000000
0FE00003FF000000
1FC00001FF000000
1FC00000FF000000
3F8000007F000000
3F8000007F000000
3F0000007F000000
7F0000007F000000
7F0000007F000000
7E0000007F000000
7E0000007F000000
7E0000007F000000
FE0000007F000000
FE0000007F000000
FE0000007F000000
FE0000007FFFFFFE
FE0000007FFFFFFE
FC0000007FFFFFFE
FC0000007FFFFFFE
FC0000007FFFFFFE
FE0000007FFFFFFE
FE0000007F000000
FE0000007F000000
FE0000007F000000
FE0000007F000000
FE0000007F000000
7E0000007F000000
7E0000007F000000
7F0000007F000000
7F0000007F000000
3F0000007F000000
3F8000007F000000
3F8000007F000000
1FC00000FF000000
1FC00001FF000000
0FE00003FF000000
0FF00007FF000000
07FC000FFF000000
03FF003FFFFFFFFF
01FFFFFFFFFFFFFF
00FFFFFF7FFFFFFF
007FFFFE7FFFFFFF
001FFFFC7FFFFFFF
0007FFF07FFFFFFF
0000FF8000000000
ENDCHAR
STARTCHAR 0153
ENCODING 339
SWIDTH 950 0
DWIDTH 66 0
BBX 59 39 3 -2
BITMAP
000FF80001FE0000
007FFF000FFFC000
01FFFF801FFFF000
03FFFFE07FFFFC00
07FFFFF0FFFFFE00
0FFE7FF9FFC7FF00
1FF007FBFC00FF00
3FC003FFF8007F80
3F8001FFF0003FC0
7F0000FFE0001FC0
7F00007FC0000FC0
7E00007FC0000FE0
7E00003FC00007E0
FE00003F800007E0
FC00003F800007E0
FC00003F800007E0
FC00003FFFFFFFE0
FC00001FFFFFFFE0
FC00001FFFFFFFE0
FC00001FFFFFFFE0
FC00001FFFFFFFE0
FC00001F80000000
FC00001F80000000
FC00003F80000000
FC00003F80000000
FE00003F80000000
7E00003F800007E0
7E00007FC0000FC0
7F00007FC0000FC0
7F0000FFE0001FC0
3F8001FFF0001F80
3FC003FFF8003F80
1FF007FBFC00FF00
0FFE3FF9FFCFFF00
07FFFFF0FFFFFE00
03FFFFE07FFFFC00
01FFFF803FFFF000
007FFF000FFFC000
000FF80001FF0000
ENDCHAR
STARTCHAR 0154
ENCODING 340
SWIDTH 720 0
DWIDTH 50 0
BBX 41 66 6 0
BITMAP
000007F00000
00000FE00000
00001FC00000
00001F800000
00003F000000
00007E000000
00007C000000
0000F8000000
0001F0000000
0001E0000000
0003C0000000
000000000000
000000000000
000000000000
000000000000
FFFFFFF80000
FFFFFFFF0000
FFFFFFFFC000
FFFFFFFFE000
FFFFFFFFF000
FFFFFFFFF800
FE00000FFC00
FE000003FC00
FE000001FE00
FE000001FE00
FE000000FE00
FE000000FE00
FE000000FE00
FE000000FE00
FE000000FE00
FE000000FE00
FE000000FE00
FE000000FE00
FE000000FE00
FE000001FC00
FE000001FC00
FE000003F800
FE00000FF000
FFFFFFFFE000
FFFFFFFF8000
FFFFFFFF0000
FFFFFFFF8000
FFFFFFFFC000
FFFFFFFFF000
FE00001FF000
FE000007F800
FE000003F800
FE000001FC00
FE000001FC00
FE000000FC00
FE000000FC00
FE000000FC00
FE000000FC00
FE000000FC00
FE000000FC00
FE000000FC00
FE000000FC00
FE000000FC00
FE000000FC00
FE000000FC00
FE000000FE00
FE000000FE00
FE000000FE00
FE0000007F00
FE0000007F80
FE0000007F80
ENDCHAR
STARTCHAR 0155
ENCODING 341
SWIDTH 331 0
DWIDTH 23 0
BBX 18 52 5 0
BITMAP
003FC0
007F80
007F00
00FE00
01FC00
01F800
03F000
03E000
07C000
0F8000
0F0000
000000
000000
000000
000000
000F80
F83F80
F87F80
F8FF80
F9FF80
F9FF80
FBF800
FFC000
FF8000
FF0000
FE0000
FE0000
FC0000
FC0000
FC0000
FC0000
FC0000
FC0000
FC0000
FC0000
FC0000
FC0000
FC0000
FC0000
FC0000
FC0000
FC0000
FC0000
FC0000
FC0000
FC0000
FC0000
FC0000
FC0000
FC0000
FC0000
FC0000
ENDCHAR
STARTCHAR 0156
ENCODING 342
SWIDTH 720 0
DWIDTH 50 0
BBX 41 71 6 -20
BITMAP
FFFFFFF80000
FFFFFFFF0000
FFFFFFFFC000
FFFFFFFFE000
FFFFFFFFF000
FFFFFFFFF800
FE00000FFC00
FE000003FC00
FE000001FE00
FE000001FE00
FE000000FE00
FE000000FE00
FE000000FE00
FE000000FE00
FE000000FE00
FE000000FE00
FE000000FE00
FE000000FE00
FE000000FE00
FE000001FC00
FE000001FC00
FE000003F800
FE00000FF000
FFFFFFFFE000
FFFFFFFF8000
FFFFFFFF0000
FFFFFFFF8000
FFFFFFFFC000
FFFFFFFFF000
FE00001FF000
FE000007F800
FE000003F800
FE000001FC00
FE000001FC00
FE000000FC00
FE000000FC00
FE000000FC00
FE000000FC00
FE000000FC00
FE000000FC00
FE000000FC00
FE000000FC00
FE000000FC00
FE000000FC00
FE000000FC00
FE000000FE00
FE000000FE00
FE000000FE00
FE0000007F00
FE0000007F80
FE0000007F80
000000000000
000000000000
000000000000
000000000000
0000FE000000
0000FE000000
0000FE000000
0000FE000000
0000FE000000
0000FE000000
0000FE000000
00000E000000
00000E000000
00000E000000
00000E000000
00001C000000
00003C000000
0000F8000000
0000F0000000
0000C0000000
ENDCHAR
STARTCHAR 0157
ENCODING 343
SWIDTH 331 0
DWIDTH 23 0
BBX 17 57 5 -20
BITMAP
000F80
F83F80
F87F80
F8FF80
F9FF80
F9FF80
FBF800
FFC000
FF8000
FF0000
FE0000
FE0000
FC0000
FC0000
FC0000
FC0000
FC0000
FC0000
FC0000
FC0000
FC0000
FC0000
FC0000
FC0000
FC0000
FC0000
FC0000
FC0000
FC0000
FC0000
FC0000
FC0000
FC0000
FC0000
FC0000
FC0000
FC0000
000000
000000
000000
000000
FC0000
FC0000
FC0000
FC0000
FC0000
FC0000
FC0000
1C0000
1C0000
1C0000
1C0000
3C0000
780000
F00000
E00000
800000
ENDCHAR
STARTCHAR 0158
ENCODING 344
SWIDTH 720 0
DWIDTH 50 0
BBX 41 66 6 0
BITMAP
007800F80000
003C01F00000
003E03E00000
001F03E00000
001F87C00000
000F8F800000
0007DF800000
0007FF000000
0003FF000000
0001FE000000
0001FC000000
000000000000
000000000000
000000000000
000000000000
FFFFFFF80000
FFFFFFFF0000
FFFFFFFFC000
FFFFFFFFE000
FFFFFFFFF000
FFFFFFFFF800
FE00000FFC00
FE000003FC00
FE000001FE00
FE000001FE00
FE000000FE00
FE000000FE00
FE000000FE00
FE000000FE00
FE000000FE00
FE000000FE00
FE000000FE00
FE000000FE00
FE000000FE00
FE000001FC00
FE000001FC00
FE000003F800
FE00000FF000
FFFFFFFFE000
FFFFFFFF8000
FFFFFFFF0000
FFFFFFFF8000
FFFFFFFFC000
FFFFFFFFF000
FE00001FF000
FE000007F800
FE000003F800
FE000001FC00
FE000001FC00
FE000000FC00
FE000000FC00
FE000000FC00
FE000000FC00
FE000000FC00
FE000000FC00
FE000000FC00
FE000000FC00
FE000000FC00
FE000000FC00
FE000000FC00
FE000000FE00
FE000000FE00
FE000000FE00
FE0000007F00
FE0000007F80
FE0000007F80
ENDCHAR
STARTCHAR 0159
ENCODING 345
SWIDTH 331 0
DWIDTH 23 0
BBX 19 52 4 0
BITMAP
F003E0
F803C0
7C07C0
7E0F80
3E1F80
1F1F00
1FBE00
0FFE00
0FFC00
07FC00
03F800
000000
000000
000000
000000
0007C0
7C1FC0
7C3FC0
7C7FC0
7CFFC0
7CFFC0
7DFC00
7FE000
7FC000
7F8000
7F0000
7F0000
7E0000
7E0000
7E0000
7E0000
7E0000
7E0000
7E0000
7E0000
7E0000
7E0000
7E0000
7E0000
7E0000
7E0000
7E0000
7E0000
7E0000
7E0000
7E0000
7E0000
7E0000
7E0000
7E0000
7E0000
7E0000
ENDCHAR
STARTCHAR 015A
ENCODING 346
SWIDTH 662 0
DWIDTH 46 0
BBX 40 68 3 -2
BITMAP
000003FC00
000007F800
000007F000
00000FE000
00001FC000
00001F8000
00003F0000
00007E0000
00007C0000
0000F80000
0001F00000
0000000000
0000000000
0000000000
0001FF8000
001FFFF800
007FFFFE00
01FFFFFF80
03FFFFFFC0
07FFC7FFE0
0FFC003FF0
0FF0000FF0
1FE00007F8
1FC00003F8
1F800001FC
3F800001FC
3F000000FC
3F000000FC
3F000000FC
3F000000FC
3F80000000
3F80000000
3FC0000000
1FE0000000
1FF8000000
1FFF000000
0FFFE00000
07FFFE0000
03FFFFC000
00FFFFFC00
003FFFFF80
0007FFFFC0
00007FFFF0
00000FFFF8
000000FFFC
0000001FFC
00000007FE
00000001FE
00000000FF
000000007F
FC0000007F
FE0000003F
FE0000003F
7E0000003F
7E0000003F
7F0000007F
7F0000007F
3F800000FE
3FC00000FE
1FE00001FC
1FF00007FC
0FFE001FF8
07FFFFFFF0
03FFFFFFE0
01FFFFFFC0
007FFFFF00
001FFFFC00
0001FFC000
ENDCHAR
STARTCHAR 015B
ENCODING 347
SWIDTH 504 0
DWIDTH 35 0
BBX 30 54 2 -2
BITMAP
00007F00
0000FF00
0000FE00
0001FC00
0003F800
0003F000
0007E000
0007C000
000F8000
001F0000
001E0000
00000000
00000000
00000000
00000000
001FF000
00FFFE00
03FFFF80
07FFFFC0
0FFFFFC0
1FFCFFE0
3FC00FF0
3F8007F0
3F0003F0
7E0003F0
7E0003F0
7E000000
7F000000
7F000000
3FC00000
3FF00000
1FFF0000
0FFFF000
07FFFE00
03FFFFC0
007FFFE0
000FFFF0
00007FF8
00000FF8
000003FC
000001FC
000000FC
FE0000FC
7E0000FC
7E0000FC
7F0001F8
7F0003F8
3FC007F8
3FFC7FF0
1FFFFFE0
0FFFFFC0
07FFFF80
01FFFE00
003FF000
ENDCHAR
STARTCHAR 015C
ENCODING 348
SWIDTH 662 0
DWIDTH 46 0
BBX 40 68 3 -2
BITMAP
0000FE0000
0000FF0000
0001FF8000
0001FF8000
0003EFC000
0007E7E000
0007C3E000
000F81F000
001F00F800
001E007800
003E007C00
0000000000
0000000000
0000000000
0001FF8000
001FFFF800
007FFFFE00
01FFFFFF80
03FFFFFFC0
07FFC7FFE0
0FFC003FF0
0FF0000FF0
1FE00007F8
1FC00003F8
1F800001FC
3F800001FC
3F000000FC
3F000000FC
3F000000FC
3F000000FC
3F80000000
3F80000000
3FC0000000
1FE0000000
1FF8000000
1FFF000000
0FFFE00000
07FFFE0000
03FFFFC000
00FFFFFC00
003FFFFF80
0007FFFFC0
00007FFFF0
00000FFFF8
000000FFFC
0000001FFC
00000007FE
00000001FE
00000000FF
000000007F
FC0000007F
FE0000003F
FE0000003F
7E0000003F
7E0000003F
7F0000007F
7F0000007F
3F800000FE
3FC00000FE
1FE00001FC
1FF00007FC
0FFE001FF8
07FFFFFFF0
03FFFFFFE0
01FFFFFFC0
007FFFFF00
001FFFFC00
0001FFC000
ENDCHAR
STARTCHAR 015D
ENCODING 349
SWIDTH 504 0
DWIDTH 35 0
BBX 30 54 2 -2
BITMAP
000FE000
001FF000
001FF000
003FF800
007EF800
007C7C00
00F87E00
00F83E00
01F01F00
03E00F00
03C00F80
00000000
00000000
00000000
00000000
001FF000
00FFFE00
03FFFF80
07FFFFC0
0FFFFFC0
1FFCFFE0
3FC00FF0
3F8007F0
3F0003F0
7E0003F0
7E0003F0
7E000000
7F000000
7F000000
3FC00000
3FF00000
1FFF0000
0FFFF000
07FFFE00
03FFFFC0
007FFFE0
000FFFF0
00007FF8
00000FF8
000003FC
000001FC
000000FC
FE0000FC
7E0000FC
7E0000FC
7F0001F8
7F0003F8
3FC007F8
3FFC7FF0
1FFFFFE0
0FFFFFC0
07FFFF80
01FFFE00
003FF000
ENDCHAR
STARTCHAR 015E
ENCODING 350
SWIDTH 662 0
DWIDTH 46 0
BBX 39 67 4 -15
BITMAP
0003FF8000
003FFFF000
00FFFFFC00
01FFFFFF00
07FFFFFF80
0FFF8FFFC0
0FF8007FE0
1FE0001FF0
3FC00007F0
3F800003F8
3F000003F8
7F000001F8
7F000001F8
7F000001FC
7F000001FC
7F000001FC
7F00000000
7F00000000
7F80000000
3FC0000000
3FF0000000
1FFE000000
1FFFE00000
0FFFFC0000
07FFFFC000
01FFFFFC00
007FFFFF00
0007FFFFC0
00007FFFE0
00000FFFF0
000000FFF8
0000001FFC
00000007FC
00000003FE
00000001FE
00000000FE
FC0000007E
FC0000007E
FC0000007E
FC0000007E
FC0000007E
FE000000FE
7E000000FE
7F000001FC
7F800001FC
3FC00003F8
1FF0000FF8
1FFE007FF0
0FFFFFFFE0
07FFFFFFC0
01FFFFFF80
00FFFFFE00
001FFFF000
0000FE0000
0000E00000
0000E00000
0001FF0000
0001FF8000
0001BFC000
00000FC000
000007C000
000007C000
00300FC000
007C1F8000
007FFF0000
001FFE0000
0003F00000
ENDCHAR
STARTCHAR 015F
ENCODING 351
SWIDTH 504 0
DWIDTH 35 0
BBX 30 52 2 -15
BITMAP
001FF000
00FFFE00
03FFFF80
07FFFFC0
0FFFFFE0
1FFCFFE0
3FC00FF0
3F8007F0
3F0003F0
7E0003F0
7E0003F0
7E000000
7F000000
3F800000
3FC00000
3FF80000
1FFF8000
0FFFF800
07FFFF00
01FFFFC0
003FFFE0
0003FFF0
00003FF8
000007F8
000001FC
000001FC
FE0000FC
FE0000FC
7E0000FC
7E0001FC
7F0001F8
7F8007F8
3FF01FF0
3FFFFFF0
1FFFFFE0
0FFFFF80
03FFFF00
00FFF800
000E0000
000C0000
001C0000
001FF000
003FF800
0001F800
0000F800
0000F800
0000F800
0700F800
07C1F800
0FFFF000
03FFE000
003F0000
ENDCHAR
STARTCHAR 0160
ENCODING 352
SWIDTH 662 0
DWIDTH 46 0
BBX 40 68 3 -2
BITMAP
003E007C00
001F007800
000F80F800
000F81F000
0007C3E000
0003E7E000
0003FFC000
0001FF8000
0001FF8000
0000FF0000
00007E0000
0000000000
0000000000
0000000000
0001FF8000
001FFFF800
007FFFFE00
01FFFFFF80
03FFFFFFC0
07FFC7FFE0
0FFC003FF0
0FF0000FF0
1FE00007F8
1FC00003F8
1F800001FC
3F800001FC
3F000000FC
3F000000FC
3F000000FC
3F000000FC
3F80000000
3F80000000
3FC0000000
1FE0000000
1FF8000000
1FFF000000
0FFFE00000
07FFFE0000
03FFFFC000
00FFFFFC00
003FFFFF80
0007FFFFC0
00007FFFF0
00000FFFF8
000000FFFC
0000001FFC
00000007FE
00000001FE
00000000FF
000000007F
FC0000007F
FE0000003F
FE0000003F
7E0000003F
7E0000003F
7F0000007F
7F0000007F
3F800000FE
3FC00000FE
1FE00001FC
1FF00007FC
0FFE001FF8
07FFFFFFF0
03FFFFFFE0
01FFFFFFC0
007FFFFF00
001FFFFC00
0001FFC000
ENDCHAR
STARTCHAR 0161
ENCODING 353
SWIDTH 504 0
DWIDTH 35 0
BBX 30 54 2 -2
BITMAP
07C00F80
03E01F00
01F01F00
01F03E00
00F87C00
00FCFC00
007EF800
003FF800
003FF000
001FE000
001FE000
00000000
00000000
00000000
00000000
001FF000
00FFFE00
03FFFF80
07FFFFC0
0FFFFFC0
1FFCFFE0
3FC00FF0
3F8007F0
3F0003F0
7E0003F0
7E0003F0
7E000000
7F000000
7F000000
3FC00000
3FF00000
1FFF0000
0FFFF000
07FFFE00
03FFFFC0
007FFFE0
000FFFF0
00007FF8
00000FF8
000003FC
000001FC
000000FC
FE0000FC
7E0000FC
7E0000FC
7F0001F8
7F0003F8
3FC007F8
3FFC7FF0
1FFFFFE0
0FFFFFC0
07FFFF80
01FFFE00
003FF000
ENDCHAR
STARTCHAR 0162
ENCODING 354
SWIDTH 604 0
DWIDTH 42 0
BBX 40 66 1 -15
BITMAP
FFFFFFFFFF
FFFFFFFFFF
FFFFFFFFFF
FFFFFFFFFF
FFFFFFFFFF
FFFFFFFFFF
00007F0000
00007F0000
00007F0000
00007F0000
00007F0000
00007F0000
00007F0000
00007F0000
00007F0000
00007F0000
00007F0000
00007F0000
00007F0000
00007F0000
00007F0000
00007F0000
00007F0000
00007F0000
00007F0000
00007F0000
00007F0000
00007F0000
00007F0000
00007F0000
00007F0000
00007F0000
00007F0000
00007F0000
00007F0000
00007F0000
00007F0000
00007F0000
00007F0000
00007F0000
00007F0000
00007F0000
00007F0000
00007F0000
00007F0000
00007F0000
00007F0000
00007F0000
00007F0000
00007F0000
00007F0000
00000E0000
00000C0000
00001C0000
00001C0000
00003FE000
00003FF000
000023F800
000001F800
000000F800
000000F800
000601F800
000F83F000
000FFFE000
0003FFC000
00007E0000
ENDCHAR
STARTCHAR 0163
ENCODING 355
SWIDTH 273 0
DWIDTH 19 0
BBX 17 61 1 -15
BITMAP
07E000
07E000
07E000
07E000
07E000
07E000
07E000
07E000
07E000
07E000
FFFF80
FFFF80
FFFF80
FFFF80
FFFF80
07E000
07E000
07E000
07E000
07E000
07E000
07E000
07E000
07E000
07E000
07E000
07E000
07E000
07E000
07E000
07E000
07E000
07E000
07E000
07E000
07E000
07E000
07E000
07E000
07E000
07E000
07E000
07F000
07FF80
07FF80
03FF80
01FF80
00FF80
01C000
01C000
01FC00
03FF00
03FF00
001F80
000F80
000F80
401F80
F83F00
FFFE00
3FFC00
0FF000
ENDCHAR
STARTCHAR 0164
ENCODING 356
SWIDTH 604 0
DWIDTH 42 0
BBX 40 66 1 0
BITMAP
003E003C00
001F007C00
000F80F800
000F81F000
0007C3F000
0003E3E000
0003F7C000
0001FFC000
0000FF8000
0000FF0000
00007F0000
0000000000
0000000000
0000000000
0000000000
FFFFFFFFFF
FFFFFFFFFF
FFFFFFFFFF
FFFFFFFFFF
FFFFFFFFFF
FFFFFFFFFF
00007F0000
00007F0000
00007F0000
00007F0000
00007F0000
00007F0000
00007F0000
00007F0000
00007F0000
00007F0000
00007F0000
00007F0000
00007F0000
00007F0000
00007F0000
00007F0000
00007F0000
00007F0000
00007F0000
00007F0000
00007F0000
00007F0000
00007F0000
00007F0000
00007F0000
00007F0000
00007F0000
00007F0000
00007F0000
00007F0000
00007F0000
00007F0000
00007F0000
00007F0000
00007F0000
00007F0000
00007F0000
00007F0000
00007F0000
00007F0000
00007F0000
00007F0000
00007F0000
00007F0000
00007F0000
ENDCHAR
STARTCHAR 0165
ENCODING 357
SWIDTH 316 0
DWIDTH 22 0
BBX 21 57 1 -2
BITMAP
0003F8
0003F8
0003F8
0003F8
0003F8
0003F8
0003F8
000038
000038
07E038
07E038
07E070
07E0F0
07E3E0
07E3C0
07E000
07E000
07E000
07E000
FFFF80
FFFF80
FFFF80
FFFF80
FFFF80
07E000
07E000
07E000
07E000
07E000
07E000
07E000
07E000
07E000
07E000
07E000
07E000
07E000
07E000
07E000
07E000
07E000
07E000
07E000
07E000
07E000
07E000
07E000
07E000
07E000
07E000
07E000
07F000
07FF80
07FF80
03FF80
01FF80
007F80
ENDCHAR
STARTCHAR 0166
ENCODING 358
SWIDTH 604 0
DWIDTH 42 0
BBX 40 51 1 0
BITMAP
FFFFFFFFFF
FFFFFFFFFF
FFFFFFFFFF
FFFFFFFFFF
FFFFFFFFFF
FFFFFFFFFF
00007F0000
00007F0000
00007F0000
00007F0000
00007F0000
00007F0000
00007F0000
00007F0000
00007F0000
00007F0000
00007F0000
00007F0000
03FFFFFFE0
03FFFFFFE0
03FFFFFFE0
03FFFFFFE0
03FFFFFFE0
00007F0000
00007F0000
00007F0000
00007F0000
00007F0000
00007F0000
00007F0000
00007F0000
00007F0000
00007F0000
00007F0000
00007F0000
00007F0000
00007F0000
00007F0000
00007F0000
00007F0000
00007F0000
00007F0000
00007F0000
00007F0000
00007F0000
00007F0000
00007F0000
00007F0000
00007F0000
00007F0000
00007F0000
ENDCHAR
STARTCHAR 0167
ENCODING 359
SWIDTH 273 0
DWIDTH 19 0
BBX 17 48 1 -2
BITMAP
07E000
07E000
07E000
07E000
07E000
07E000
07E000
07E000
07E000
07E000
FFFF80
FFFF80
FFFF80
FFFF80
FFFF80
07E000
07E000
07E000
07E000
07E000
7FFF00
7FFF00
7FFF00
7FFF00
07E000
07E000
07E000
07E000
07E000
07E000
07E000
07E000
07E000
07E000
07E000
07E000
07E000
07E000
07E000
07E000
07E000
07E000
07F000
07FF80
07FF80
03FF80
01FF80
007F80
ENDCHAR
STARTCHAR 0168
ENCODING 360
SWIDTH 720 0
DWIDTH 50 0
BBX 39 66 6 -2
BITMAP
000F807C00
003FF07800
003FFFF800
007FFFF800
007FFFF000
00F87FE000
00F007C000
0000000000
0000000000
0000000000
0000000000
0000000000
0000000000
FC000000FE
FC000000FE
FC000000FE
FC000000FE
FC000000FE
FC000000FE
FC000000FE
FC000000FE
FC000000FE
FC000000FE
FC000000FE
FC000000FE
FC000000FE
FC000000FE
FC000000FE
FC000000FE
FC000000FE
FC000000FE
FC000000FE
FC000000FE
FC000000FE
FC000000FE
FC000000FE
FC000000FE
FC000000FE
FC000000FE
FC000000FE
FC000000FE
FC000000FE
FC000000FE
FC000000FE
FC000000FE
FC000000FE
FC000000FE
FC000000FE
FC000000FE
FC000000FE
FC000000FE
FE000000FE
FE000000FE
FE000000FC
7F000001FC
7F000001FC
7F800003F8
3FC00007F8
3FF0001FF0
1FFC007FE0
0FFFFFFFC0
07FFFFFF80
03FFFFFF00
00FFFFFC00
003FFFF000
0003FF0000
ENDCHAR
STARTCHAR 0169
ENCODING 361
SWIDTH 561 0
DWIDTH 39 0
BBX 28 52 5 -2
BITMAP
01F00780
03FE0F80
07FFFF00
0FFFFF00
0FFFFE00
0F07FE00
1E00F800
00000000
00000000
00000000
00000000
00000000
00000000
00000000
F80001F0
F80001F0
F80001F0
F80001F0
F80001F0
F80001F0
F80001F0
F80001F0
F80001F0
F80001F0
F80001F0
F80001F0
F80001F0
F80001F0
F80001F0
F80001F0
F80001F0
F80001F0
F80001F0
F80001F0
F80001F0
F80001F0
F80001F0
F80003F0
F80003F0
F80003F0
F80003F0
F80007F0
FC0007F0
FC000FF0
FE001FF0
FF003FF0
FFC0FDF0
7FFFF9F0
3FFFF1F0
1FFFE1F0
0FFF8000
01FC0000
ENDCHAR
STARTCHAR 016A
ENCODING 362
SWIDTH 720 0
DWIDTH 50 0
BBX 39 65 6 -2
BITMAP
003FFFF800
003FFFF800
003FFFF800
003FFFF800
003FFFF800
0000000000
0000000000
0000000000
0000000000
0000000000
0000000000
0000000000
FC000000FE
FC000000FE
FC000000FE
FC000000FE
FC000000FE
FC000000FE
FC000000FE
FC000000FE
FC000000FE
FC000000FE
FC000000FE
FC000000FE
FC000000FE
FC000000FE
FC000000FE
FC000000FE
FC000000FE
FC000000FE
FC000000FE
FC000000FE
FC000000FE
FC000000FE
FC000000FE
FC000000FE
FC000000FE
FC000000FE
FC000000FE
FC000000FE
FC000000FE
FC000000FE
FC000000FE
FC000000FE
FC000000FE
FC000000FE
FC000000FE
FC000000FE
FC000000FE
FC000000FE
FE000000FE
FE000000FE
FE000000FC
7F000001FC
7F000001FC
7F800003F8
3FC00007F8
3FF0001FF0
1FFC007FE0
0FFFFFFFC0
07FFFFFF80
03FFFFFF00
00FFFFFC00
003FFFF000
0003FF0000
ENDCHAR
STARTCHAR 016B
ENCODING 363
SWIDTH 561 0
DWIDTH 39 0
BBX 28 50 5 -2
BITMAP
0FFFFF00
0FFFFF00
0FFFFF00
0FFFFF00
0FFFFF00
00000000
00000000
00000000
00000000
00000000
00000000
00000000
F80001F0
F80001F0
F80001F0
F80001F0
F80001F0
F80001F0
F80001F0
F80001F0
F80001F0
F80001F0
F80001F0
F80001F0
F80001F0
F80001F0
F80001F0
F80001F0
F80001F0
F80001F0
F80001F0
F80001F0
F80001F0
F80001F0
F80001F0
F80003F0
F80003F0
F80003F0
F80003F0
F80007F0
FC0007F0
FC000FF0
FE001FF0
FF003FF0
FFC0FDF0
7FFFF9F0
3FFFF1F0
1FFFE1F0
0FFF8000
01FC0000
ENDCHAR
STARTCHAR 016C
ENCODING 364
SWIDTH 720 0
DWIDTH 50 0
BBX 39 67 6 -2
BITMAP
0078007800
0078007800
007C00F800
007E01F800
003FFFF000
003FFFE000
001FFFE000
0007FF8000
0001FE0000
0000000000
0000000000
0000000000
0000000000
0000000000
FC000000FE
FC000000FE
FC000000FE
FC000000FE
FC000000FE
FC000000FE
FC000000FE
FC000000FE
FC000000FE
FC000000FE
FC000000FE
FC000000FE
FC000000FE
FC000000FE
FC000000FE
FC000000FE
FC000000FE
FC000000FE
FC000000FE
FC000000FE
FC000000FE
FC000000FE
FC000000FE
FC000000FE
FC000000FE
FC000000FE
FC000000FE
FC000000FE
FC000000FE
FC000000FE
FC000000FE
FC000000FE
FC000000FE
FC000000FE
FC000000FE
FC000000FE
FC000000FE
FC000000FE
FE000000FE
FE000000FE
FE000000FC
7F000001FC
7F000001FC
7F800003F8
3FC00007F8
3FF0001FF0
1FFC007FE0
0FFFFFFFC0
07FFFFFF80
03FFFFFF00
00FFFFFC00
003FFFF000
0003FF0000
ENDCHAR
STARTCHAR 016D
ENCODING 365
SWIDTH 561 0
DWIDTH 39 0
BBX 28 53 5 -2
BITMAP
0F000780
0F000F80
0F800F00
0FC01F00
07E07F00
07FFFE00
03FFFE00
01FFFC00
00FFF000
001F8000
00000000
00000000
00000000
00000000
00000000
F80001F0
F80001F0
F80001F0
F80001F0
F80001F0
F80001F0
F80001F0
F80001F0
F80001F0
F80001F0
F80001F0
F80001F0
F80001F0
F80001F0
F80001F0
F80001F0
F80001F0
F80001F0
F80001F0
F80001F0
F80001F0
F80001F0
F80001F0
F80003F0
F80003F0
F80003F0
F80003F0
F80007F0
FC0007F0
FC000FF0
FE001FF0
FF003FF0
FFC0FDF0
7FFFF9F0
3FFFF1F0
1FFFE1F0
0FFF8000
01FC0000
ENDCHAR
STARTCHAR 016E
ENCODING 366
SWIDTH 720 0
DWIDTH 50 0
BBX 39 69 6 -2
BITMAP
00007C0000
0001FE0000
0001FF0000
0003C78000
0003838000
0007038000
0007038000
0007038000
0003838000
0003C78000
0003FF0000
0001FE0000
00007C0000
0000000000
0000000000
0000000000
FC000000FE
FC000000FE
FC000000FE
FC000000FE
FC000000FE
FC000000FE
FC000000FE
FC000000FE
FC000000FE
FC000000FE
FC000000FE
FC000000FE
FC000000FE
FC000000FE
FC000000FE
FC000000FE
FC000000FE
FC000000FE
FC000000FE
FC000000FE
FC000000FE
FC000000FE
FC000000FE
FC000000FE
FC000000FE
FC000000FE
FC000000FE
FC000000FE
FC000000FE
FC000000FE
FC000000FE
FC000000FE
FC000000FE
FC000000FE
FC000000FE
FC000000FE
FC000000FE
FC000000FE
FE000000FE
FE000000FE
FE000000FC
7F000001FC
7F000001FC
7F800003F8
3FC00007F8
3FF0001FF0
1FFC007FE0
0FFFFFFFC0
07FFFFFF80
03FFFFFF00
00FFFFFC00
003FFFF000
0003FF0000
ENDCHAR
STARTCHAR 016F
ENCODING 367
SWIDTH 561 0
DWIDTH 39 0
BBX 28 54 5 -2
BITMAP
000F8000
003FC000
007FE000
0070F000
00E07000
00E07000
00E07000
00E07000
00F0F000
007FE000
003FC000
001F8000
00000000
00000000
00000000
00000000
F80001F0
F80001F0
F80001F0
F80001F0
F80001F0
F80001F0
F80001F0
F80001F0
F80001F0
F80001F0
F80001F0
F80001F0
F80001F0
F80001F0
F80001F0
F80001F0
F80001F0
F80001F0
F80001F0
F80001F0
F80001F0
F80001F0
F80001F0
F80003F0
F80003F0
F80003F0
F80003F0
F80007F0
FC0007F0
FC000FF0
FE001FF0
FF003FF0
FFC0FDF0
7FFFF9F0
3FFFF1F0
1FFFE1F0
0FFF8000
01FC0000
ENDCHAR
STARTCHAR 0170
ENCODING 368
SWIDTH 720 0
DWIDTH 50 0
BBX 39 68 6 -2
BITMAP
00007F87F8
0000FF0FF0
0000FE0FE0
0001FC1FC0
0003F83F80
0003F03F00
0007E07E00
000FC0FC00
000F80F800
001F01F000
003E03E000
0000000000
0000000000
0000000000
0000000000
FC000000FE
FC000000FE
FC000000FE
FC000000FE
FC000000FE
FC000000FE
FC000000FE
FC000000FE
FC000000FE
FC000000FE
FC000000FE
FC000000FE
FC000000FE
FC000000FE
FC000000FE
FC000000FE
FC000000FE
FC000000FE
FC000000FE
FC000000FE
FC000000FE
FC000000FE
FC000000FE
FC000000FE
FC000000FE
FC000000FE
FC000000FE
FC000000FE
FC000000FE
FC000000FE
FC000000FE
FC000000FE
FC000000FE
FC000000FE
FC000000FE
FC000000FE
FC000000FE
FC000000FE
FE000000FE
FE000000FE
FE000000FC
7F000001FC
7F000001FC
7F800003F8
3FC00007F8
3FF0001FF0
1FFC007FE0
0FFFFFFFC0
07FFFFFF80
03FFFFFF00
00FFFFFC00
003FFFF000
0003FF0000
ENDCHAR
STARTCHAR 0171
ENCODING 369
SWIDTH 561 0
DWIDTH 39 0
BBX 31 54 5 -2
BITMAP
000FE0FE
001FC1FC
003F83F8
003F03F0
007E07E0
00FC0FC0
00F80F80
01F01F00
03E01E00
03C03C00
07807C00
00000000
00000000
00000000
00000000
00000000
F80001F0
F80001F0
F80001F0
F80001F0
F80001F0
F80001F0
F80001F0
F80001F0
F80001F0
F80001F0
F80001F0
F80001F0
F80001F0
F80001F0
F80001F0
F80001F0
F80001F0
F80001F0
F80001F0
F80001F0
F80001F0
F80001F0
F80001F0
F80003F0
F80003F0
F80003F0
F80003F0
F80007F0
FC0007F0
FC000FF0
FE001FF0
FF003FF0
FFC0FDF0
7FFFF9F0
3FFFF1F0
1FFFE1F0
0FFF8000
01FC0000
ENDCHAR
STARTCHAR 0172
ENCODING 370
SWIDTH 720 0
DWIDTH 50 0
BBX 39 66 6 -15
BITMAP
FC000000FE
FC000000FE
FC000000FE
FC000000FE
FC000000FE
FC000000FE
FC000000FE
FC000000FE
FC000000FE
FC000000FE
FC000000FE
FC000000FE
FC000000FE
FC000000FE
FC000000FE
FC000000FE
FC000000FE
FC000000FE
FC000000FE
FC000000FE
FC000000FE
FC000000FE
FC000000FE
FC000000FE
FC000000FE
FC000000FE
FC000000FE
FC000000FE
FC000000FE
FC000000FE
FC000000FE
FC000000FE
FC000000FE
FC000000FE
FC000000FE
FC000000FE
FC000000FE
FC000000FE
FE000000FE
FE000000FC
FE000000FC
7F000001FC
7F000003FC
7F800003F8
3FC00007F8
3FF0001FF0
1FFC007FE0
0FFFFFFFC0
07FFFFFF80
03FFFFFF80
00FFFFFE00
003FFFFC00
0003FFBC00
0000007800
000001F000
000001E000
000003E000
000003E000
000007C000
000007C000
000007E000
000003E000
000003F810
000001FFF0
000000FFF0
0000001FE0
ENDCHAR
STARTCHAR 0173
ENCODING 371
SWIDTH 561 0
DWIDTH 39 0
BBX 31 51 5 -15
BITMAP
F80001F0
F80001F0
F80001F0
F80001F0
F80001F0
F80001F0
F80001F0
F80001F0
F80001F0
F80001F0
F80001F0
F80001F0
F80001F0
F80001F0
F80001F0
F80001F0
F80001F0
F80001F0
F80001F0
F80001F0
F80001F0
F80001F0
F80001F0
F80001F0
F80003F0
F80003F0
F80003F0
F80007F0
FC0007F0
FC000FF0
FE001FF0
FF003FF0
FFC0FDF0
7FFFFDF0
3FFFF9F0
1FFFE1F0
0FFFC0F0
01FE03C0
000007C0
00000F80
00001F00
00001F00
00003E00
00003E00
00003E00
00003E00
00003F00
00001FC2
00000FFE
000007FE
000001FE
ENDCHAR
STARTCHAR 0174
ENCODING 372
SWIDTH 950 0
DWIDTH 66 0
BBX 62 66 2 0
BITMAP
0000001FC0000000
0000003FE0000000
0000003FE0000000
0000007FF0000000
0000007DF0000000
000000F8F8000000
000001F87C000000
000001F07C000000
000003E03E000000
000007C01F000000
000007800F000000
0000000000000000
0000000000000000
0000000000000000
0000000000000000
FE00001FE00001FC
FE00001FE00001FC
FE00001FE00001FC
FF00001FE00003FC
7F00003FF00003F8
7F00003FF00003F8
7F00003FF00003F8
7F00007FF80003F8
3F80007FF80007F0
3F80007FF80007F0
3F80007FF80007F0
3F8000FCFC0007F0
1FC000FCFC000FE0
1FC000FCFC000FE0
1FC000F8FC000FE0
1FC001F87E000FE0
0FE001F87E000FC0
0FE001F87E001FC0
0FE003F03F001FC0
0FE003F03F001FC0
07E003F03F001F80
07F003F03F003F80
07F007E01F803F80
07F007E01F803F80
03F007E01F803F00
03F807C01FC03F00
03F80FC00FC07F00
03F80FC00FC07F00
01F80FC00FC07E00
01FC1F8007E07E00
01FC1F8007E0FE00
00FC1F8007E0FE00
00FC1F8007F0FC00
00FC3F0003F0FC00
00FE3F0003F0FC00
007E3F0003F1FC00
007E3F0001F9F800
007E7E0001F9F800
007F7E0001F9F800
003F7E0001FBF800
003FFC0000FFF000
003FFC0000FFF000
003FFC0000FFF000
001FFC0000FFF000
001FF800007FE000
001FF800007FE000
001FF800007FE000
000FF800003FE000
000FF000003FC000
000FF000003FC000
000FF000003FC000
ENDCHAR
STARTCHAR 0175
ENCODING 373
SWIDTH 720 0
DWIDTH 50 0
BBX 48 52 1 0
BITMAP
00000FE00000
00001FF00000
00001FF80000
00003FF80000
00003EFC0000
00007C7C0000
0000FC3E0000
0000F83F0000
0001F01F0000
0001E00F8000
0003E0078000
000000000000
000000000000
000000000000
000000000000
000000000000
FC000FE0007F
FC000FF0007F
FC000FF0007E
FE001FF0007E
7E001FF000FE
7E001FF800FE
7F001FF800FC
3F003FF800FC
3F003EF801FC
3F003EFC01F8
3F803EFC01F8
1F807EFC01F8
1F807C7C03F0
1F807C7E03F0
0FC07C7E03F0
0FC0FC7E03F0
0FC0F83E07E0
07C0F83F07E0
07E0F83F07E0
07E1F81F07C0
07E1F01F0FC0
03F1F01F8FC0
03F1F01F8F80
03F3F00F8F80
01F3E00FDF80
01FBE00FDF80
01FBE00FDF00
01FFE007DF00
00FFC007FF00
00FFC007FE00
00FFC007FE00
007FC003FE00
007F8003FE00
007F8003FC00
003F8003FC00
003F8001FC00
ENDCHAR
STARTCHAR 0176
ENCODING 374
SWIDTH 662 0
DWIDTH 46 0
BBX 45 66 1 0
BITMAP
00000FC00000
00001FE00000
00003FF00000
00003FF00000
00007FF80000
0000FCF80000
0000F87C0000
0001F03E0000
0003E01E0000
0003C01F0000
0007C00F8000
000000000000
000000000000
000000000000
000000000000
FF00000007F8
7F8000000FF0
7F8000000FE0
3FC000001FE0
1FE000001FC0
1FE000003FC0
0FF000007F80
07F000007F00
07F80000FF00
03FC0000FE00
03FC0001FC00
01FE0003FC00
00FE0003F800
00FF0007F800
007F8007F000
003F800FE000
003FC00FE000
001FC01FC000
000FE03FC000
000FF03F8000
0007F07F0000
0007F87F0000
0003F8FE0000
0001FCFC0000
0001FFFC0000
0000FFF80000
00007FF80000
00007FF00000
00003FE00000
00003FE00000
00001FC00000
00001FC00000
00001FC00000
00001FC00000
00001FC00000
00001FC00000
00001FC00000
00001FC00000
00001FC00000
00001FC00000
00001FC00000
00001FC00000
00001FC00000
00001FC00000
00001FC00000
00001FC00000
00001FC00000
00001FC00000
00001FC00000
00001FC00000
00001FC00000
ENDCHAR
STARTCHAR 0177
ENCODING 375
SWIDTH 504 0
DWIDTH 35 0
BBX 31 67 2 -15
BITMAP
000FE000
001FF000
001FF000
003FF800
007EF800
007C7C00
00F87E00
00F83E00
01F01F00
03E00F00
03C00F80
00000000
00000000
00000000
00000000
00000000
FC00007E
FC0000FE
FC0000FC
7E0000FC
7E0001FC
7E0001F8
3F0001F8
3F0003F0
3F0003F0
1F8003F0
1F8007E0
1F8007E0
0FC00FE0
0FC00FC0
0FC00FC0
07E01F80
07E01F80
07E01F80
03F03F00
03F03F00
03F03F00
01F87E00
01F87E00
01F8FC00
00FCFC00
00FCFC00
00FDF800
007FF800
007FF800
007FF000
003FF000
003FE000
003FE000
001FE000
001FC000
001FC000
000FC000
001F8000
001F8000
003F8000
003F0000
003F0000
007E0000
007E0000
00FE0000
3FFC0000
3FFC0000
3FF80000
3FF00000
3FE00000
1F800000
ENDCHAR
STARTCHAR 0178
ENCODING 376
SWIDTH 662 0
DWIDTH 46 0
BBX 45 64 1 0
BITMAP
0007F87F0000
0007F87F0000
0007F87F0000
0007F87F0000
0007F87F0000
0007F87F0000
0007F87F0000
000000000000
000000000000
000000000000
000000000000
000000000000
000000000000
FF00000007F8
7F8000000FF0
7F8000000FE0
3FC000001FE0
1FE000001FC0
1FE000003FC0
0FF000007F80
07F000007F00
07F80000FF00
03FC0000FE00
03FC0001FC00
01FE0003FC00
00FE0003F800
00FF0007F800
007F8007F000
003F800FE000
003FC00FE000
001FC01FC000
000FE03FC000
000FF03F8000
0007F07F0000
0007F87F0000
0003F8FE0000
0001FCFC0000
0001FFFC0000
0000FFF80000
00007FF80000
00007FF00000
00003FE00000
00003FE00000
00001FC00000
00001FC00000
00001FC00000
00001FC00000
00001FC00000
00001FC00000
00001FC00000
00001FC00000
00001FC00000
00001FC00000
00001FC00000
00001FC00000
00001FC00000
00001FC00000
00001FC00000
00001FC00000
00001FC00000
00001FC00000
00001FC00000
00001FC00000
00001FC00000
ENDCHAR
STARTCHAR 0179
ENCODING 377
SWIDTH 604 0
DWIDTH 42 0
BBX 38 66 2 0
BITMAP
000003FC00
000007F800
000007F000
00000FE000
00001FC000
00001F8000
00003F0000
00003E0000
00007C0000
0000F80000
0000F00000
0000000000
0000000000
0000000000
0000000000
3FFFFFFFFC
3FFFFFFFFC
3FFFFFFFFC
3FFFFFFFFC
3FFFFFFFFC
3FFFFFFFFC
00000003FC
00000007F8
0000000FF0
0000001FF0
0000001FE0
0000003FC0
0000007F80
000000FF00
000000FF00
000001FE00
000003FC00
000007F800
000007F800
00000FF000
00001FE000
00003FC000
00007FC000
00007F8000
0000FF0000
0001FE0000
0003FC0000
0003FC0000
0007F80000
000FF00000
001FE00000
001FE00000
003FC00000
007F800000
00FF000000
01FF000000
01FE000000
03FC000000
07F8000000
0FF8000000
0FF0000000
1FE0000000
3FC0000000
7F80000000
7F80000000
FFFFFFFFFC
FFFFFFFFFC
FFFFFFFFFC
FFFFFFFFFC
FFFFFFFFFC
FFFFFFFFFC
ENDCHAR
STARTCHAR 017A
ENCODING 378
SWIDTH 504 0
DWIDTH 35 0
BBX 30 52 2 0
BITMAP
00007F80
0000FF00
0000FE00
0001FC00
0001F800
0003F000
0007E000
0007C000
000F8000
000F0000
001E0000
00000000
00000000
00000000
00000000
00000000
3FFFFFF8
3FFFFFF8
3FFFFFF8
3FFFFFF8
3FFFFFF8
000003F0
000007F0
00000FE0
00001FC0
00003F80
00007F00
0000FE00
0000FE00
0001FC00
0003F800
0007F000
000FE000
001FC000
001FC000
003F8000
007F0000
00FE0000
01FC0000
03F80000
07F80000
07F00000
0FE00000
1FC00000
3F800000
7F000000
FF000000
FFFFFFFC
FFFFFFFC
FFFFFFFC
FFFFFFFC
FFFFFFFC
ENDCHAR
STARTCHAR 017B
ENCODING 379
SWIDTH 604 0
DWIDTH 42 0
BBX 38 64 2 0
BITMAP
00007F0000
00007F0000
00007F0000
00007F0000
00007F0000
00007F0000
00007F0000
0000000000
0000000000
0000000000
0000000000
0000000000
0000000000
3FFFFFFFFC
3FFFFFFFFC
3FFFFFFFFC
3FFFFFFFFC
3FFFFFFFFC
3FFFFFFFFC
00000003FC
00000007F8
0000000FF0
0000001FF0
0000001FE0
0000003FC0
0000007F80
000000FF00
000000FF00
000001FE00
000003FC00
000007F800
000007F800
00000FF000
00001FE000
00003FC000
00007FC000
00007F8000
0000FF0000
0001FE0000
0003FC0000
0003FC0000
0007F80000
000FF00000
001FE00000
001FE00000
003FC00000
007F800000
00FF000000
01FF000000
01FE000000
03FC000000
07F8000000
0FF8000000
0FF0000000
1FE0000000
3FC0000000
7F80000000
7F80000000
FFFFFFFFFC
FFFFFFFFFC
FFFFFFFFFC
FFFFFFFFFC
FFFFFFFFFC
FFFFFFFFFC
ENDCHAR
STARTCHAR 017C
ENCODING 380
SWIDTH 504 0
DWIDTH 35 0
BBX 30 50 2 0
BITMAP
000FE000
000FE000
000FE000
000FE000
000FE000
000FE000
000FE000
00000000
00000000
00000000
00000000
00000000
00000000
00000000
3FFFFFF8
3FFFFFF8
3FFFFFF8
3FFFFFF8
3FFFFFF8
000003F0
000007F0
00000FE0
00001FC0
00003F80
00007F00
0000FE00
0000FE00
0001FC00
0003F800
0007F000
000FE000
001FC000
001FC000
003F8000
007F0000
00FE0000
01FC0000
03F80000
07F80000
07F00000
0FE00000
1FC00000
3F800000
7F000000
FF000000
FFFFFFFC
FFFFFFFC
FFFFFFFC
FFFFFFFC
FFFFFFFC
ENDCHAR
STARTCHAR 017D
ENCODING 381
SWIDTH 604 0
DWIDTH 42 0
BBX 38 66 2 0
BITMAP
003E003C00
001F007800
000F00F800
000F81F000
0007C3E000
0007E7E000
0003F7C000
0001FFC000
0001FF8000
0000FF0000
00007F0000
0000000000
0000000000
0000000000
0000000000
3FFFFFFFFC
3FFFFFFFFC
3FFFFFFFFC
3FFFFFFFFC
3FFFFFFFFC
3FFFFFFFFC
00000003FC
00000007F8
0000000FF0
0000001FF0
0000001FE0
0000003FC0
0000007F80
000000FF00
000000FF00
000001FE00
000003FC00
000007F800
000007F800
00000FF000
00001FE000
00003FC000
00007FC000
00007F8000
0000FF0000
0001FE0000
0003FC0000
0003FC0000
0007F80000
000FF00000
001FE00000
001FE00000
003FC00000
007F800000
00FF000000
01FF000000
01FE000000
03FC000000
07F8000000
0FF8000000
0FF0000000
1FE0000000
3FC0000000
7F80000000
7F80000000
FFFFFFFFFC
FFFFFFFFFC
FFFFFFFFFC
FFFFFFFFFC
FFFFFFFFFC
FFFFFFFFFC
ENDCHAR
STARTCHAR 017E
ENCODING 382
SWIDTH 504 0
DWIDTH 35 0
BBX 30 52 2 0
BITMAP
03C00780
03E00F00
01F01F00
00F83E00
00F87E00
007C7C00
007EF800
003FF800
001FF000
001FF000
000FE000
00000000
00000000
00000000
00000000
00000000
3FFFFFF8
3FFFFFF8
3FFFFFF8
3FFFFFF8
3FFFFFF8
000003F0
000007F0
00000FE0
00001FC0
00003F80
00007F00
0000FE00
0000FE00
0001FC00
0003F800
0007F000
000FE000
001FC000
001FC000
003F8000
007F0000
00FE0000
01FC0000
03F80000
07F80000
07F00000
0FE00000
1FC00000
3F800000
7F000000
FF000000
FFFFFFFC
FFFFFFFC
FFFFFFFC
FFFFFFFC
FFFFFFFC
ENDCHAR
STARTCHAR 017F
ENCODING 383
SWIDTH 216 0
DWIDTH 15 0
BBX 17 51 -1 0
BITMAP
003F80
00FF80
01FF80
03FF80
03FF80
03F800
07F000
07E000
07E000
07E000
07E000
07E000
07E000
07E000
07E000
FFE000
FFE000
FFE000
FFE000
FFE000
07E000
07E000
07E000
07E000
07E000
07E000
07E000
07E000
07E000
07E000
07E000
07E000
07E000
07E000
07E000
07E000
07E000
07E000
07E000
07E000
07E000
07E000
07E000
07E000
07E000
07E000
07E000
07E000
07E000
07E000
07E000
ENDCHAR
STARTCHAR 0192
ENCODING 402
SWIDTH 561 0
DWIDTH 39 0
BBX 37 67 1 -15
BITMAP
0000000FC0
0000003FF8
000000FFF0
000001FFF0
000003FFE0
000007FFE0
000007F020
00000FE000
00000FC000
00000FC000
00001F8000
00001F8000
00001F8000
00001F8000
00003F0000
00003F0000
00003F0000
00003F0000
00003F0000
007FFFFE00
007FFFFE00
007FFFFE00
007FFFFE00
007FFFFE00
0000FE0000
0000FC0000
0000FC0000
0000FC0000
0000FC0000
0000FC0000
0001F80000
0001F80000
0001F80000
0001F80000
0001F80000
0003F80000
0003F00000
0003F00000
0003F00000
0003F00000
0003F00000
0007E00000
0007E00000
0007E00000
0007E00000
0007E00000
000FE00000
000FC00000
000FC00000
000FC00000
000FC00000
000FC00000
001F800000
001F800000
001F800000
001F800000
003F800000
003F000000
003F000000
007E000000
00FE000000
77FC000000
7FF8000000
FFF0000000
FFE0000000
FFC0000000
FE00000000
ENDCHAR
STARTCHAR 01FA
ENCODING 506
SWIDTH 662 0
DWIDTH 46 0
BBX 44 75 1 0
BITMAP
00003FC00000
00007F000000
0000FE000000
0000FC000000
0001F8000000
0003F0000000
0003E0000000
0007C0000000
000F8F800000
000F3FC00000
00007FE00000
000078F00000
0000F0700000
0000E0700000
0000E0700000
0000E0700000
0000F0700000
000078F00000
00007FE00000
00003FC00000
00000F800000
000000000000
000000000000
000000000000
00003FE00000
00003FE00000
00007FE00000
00007FF00000
00007FF00000
0000FFF00000
0000FFF80000
0000FDF80000
0001FDFC0000
0001F9FC0000
0001F8FC0000
0003F8FE0000
0003F0FE0000
0007F07E0000
0007F07F0000
0007E07F0000
000FE03F0000
000FE03F8000
000FC03F8000
001FC01F8000
001F801FC000
001F801FC000
003F800FC000
003F000FE000
003F000FE000
007F0007E000
007E0007F000
00FE0007F000
00FE0003F800
00FC0003F800
01FFFFFFF800
01FFFFFFFC00
01FFFFFFFC00
03FFFFFFFC00
03FFFFFFFE00
03F00000FE00
07F00000FE00
07F000007F00
07E000007F00
0FE000007F00
0FE000003F80
0FC000003F80
1FC000003F80
1FC000001FC0
3F8000001FC0
3F8000001FC0
3F8000000FE0
7F0000000FE0
7F0000000FE0
7F00000007F0
FE00000007F0
ENDCHAR
STARTCHAR 01FB
ENCODING 507
SWIDTH 561 0
DWIDTH 39 0
BBX 34 64 3 -2
BITMAP
0007F80000
000FF00000
000FE00000
001F800000
003F000000
003E000000
007C000000
00F8000000
00F0000000
01E0000000
0003E00000
000FF00000
001FF80000
001E3C0000
003C1C0000
00381C0000
00381C0000
003C1C0000
001E3C0000
001FF80000
000FF00000
0003E00000
0000000000
0000000000
0000000000
001FF80000
00FFFF8000
03FFFFC000
07FFFFE000
0FFFFFF000
1FFE7FF800
1FC007F800
3F8001FC00
3F0001FC00
3F0000FC00
3F0000FC00
3E0000FC00
000000FC00
000000FC00
000001FC00
000003FC00
00007FFC00
003FFFFC00
03FFFFFC00
07FFFFFC00
1FFFF8FC00
3FFC00FC00
7FC000FC00
7F0000FC00
7E0000FC00
FC0000FC00
FC0000FC00
FC0000FC00
FC0000FC00
FC0001FC00
FC0003FC00
FE0007FC00
7F001FFC00
7FC07FFE00
3FFFFEFFC0
1FFFFC7FC0
0FFFF87FC0
07FFE03FC0
00FF001FC0
ENDCHAR
ENDFONT
